{"glyphs":{"0":{"ha":885,"x_min":35,"x_max":850,"o":"m 442 0 q 611 41 536 0 q 740 151 686 82 q 822 308 793 221 q 850 486 850 394 q 799 733 850 624 q 657 908 749 843 q 442 972 565 972 q 272 932 347 972 q 144 823 197 892 q 63 667 90 754 q 35 486 35 581 q 63 298 35 386 q 145 142 92 210 q 274 38 199 75 q 442 0 349 0 m 442 260 q 353 295 386 260 q 306 380 321 331 q 292 472 292 429 q 307 574 292 526 q 355 652 322 622 q 442 682 388 682 q 529 652 496 682 q 577 574 563 622 q 592 472 592 526 q 576 369 592 418 q 528 290 561 321 q 442 260 496 260 "},"1":{"ha":761,"x_min":35,"x_max":726,"o":"m 389 3 q 515 3 454 3 q 623 12 575 3 q 699 47 671 21 q 726 125 726 74 q 678 222 726 194 q 556 257 631 250 l 556 767 q 501 920 556 868 q 361 972 447 972 q 200 944 275 972 q 80 869 125 915 q 35 768 35 822 q 58 698 35 725 q 116 658 81 671 q 193 642 151 644 q 272 644 235 639 q 273 530 272 585 q 275 412 274 475 q 276 261 276 349 q 162 247 213 258 q 81 208 111 236 q 51 125 51 179 q 79 47 51 74 q 155 12 107 21 q 263 3 203 3 q 389 3 324 3 "},"2":{"ha":808,"x_min":35,"x_max":774,"o":"m 421 -1 q 622 10 544 0 q 737 51 700 21 q 774 144 774 82 q 714 249 774 221 q 547 278 654 278 q 656 374 608 315 q 732 500 704 432 q 760 633 760 568 q 728 780 760 717 q 646 886 697 843 q 531 951 594 929 q 400 972 467 972 q 264 950 329 972 q 147 886 199 928 q 65 789 96 844 q 35 667 35 733 q 75 546 35 583 q 167 508 115 508 q 231 522 197 508 q 282 574 265 535 q 300 615 292 596 q 324 647 308 635 q 372 660 340 660 q 427 635 406 660 q 449 574 449 610 q 417 485 449 531 q 339 397 386 440 q 243 311 292 353 q 163 247 200 274 q 103 190 125 221 q 81 110 81 160 q 105 36 81 60 q 176 5 129 13 q 286 -3 222 -3 q 350 -2 317 -3 q 421 -1 383 -1 "},"3":{"ha":731,"x_min":29,"x_max":696,"o":"m 371 1 q 537 38 464 1 q 652 133 610 74 q 694 263 694 193 q 680 360 694 322 q 644 423 665 399 q 601 465 624 447 q 674 571 651 510 q 696 682 696 632 q 653 821 696 754 q 536 930 611 888 q 363 972 461 972 q 187 939 260 972 q 76 856 114 906 q 38 758 38 807 q 65 673 38 701 q 143 644 93 644 q 189 651 172 644 q 220 667 206 658 q 255 683 235 676 q 311 690 275 690 q 376 668 351 690 q 401 614 401 646 q 369 561 401 579 q 300 543 338 543 q 246 536 274 543 q 199 510 218 529 q 179 456 179 492 q 199 399 179 419 q 245 372 218 379 q 297 364 272 364 q 376 343 351 364 q 401 290 401 322 q 304 217 401 217 q 243 231 267 217 q 197 258 219 244 q 140 272 175 272 q 60 244 90 272 q 36 163 29 215 q 74 90 42 121 q 156 40 107 60 q 262 11 206 21 q 371 1 318 1 "},"4":{"ha":886,"x_min":35,"x_max":851,"o":"m 576 0 q 661 40 632 0 q 690 131 690 79 q 690 197 690 143 q 713 199 703 197 q 824 242 796 206 q 851 321 851 278 q 837 376 851 349 q 794 423 822 404 q 722 442 765 442 q 689 442 715 442 q 689 574 689 510 q 689 685 689 639 q 689 747 689 732 q 655 919 689 867 q 533 972 621 972 q 442 950 488 972 q 340 873 396 928 q 207 722 285 818 q 123 603 163 667 q 59 481 83 540 q 35 379 35 422 q 60 265 35 304 q 125 209 85 225 q 214 191 165 193 q 310 189 263 189 q 377 189 340 189 q 454 190 414 189 q 454 153 454 168 q 454 131 454 138 q 485 39 454 78 q 576 0 517 0 m 456 639 q 452 551 453 604 q 451 438 451 499 q 356 437 397 438 q 310 436 315 436 q 354 510 333 481 q 399 567 375 539 q 456 639 422 596 "},"5":{"ha":769,"x_min":35,"x_max":735,"o":"m 328 1 q 419 9 367 1 q 526 37 471 17 q 628 92 581 57 q 706 183 676 128 q 735 317 735 239 q 693 478 735 408 q 578 585 651 547 q 410 624 506 624 q 286 608 351 624 l 286 725 q 518 730 419 725 q 671 760 617 735 q 725 850 725 786 q 697 922 725 897 q 621 958 668 947 q 517 970 574 968 q 404 972 460 972 q 306 972 361 972 q 206 968 251 971 q 83 924 132 963 q 35 819 35 885 q 36 757 36 800 q 36 667 36 714 q 36 586 36 619 q 37 478 36 528 q 52 395 38 428 q 107 353 67 363 q 170 352 144 344 q 217 374 196 360 q 261 399 239 388 q 314 411 283 411 q 413 380 379 411 q 446 296 446 349 q 417 232 446 263 q 329 201 388 201 q 276 213 293 201 q 242 234 258 224 q 192 244 225 244 q 113 215 138 244 q 89 151 89 185 q 125 73 89 107 q 217 20 161 39 q 328 1 272 1 "},"6":{"ha":833,"x_min":35,"x_max":799,"o":"m 436 1 q 621 44 539 1 q 751 163 703 88 q 799 339 799 239 q 760 501 799 431 q 651 613 722 572 q 476 653 579 653 q 422 647 454 653 q 357 631 389 642 q 303 604 325 619 q 383 692 332 663 q 497 731 433 721 q 628 740 561 740 q 725 774 693 740 q 757 846 757 807 q 734 906 757 878 q 656 953 711 935 q 500 972 600 972 q 262 908 367 972 q 96 728 157 844 q 35 453 35 613 q 56 296 35 375 q 123 150 76 217 q 247 42 169 83 q 436 1 324 1 m 444 214 q 369 247 401 214 q 336 322 336 279 q 369 399 336 367 q 444 431 401 431 q 521 399 489 431 q 553 322 553 367 q 521 247 553 279 q 444 214 489 214 "},"7":{"ha":911,"x_min":28,"x_max":876,"o":"m 510 0 q 603 32 568 0 q 659 110 638 64 q 697 200 681 157 q 785 426 744 322 q 851 615 825 531 q 876 765 876 700 q 812 928 876 883 q 639 972 747 972 q 586 973 625 972 q 501 974 547 974 q 414 974 454 974 q 357 975 374 975 q 170 960 244 975 q 62 895 96 944 q 36 743 28 846 q 60 549 46 633 q 111 418 75 465 q 218 371 147 371 q 288 401 264 371 q 319 478 311 431 q 327 576 328 525 q 324 668 326 626 l 561 668 q 524 557 546 619 q 481 429 503 494 q 441 303 460 364 q 410 193 422 242 q 399 118 399 144 q 412 65 399 93 q 450 19 425 38 q 510 0 475 0 "},"8":{"ha":779,"x_min":35,"x_max":747,"o":"m 382 1 q 558 39 476 1 q 690 144 639 76 q 744 303 742 213 q 717 435 747 371 q 632 542 688 500 q 682 622 664 569 q 700 728 700 674 q 660 858 700 801 q 552 946 619 914 q 401 978 485 978 q 219 940 292 978 q 112 843 147 901 q 76 725 76 785 q 99 617 76 663 q 164 538 121 571 q 72 436 108 499 q 35 293 35 374 q 82 132 35 197 q 208 33 129 67 q 382 1 288 0 m 388 592 q 327 617 353 592 q 301 678 301 643 q 327 738 301 713 q 388 764 353 764 q 449 738 424 764 q 475 678 475 713 q 449 617 475 643 q 388 592 424 592 m 381 219 q 311 249 340 219 q 282 318 282 278 q 311 388 282 358 q 381 417 340 417 q 450 388 421 417 q 479 318 479 358 q 450 249 479 278 q 381 219 421 219 "},"9":{"ha":790,"x_min":35,"x_max":756,"o":"m 322 6 q 488 47 410 6 q 626 160 565 89 q 721 323 686 232 q 756 511 756 414 q 739 672 756 590 q 681 821 722 753 q 569 931 640 889 q 386 972 497 972 q 205 926 285 972 q 80 799 125 881 q 35 608 35 718 q 90 417 35 489 q 233 316 144 344 q 426 294 322 288 q 364 227 406 247 q 271 201 322 207 q 189 174 217 200 q 167 93 161 147 q 200 37 172 56 q 262 12 228 18 q 322 6 296 6 m 386 496 q 310 528 343 496 q 278 604 278 561 q 310 681 278 649 q 386 714 343 714 q 463 681 431 714 q 496 604 496 649 q 463 528 496 561 q 386 496 431 496 "},"A":{"ha":971,"x_min":25,"x_max":947,"o":"m 251 -3 q 335 18 306 -3 q 376 70 364 39 q 388 134 388 101 q 383 190 388 167 q 483 188 424 188 q 588 190 543 189 q 583 134 583 167 q 595 70 583 101 q 636 19 607 39 q 719 -1 665 -1 q 870 89 815 -1 q 935 335 925 179 q 895 667 947 524 q 738 890 843 810 q 486 971 633 971 q 235 890 340 971 q 77 666 129 810 q 36 335 25 522 q 101 90 46 183 q 251 -3 156 -3 m 374 438 q 374 531 367 488 q 408 603 382 575 q 482 631 433 631 q 557 603 531 631 q 592 531 583 575 q 593 438 600 486 q 374 438 483 442 "},"Á":{"ha":972,"x_min":25,"x_max":947,"o":"m 251 -3 q 335 18 306 -3 q 376 70 364 39 q 388 134 388 101 q 383 190 388 167 q 483 188 424 188 q 588 190 543 189 q 583 134 583 167 q 595 70 583 101 q 636 19 607 39 q 719 -1 665 -1 q 870 89 815 -1 q 935 335 925 179 q 895 667 947 524 q 738 890 843 810 q 486 971 633 971 q 235 890 340 971 q 77 666 129 810 q 36 335 25 522 q 101 90 46 183 q 251 -3 156 -3 m 374 438 q 374 531 367 488 q 408 603 382 575 q 482 631 433 631 q 557 603 531 631 q 592 531 583 575 q 593 438 600 486 q 374 438 483 442 m 436 1006 q 486 1021 457 1006 q 544 1059 515 1036 q 594 1106 574 1082 q 614 1150 614 1131 q 593 1206 615 1178 q 528 1235 571 1235 q 479 1217 507 1235 q 426 1172 451 1199 q 385 1117 401 1144 q 368 1071 368 1090 q 387 1027 368 1049 q 436 1006 406 1006 "},"Ă":{"ha":972,"x_min":25,"x_max":947,"o":"m 251 -3 q 335 18 306 -3 q 376 70 364 39 q 388 134 388 101 q 383 190 388 167 q 483 188 424 188 q 588 190 543 189 q 583 134 583 167 q 595 70 583 101 q 636 19 607 39 q 719 -1 665 -1 q 870 89 815 -1 q 935 335 925 179 q 895 667 947 524 q 738 890 843 810 q 486 971 633 971 q 235 890 340 971 q 77 666 129 810 q 36 335 25 522 q 101 90 46 183 q 251 -3 156 -3 m 374 438 q 374 531 367 488 q 408 603 382 575 q 482 631 433 631 q 557 603 531 631 q 592 531 583 575 q 593 438 600 486 q 374 438 483 442 m 483 1014 q 586 1038 543 1014 q 653 1097 629 1061 q 676 1167 676 1132 q 661 1217 676 1192 q 610 1242 646 1242 q 556 1224 571 1242 q 528 1188 542 1207 q 485 1163 510 1163 q 442 1188 460 1164 q 411 1224 428 1207 q 361 1242 394 1242 q 310 1217 325 1242 q 294 1167 294 1192 q 317 1099 294 1135 q 383 1038 340 1063 q 483 1014 425 1014 "},"Ắ":{"ha":971,"x_min":25,"x_max":947,"o":"m 479 1247 q 525 1260 499 1247 q 578 1294 551 1274 q 622 1338 604 1315 q 642 1378 640 1360 q 622 1428 642 1403 q 563 1454 601 1454 q 519 1438 543 1454 q 472 1397 494 1422 q 433 1347 449 1372 q 418 1306 418 1322 q 435 1266 418 1285 q 479 1247 451 1247 m 483 1000 q 586 1024 543 1000 q 653 1083 629 1047 q 676 1153 676 1118 q 661 1203 676 1178 q 610 1228 646 1228 q 556 1210 571 1228 q 528 1174 542 1193 q 485 1149 510 1149 q 442 1174 460 1150 q 411 1210 428 1193 q 361 1228 394 1228 q 310 1203 325 1228 q 294 1153 294 1178 q 317 1085 294 1121 q 383 1024 340 1049 q 483 1000 425 1000 m 251 -3 q 335 18 306 -3 q 376 70 364 39 q 388 134 388 101 q 383 190 388 167 q 483 188 424 188 q 588 190 543 189 q 583 134 583 167 q 595 70 583 101 q 636 19 607 39 q 719 -1 665 -1 q 870 89 815 -1 q 935 335 925 179 q 895 667 947 524 q 738 890 843 810 q 486 971 633 971 q 235 890 340 971 q 77 666 129 810 q 36 335 25 522 q 101 90 46 183 q 251 -3 156 -3 m 374 438 q 374 531 367 488 q 408 603 382 575 q 482 631 433 631 q 557 603 531 631 q 592 531 583 575 q 593 438 600 486 q 374 438 483 442 "},"Ặ":{"ha":971,"x_min":25,"x_max":947,"o":"m 251 -3 q 335 18 306 -3 q 376 70 364 39 q 388 134 388 101 q 383 190 388 167 q 483 188 424 188 q 588 190 543 189 q 583 134 583 167 q 595 70 583 101 q 636 19 607 39 q 719 -1 665 -1 q 870 89 815 -1 q 935 335 925 179 q 895 667 947 524 q 738 890 843 810 q 486 971 633 971 q 235 890 340 971 q 77 666 129 810 q 36 335 25 522 q 101 90 46 183 q 251 -3 156 -3 m 374 438 q 374 531 367 488 q 408 603 382 575 q 482 631 433 631 q 557 603 531 631 q 592 531 583 575 q 593 438 600 486 q 374 438 483 442 m 486 -197 q 555 -168 526 -197 q 583 -100 583 -139 q 555 -31 583 -60 q 486 -3 526 -3 q 417 -31 446 -3 q 389 -100 389 -60 q 417 -168 389 -139 q 486 -197 446 -197 m 483 1000 q 586 1024 543 1000 q 653 1083 629 1047 q 676 1153 676 1118 q 661 1203 676 1178 q 610 1228 646 1228 q 556 1210 571 1228 q 528 1174 542 1193 q 485 1149 510 1149 q 442 1174 460 1150 q 411 1210 428 1193 q 361 1228 394 1228 q 310 1203 325 1228 q 294 1153 294 1178 q 317 1085 294 1121 q 383 1024 340 1049 q 483 1000 425 1000 "},"Ằ":{"ha":971,"x_min":25,"x_max":947,"o":"m 499 1232 q 544 1251 528 1232 q 561 1290 561 1269 q 546 1332 561 1307 q 508 1382 531 1357 q 460 1423 485 1407 q 415 1439 435 1439 q 356 1413 376 1439 q 338 1363 336 1388 q 356 1322 338 1344 q 400 1279 374 1300 q 453 1245 426 1258 q 499 1232 481 1232 m 483 1000 q 586 1024 543 1000 q 653 1083 629 1047 q 676 1153 676 1118 q 661 1203 676 1178 q 610 1228 646 1228 q 556 1210 571 1228 q 528 1174 542 1193 q 485 1149 510 1149 q 442 1174 460 1150 q 411 1210 428 1193 q 361 1228 394 1228 q 310 1203 325 1228 q 294 1153 294 1178 q 317 1085 294 1121 q 383 1024 340 1049 q 483 1000 425 1000 m 251 -3 q 335 18 306 -3 q 376 70 364 39 q 388 134 388 101 q 383 190 388 167 q 483 188 424 188 q 588 190 543 189 q 583 134 583 167 q 595 70 583 101 q 636 19 607 39 q 719 -1 665 -1 q 870 89 815 -1 q 935 335 925 179 q 895 667 947 524 q 738 890 843 810 q 486 971 633 971 q 235 890 340 971 q 77 666 129 810 q 36 335 25 522 q 101 90 46 183 q 251 -3 156 -3 m 374 438 q 374 531 367 488 q 408 603 382 575 q 482 631 433 631 q 557 603 531 631 q 592 531 583 575 q 593 438 600 486 q 374 438 483 442 "},"Ẳ":{"ha":971,"x_min":25,"x_max":947,"o":"m 481 1229 q 553 1256 518 1229 q 588 1338 588 1282 q 553 1416 588 1386 q 458 1446 518 1446 q 422 1440 443 1446 q 383 1420 400 1433 q 367 1385 367 1407 q 383 1347 367 1357 q 419 1338 400 1338 q 451 1337 438 1338 q 465 1322 465 1336 q 456 1308 465 1311 q 436 1298 446 1304 q 426 1272 426 1292 q 443 1240 426 1250 q 481 1229 460 1229 m 483 1000 q 586 1024 543 1000 q 653 1083 629 1047 q 676 1153 676 1118 q 661 1203 676 1178 q 610 1228 646 1228 q 556 1210 571 1228 q 528 1174 542 1193 q 485 1149 510 1149 q 442 1174 460 1150 q 411 1210 428 1193 q 361 1228 394 1228 q 310 1203 325 1228 q 294 1153 294 1178 q 317 1085 294 1121 q 383 1024 340 1049 q 483 1000 425 1000 m 251 -3 q 335 18 306 -3 q 376 70 364 39 q 388 134 388 101 q 383 190 388 167 q 483 188 424 188 q 588 190 543 189 q 583 134 583 167 q 595 70 583 101 q 636 19 607 39 q 719 -1 665 -1 q 870 89 815 -1 q 935 335 925 179 q 895 667 947 524 q 738 890 843 810 q 486 971 633 971 q 235 890 340 971 q 77 666 129 810 q 36 335 25 522 q 101 90 46 183 q 251 -3 156 -3 m 374 438 q 374 531 367 488 q 408 603 382 575 q 482 631 433 631 q 557 603 531 631 q 592 531 583 575 q 593 438 600 486 q 374 438 483 442 "},"Ẵ":{"ha":971,"x_min":25,"x_max":947,"o":"m 326 1267 q 366 1276 354 1267 q 390 1294 378 1285 q 433 1304 403 1304 q 471 1294 456 1304 q 509 1274 486 1283 q 581 1264 532 1264 q 651 1282 619 1264 q 703 1327 683 1300 q 722 1381 722 1354 q 699 1440 722 1419 q 643 1460 675 1460 q 603 1450 615 1460 q 578 1431 592 1440 q 536 1421 565 1421 q 498 1431 513 1421 q 460 1452 483 1442 q 388 1463 438 1463 q 318 1444 350 1463 q 267 1399 286 1426 q 247 1346 247 1372 q 270 1286 247 1306 q 326 1267 293 1267 m 483 1000 q 586 1024 543 1000 q 653 1083 629 1047 q 676 1153 676 1118 q 661 1203 676 1178 q 610 1228 646 1228 q 556 1210 571 1228 q 528 1174 542 1193 q 485 1149 510 1149 q 442 1174 460 1150 q 411 1210 428 1193 q 361 1228 394 1228 q 310 1203 325 1228 q 294 1153 294 1178 q 317 1085 294 1121 q 383 1024 340 1049 q 483 1000 425 1000 m 251 -3 q 335 18 306 -3 q 376 70 364 39 q 388 134 388 101 q 383 190 388 167 q 483 188 424 188 q 588 190 543 189 q 583 134 583 167 q 595 70 583 101 q 636 19 607 39 q 719 -1 665 -1 q 870 89 815 -1 q 935 335 925 179 q 895 667 947 524 q 738 890 843 810 q 486 971 633 971 q 235 890 340 971 q 77 666 129 810 q 36 335 25 522 q 101 90 46 183 q 251 -3 156 -3 m 374 438 q 374 531 367 488 q 408 603 382 575 q 482 631 433 631 q 557 603 531 631 q 592 531 583 575 q 593 438 600 486 q 374 438 483 442 "},"Â":{"ha":972,"x_min":25,"x_max":947,"o":"m 251 -3 q 335 18 306 -3 q 376 70 364 39 q 388 134 388 101 q 383 190 388 167 q 483 188 424 188 q 588 190 543 189 q 583 134 583 167 q 595 70 583 101 q 636 19 607 39 q 719 -1 665 -1 q 870 89 815 -1 q 935 335 925 179 q 895 667 947 524 q 738 890 843 810 q 486 971 633 971 q 235 890 340 971 q 77 666 129 810 q 36 335 25 522 q 101 90 46 183 q 251 -3 156 -3 m 374 438 q 374 531 367 488 q 408 603 382 575 q 482 631 433 631 q 557 603 531 631 q 592 531 583 575 q 593 438 600 486 q 374 438 483 442 m 367 1010 q 433 1031 401 1010 q 486 1082 464 1053 q 539 1031 508 1053 q 604 1010 569 1010 q 663 1031 642 1010 q 683 1086 683 1051 q 653 1158 683 1121 q 576 1222 622 1196 q 483 1249 531 1249 q 391 1222 436 1249 q 317 1157 346 1194 q 288 1086 288 1119 q 308 1031 288 1051 q 367 1010 329 1010 "},"Ấ":{"ha":971,"x_min":25,"x_max":947,"o":"m 656 1238 q 701 1251 675 1238 q 754 1285 728 1264 q 799 1328 781 1306 q 818 1368 817 1350 q 798 1419 818 1393 q 739 1444 778 1444 q 695 1428 719 1444 q 648 1388 671 1413 q 610 1338 625 1363 q 594 1296 594 1313 q 611 1256 594 1275 q 656 1238 628 1238 m 367 996 q 433 1017 401 996 q 486 1068 464 1039 q 539 1017 508 1039 q 604 996 569 996 q 663 1017 642 996 q 683 1072 683 1038 q 653 1144 683 1107 q 576 1208 622 1182 q 483 1235 531 1235 q 391 1208 436 1235 q 317 1143 346 1181 q 288 1072 288 1106 q 308 1017 288 1038 q 367 996 329 996 m 251 -3 q 335 18 306 -3 q 376 70 364 39 q 388 134 388 101 q 383 190 388 167 q 483 188 424 188 q 588 190 543 189 q 583 134 583 167 q 595 70 583 101 q 636 19 607 39 q 719 -1 665 -1 q 870 89 815 -1 q 935 335 925 179 q 895 667 947 524 q 738 890 843 810 q 486 971 633 971 q 235 890 340 971 q 77 666 129 810 q 36 335 25 522 q 101 90 46 183 q 251 -3 156 -3 m 374 438 q 374 531 367 488 q 408 603 382 575 q 482 631 433 631 q 557 603 531 631 q 592 531 583 575 q 593 438 600 486 q 374 438 483 442 "},"Ậ":{"ha":971,"x_min":25,"x_max":947,"o":"m 251 -3 q 335 18 306 -3 q 376 70 364 39 q 388 134 388 101 q 383 190 388 167 q 483 188 424 188 q 588 190 543 189 q 583 134 583 167 q 595 70 583 101 q 636 19 607 39 q 719 -1 665 -1 q 870 89 815 -1 q 935 335 925 179 q 895 667 947 524 q 738 890 843 810 q 486 971 633 971 q 235 890 340 971 q 77 666 129 810 q 36 335 25 522 q 101 90 46 183 q 251 -3 156 -3 m 374 438 q 374 531 367 488 q 408 603 382 575 q 482 631 433 631 q 557 603 531 631 q 592 531 583 575 q 593 438 600 486 q 374 438 483 442 m 486 -200 q 555 -171 526 -200 q 583 -103 583 -142 q 555 -34 583 -62 q 486 -6 526 -6 q 417 -34 446 -6 q 389 -103 389 -62 q 417 -171 389 -142 q 486 -200 446 -200 m 367 996 q 433 1017 401 996 q 486 1068 464 1039 q 539 1017 508 1039 q 604 996 569 996 q 663 1017 642 996 q 683 1072 683 1038 q 653 1144 683 1107 q 576 1208 622 1182 q 483 1235 531 1235 q 391 1208 436 1235 q 317 1143 346 1181 q 288 1072 288 1106 q 308 1017 288 1038 q 367 996 329 996 "},"Ầ":{"ha":971,"x_min":25,"x_max":947,"o":"m 672 1211 q 719 1232 701 1211 q 736 1274 736 1253 q 721 1318 736 1292 q 681 1370 706 1344 q 631 1413 657 1396 q 585 1431 604 1431 q 523 1403 544 1431 q 503 1350 501 1375 q 522 1308 503 1331 q 568 1263 540 1285 q 624 1226 596 1240 q 672 1211 653 1211 m 367 996 q 433 1017 401 996 q 486 1068 464 1039 q 539 1017 508 1039 q 604 996 569 996 q 663 1017 642 996 q 683 1072 683 1038 q 653 1144 683 1107 q 576 1208 622 1182 q 483 1235 531 1235 q 391 1208 436 1235 q 317 1143 346 1181 q 288 1072 288 1106 q 308 1017 288 1038 q 367 996 329 996 m 251 -3 q 335 18 306 -3 q 376 70 364 39 q 388 134 388 101 q 383 190 388 167 q 483 188 424 188 q 588 190 543 189 q 583 134 583 167 q 595 70 583 101 q 636 19 607 39 q 719 -1 665 -1 q 870 89 815 -1 q 935 335 925 179 q 895 667 947 524 q 738 890 843 810 q 486 971 633 971 q 235 890 340 971 q 77 666 129 810 q 36 335 25 522 q 101 90 46 183 q 251 -3 156 -3 m 374 438 q 374 531 367 488 q 408 603 382 575 q 482 631 433 631 q 557 603 531 631 q 592 531 583 575 q 593 438 600 486 q 374 438 483 442 "},"Ẩ":{"ha":971,"x_min":25,"x_max":947,"o":"m 651 1190 q 711 1213 682 1190 q 740 1281 740 1235 q 711 1346 740 1321 q 633 1371 682 1371 q 603 1366 621 1371 q 571 1350 585 1361 q 557 1319 557 1339 q 570 1289 557 1297 q 601 1281 583 1281 q 627 1280 615 1281 q 639 1268 639 1279 q 631 1256 639 1260 q 614 1248 622 1253 q 606 1226 606 1243 q 619 1199 606 1208 q 651 1190 633 1190 m 367 996 q 433 1017 401 996 q 486 1068 464 1039 q 539 1017 508 1039 q 604 996 569 996 q 663 1017 642 996 q 683 1072 683 1038 q 653 1144 683 1107 q 576 1208 622 1182 q 483 1235 531 1235 q 391 1208 436 1235 q 317 1143 346 1181 q 288 1072 288 1106 q 308 1017 288 1038 q 367 996 329 996 m 251 -3 q 335 18 306 -3 q 376 70 364 39 q 388 134 388 101 q 383 190 388 167 q 483 188 424 188 q 588 190 543 189 q 583 134 583 167 q 595 70 583 101 q 636 19 607 39 q 719 -1 665 -1 q 870 89 815 -1 q 935 335 925 179 q 895 667 947 524 q 738 890 843 810 q 486 971 633 971 q 235 890 340 971 q 77 666 129 810 q 36 335 25 522 q 101 90 46 183 q 251 -3 156 -3 m 374 438 q 374 531 367 488 q 408 603 382 575 q 482 631 433 631 q 557 603 531 631 q 592 531 583 575 q 593 438 600 486 q 374 438 483 442 "},"Ẫ":{"ha":971,"x_min":25,"x_max":947,"o":"m 347 1251 q 381 1260 371 1251 q 403 1276 392 1268 q 440 1285 414 1285 q 472 1276 460 1285 q 506 1258 485 1267 q 568 1249 526 1249 q 629 1265 601 1249 q 674 1304 657 1281 q 690 1351 690 1328 q 670 1402 690 1385 q 622 1419 650 1419 q 588 1411 599 1419 q 567 1394 578 1403 q 529 1386 556 1386 q 496 1395 508 1386 q 463 1413 483 1404 q 400 1422 443 1422 q 339 1406 367 1422 q 294 1367 311 1390 q 278 1321 278 1344 q 298 1269 278 1286 q 347 1251 318 1251 m 367 996 q 433 1017 401 996 q 486 1068 464 1039 q 539 1017 508 1039 q 604 996 569 996 q 663 1017 642 996 q 683 1072 683 1038 q 653 1144 683 1107 q 576 1208 622 1182 q 483 1235 531 1235 q 391 1208 436 1235 q 317 1143 346 1181 q 288 1072 288 1106 q 308 1017 288 1038 q 367 996 329 996 m 251 -3 q 335 18 306 -3 q 376 70 364 39 q 388 134 388 101 q 383 190 388 167 q 483 188 424 188 q 588 190 543 189 q 583 134 583 167 q 595 70 583 101 q 636 19 607 39 q 719 -1 665 -1 q 870 89 815 -1 q 935 335 925 179 q 895 667 947 524 q 738 890 843 810 q 486 971 633 971 q 235 890 340 971 q 77 666 129 810 q 36 335 25 522 q 101 90 46 183 q 251 -3 156 -3 m 374 438 q 374 531 367 488 q 408 603 382 575 q 482 631 433 631 q 557 603 531 631 q 592 531 583 575 q 593 438 600 486 q 374 438 483 442 "},"Ȁ":{"ha":971,"x_min":25,"x_max":947,"o":"m 251 -3 q 335 18 306 -3 q 376 70 364 39 q 388 134 388 101 q 383 190 388 167 q 483 188 424 188 q 588 190 543 189 q 583 134 583 167 q 595 70 583 101 q 636 19 607 39 q 719 -1 665 -1 q 870 89 815 -1 q 935 335 925 179 q 895 667 947 524 q 738 890 843 810 q 486 971 633 971 q 235 890 340 971 q 77 666 129 810 q 36 335 25 522 q 101 90 46 183 q 251 -3 156 -3 m 374 438 q 374 531 367 488 q 408 603 382 575 q 482 631 433 631 q 557 603 531 631 q 592 531 583 575 q 593 438 600 486 q 374 438 483 442 m 589 1044 q 639 1066 621 1044 q 657 1110 657 1088 q 644 1156 657 1129 q 613 1210 632 1183 q 569 1256 593 1238 q 525 1274 546 1274 q 460 1244 482 1274 q 439 1188 438 1215 q 455 1144 439 1168 q 494 1097 471 1119 q 543 1059 518 1074 q 589 1044 568 1044 m 361 1043 q 411 1065 393 1043 q 429 1108 429 1086 q 415 1155 429 1128 q 378 1209 400 1182 q 330 1254 356 1236 q 283 1272 304 1272 q 218 1244 240 1272 q 197 1188 196 1215 q 215 1144 197 1168 q 260 1097 233 1119 q 313 1058 286 1074 q 361 1043 340 1043 "},"Ä":{"ha":972,"x_min":25,"x_max":947,"o":"m 251 -3 q 335 18 306 -3 q 376 70 364 39 q 388 134 388 101 q 383 190 388 167 q 483 188 424 188 q 588 190 543 189 q 583 134 583 167 q 595 70 583 101 q 636 19 607 39 q 719 -1 665 -1 q 870 89 815 -1 q 935 335 925 179 q 895 667 947 524 q 738 890 843 810 q 486 971 633 971 q 235 890 340 971 q 77 666 129 810 q 36 335 25 522 q 101 90 46 183 q 251 -3 156 -3 m 374 438 q 374 531 367 488 q 408 603 382 575 q 482 631 433 631 q 557 603 531 631 q 592 531 583 575 q 593 438 600 486 q 374 438 483 442 m 624 1008 q 699 1040 668 1008 q 731 1115 731 1072 q 699 1191 731 1160 q 624 1222 668 1222 q 548 1191 579 1222 q 517 1115 517 1160 q 548 1040 517 1072 q 624 1008 579 1008 m 351 1007 q 426 1038 396 1007 q 457 1114 457 1069 q 426 1190 457 1158 q 351 1221 396 1221 q 275 1190 307 1221 q 243 1114 243 1158 q 275 1038 243 1069 q 351 1007 307 1007 "},"Ạ":{"ha":971,"x_min":25,"x_max":947,"o":"m 251 -3 q 335 18 306 -3 q 376 70 364 39 q 388 134 388 101 q 383 190 388 167 q 483 188 424 188 q 588 190 543 189 q 583 134 583 167 q 595 70 583 101 q 636 19 607 39 q 719 -1 665 -1 q 870 89 815 -1 q 935 335 925 179 q 895 667 947 524 q 738 890 843 810 q 486 971 633 971 q 235 890 340 971 q 77 666 129 810 q 36 335 25 522 q 101 90 46 183 q 251 -3 156 -3 m 374 438 q 374 531 367 488 q 408 603 382 575 q 482 631 433 631 q 557 603 531 631 q 592 531 583 575 q 593 438 600 486 q 374 438 483 442 m 486 1018 q 555 1047 526 1018 q 583 1115 583 1076 q 555 1184 583 1156 q 486 1213 526 1213 q 417 1184 446 1213 q 389 1115 389 1156 q 417 1047 389 1076 q 486 1018 446 1018 "},"À":{"ha":971,"x_min":25,"x_max":947,"o":"m 251 -3 q 335 18 306 -3 q 376 70 364 39 q 388 134 388 101 q 383 190 388 167 q 483 188 424 188 q 588 190 543 189 q 583 134 583 167 q 595 70 583 101 q 636 19 607 39 q 719 -1 665 -1 q 870 89 815 -1 q 935 335 925 179 q 895 667 947 524 q 738 890 843 810 q 486 971 633 971 q 235 890 340 971 q 77 666 129 810 q 36 335 25 522 q 101 90 46 183 q 251 -3 156 -3 m 374 438 q 374 531 367 488 q 408 603 382 575 q 482 631 433 631 q 557 603 531 631 q 592 531 583 575 q 593 438 600 486 q 374 438 483 442 m 546 1006 q 596 1027 578 1006 q 614 1071 614 1049 q 597 1117 614 1090 q 556 1172 581 1144 q 503 1217 531 1199 q 454 1235 475 1235 q 389 1206 411 1235 q 368 1150 367 1178 q 388 1106 368 1131 q 438 1059 408 1082 q 496 1021 467 1036 q 546 1006 525 1006 "},"Ả":{"ha":971,"x_min":25,"x_max":947,"o":"m 251 -3 q 335 18 306 -3 q 376 70 364 39 q 388 134 388 101 q 383 190 388 167 q 483 188 424 188 q 588 190 543 189 q 583 134 583 167 q 595 70 583 101 q 636 19 607 39 q 719 -1 665 -1 q 870 89 815 -1 q 935 335 925 179 q 895 667 947 524 q 738 890 843 810 q 486 971 633 971 q 235 890 340 971 q 77 666 129 810 q 36 335 25 522 q 101 90 46 183 q 251 -3 156 -3 m 374 438 q 374 531 367 488 q 408 603 382 575 q 482 631 433 631 q 557 603 531 631 q 592 531 583 575 q 593 438 600 486 q 374 438 483 442 m 490 1015 q 551 1030 521 1015 q 601 1074 581 1044 q 621 1147 621 1103 q 578 1243 621 1207 q 464 1279 536 1279 q 419 1272 446 1279 q 372 1249 392 1265 q 351 1206 351 1233 q 372 1159 351 1171 q 417 1147 392 1147 q 455 1147 438 1147 q 472 1129 472 1146 q 460 1112 472 1117 q 436 1099 449 1107 q 424 1068 424 1092 q 444 1028 424 1042 q 490 1015 465 1015 "},"Ȃ":{"ha":971,"x_min":25,"x_max":947,"o":"m 251 -3 q 335 18 306 -3 q 376 70 364 39 q 388 134 388 101 q 383 190 388 167 q 483 188 424 188 q 588 190 543 189 q 583 134 583 167 q 595 70 583 101 q 636 19 607 39 q 719 -1 665 -1 q 870 89 815 -1 q 935 335 925 179 q 895 667 947 524 q 738 890 843 810 q 486 971 633 971 q 235 890 340 971 q 77 666 129 810 q 36 335 25 522 q 101 90 46 183 q 251 -3 156 -3 m 374 438 q 374 531 367 488 q 408 603 382 575 q 482 631 433 631 q 557 603 531 631 q 592 531 583 575 q 593 438 600 486 q 374 438 483 442 m 483 1240 q 383 1216 425 1240 q 317 1156 340 1192 q 294 1088 294 1121 q 310 1038 294 1063 q 361 1013 325 1013 q 411 1031 394 1013 q 442 1067 428 1049 q 485 1091 460 1090 q 528 1067 510 1092 q 556 1031 542 1049 q 610 1013 571 1013 q 661 1038 646 1013 q 676 1088 676 1063 q 653 1158 676 1122 q 586 1217 629 1193 q 483 1240 543 1240 "},"Ā":{"ha":971,"x_min":25,"x_max":947,"o":"m 251 -3 q 335 18 306 -3 q 376 70 364 39 q 388 134 388 101 q 383 190 388 167 q 483 188 424 188 q 588 190 543 189 q 583 134 583 167 q 595 70 583 101 q 636 19 607 39 q 719 -1 665 -1 q 870 89 815 -1 q 935 335 925 179 q 895 667 947 524 q 738 890 843 810 q 486 971 633 971 q 235 890 340 971 q 77 666 129 810 q 36 335 25 522 q 101 90 46 183 q 251 -3 156 -3 m 374 438 q 374 531 367 488 q 408 603 382 575 q 482 631 433 631 q 557 603 531 631 q 592 531 583 575 q 593 438 600 486 q 374 438 483 442 m 485 1035 q 572 1035 528 1035 q 655 1042 617 1035 q 717 1067 693 1049 q 740 1124 740 1086 q 717 1179 740 1160 q 655 1207 693 1199 q 572 1217 617 1215 q 485 1218 528 1218 q 398 1217 443 1218 q 315 1207 353 1215 q 254 1179 278 1199 q 231 1124 231 1160 q 254 1067 231 1086 q 315 1042 278 1049 q 398 1035 353 1035 q 485 1035 443 1035 "},"Ą":{"ha":971,"x_min":25,"x_max":947,"o":"m 251 -3 q 335 18 306 -3 q 376 70 364 39 q 388 134 388 101 q 383 190 388 167 q 483 188 424 188 q 588 190 543 189 q 583 134 583 167 q 595 70 583 101 q 636 19 607 39 q 719 -1 665 -1 q 870 89 815 -1 q 935 335 925 179 q 895 667 947 524 q 738 890 843 810 q 486 971 633 971 q 235 890 340 971 q 77 666 129 810 q 36 335 25 522 q 101 90 46 183 q 251 -3 156 -3 m 374 438 q 374 531 367 488 q 408 603 382 575 q 482 631 433 631 q 557 603 531 631 q 592 531 583 575 q 593 438 600 486 q 374 438 483 442 m 711 -267 q 810 -244 781 -267 q 839 -187 839 -221 q 819 -133 839 -149 q 772 -117 799 -117 q 740 -110 757 -117 q 722 -78 722 -103 q 744 -32 722 -51 q 789 7 767 -12 q 869 88 854 64 q 839 111 883 111 l 717 111 q 660 96 692 111 q 599 52 629 81 q 550 -13 569 24 q 531 -94 531 -50 q 581 -225 531 -183 q 711 -267 631 -267 "},"Å":{"ha":971,"x_min":25,"x_max":947,"o":"m 251 -3 q 335 18 306 -3 q 376 70 364 39 q 388 134 388 101 q 383 190 388 167 q 483 188 424 188 q 588 190 543 189 q 583 134 583 167 q 595 70 583 101 q 636 19 607 39 q 719 -1 665 -1 q 870 89 815 -1 q 935 335 925 179 q 895 667 947 524 q 738 890 843 810 q 486 971 633 971 q 235 890 340 971 q 77 666 129 810 q 36 335 25 522 q 101 90 46 183 q 251 -3 156 -3 m 374 438 q 374 531 367 488 q 408 603 382 575 q 482 631 433 631 q 557 603 531 631 q 592 531 583 575 q 593 438 600 486 q 374 438 483 442 m 486 883 q 571 907 532 883 q 634 969 610 931 q 658 1056 658 1008 q 634 1141 658 1101 q 571 1204 610 1181 q 486 1228 532 1228 q 400 1204 439 1228 q 337 1141 361 1181 q 313 1056 313 1101 q 337 969 313 1008 q 400 907 361 931 q 486 883 439 883 m 486 1006 q 452 1020 467 1006 q 438 1053 438 1035 q 452 1085 438 1071 q 486 1100 467 1100 q 518 1085 504 1100 q 532 1053 532 1071 q 518 1020 532 1035 q 486 1006 504 1006 "},"Ǻ":{"ha":971,"x_min":25,"x_max":947,"o":"m 251 -3 q 335 18 306 -3 q 376 70 364 39 q 388 134 388 101 q 383 190 388 167 q 483 188 424 188 q 588 190 543 189 q 583 134 583 167 q 595 70 583 101 q 636 19 607 39 q 719 -1 665 -1 q 870 89 815 -1 q 935 335 925 179 q 895 667 947 524 q 738 890 843 810 q 486 971 633 971 q 235 890 340 971 q 77 666 129 810 q 36 335 25 522 q 101 90 46 183 q 251 -3 156 -3 m 374 438 q 374 531 367 488 q 408 603 382 575 q 482 631 433 631 q 557 603 531 631 q 592 531 583 575 q 593 438 600 486 q 374 438 483 442 m 486 860 q 571 883 532 860 q 634 946 610 907 q 658 1032 658 985 q 634 1117 658 1078 q 571 1181 610 1157 q 486 1204 532 1204 q 400 1181 439 1204 q 337 1117 361 1157 q 313 1032 313 1078 q 337 946 313 985 q 400 883 361 907 q 486 860 439 860 m 486 982 q 452 997 467 982 q 438 1029 438 1011 q 452 1062 438 1047 q 486 1076 467 1076 q 518 1062 504 1076 q 532 1029 532 1047 q 518 997 532 1011 q 486 982 504 982 m 436 1204 q 486 1219 457 1204 q 544 1258 515 1235 q 594 1305 574 1281 q 614 1349 614 1329 q 593 1405 615 1376 q 528 1433 571 1433 q 479 1415 507 1433 q 426 1370 451 1397 q 385 1316 401 1343 q 368 1269 368 1289 q 387 1226 368 1247 q 436 1204 406 1204 "},"Ã":{"ha":971,"x_min":25,"x_max":947,"o":"m 251 -3 q 335 18 306 -3 q 376 70 364 39 q 388 134 388 101 q 383 190 388 167 q 483 188 424 188 q 588 190 543 189 q 583 134 583 167 q 595 70 583 101 q 636 19 607 39 q 719 -1 665 -1 q 870 89 815 -1 q 935 335 925 179 q 895 667 947 524 q 738 890 843 810 q 486 971 633 971 q 235 890 340 971 q 77 666 129 810 q 36 335 25 522 q 101 90 46 183 q 251 -3 156 -3 m 374 438 q 374 531 367 488 q 408 603 382 575 q 482 631 433 631 q 557 603 531 631 q 592 531 583 575 q 593 438 600 486 q 374 438 483 442 m 311 1021 q 354 1031 342 1021 q 381 1052 367 1042 q 429 1063 396 1063 q 470 1051 454 1063 q 513 1029 486 1040 q 592 1018 539 1018 q 669 1038 635 1018 q 726 1088 704 1058 q 747 1147 747 1118 q 722 1213 747 1190 q 660 1235 696 1235 q 617 1224 631 1235 q 590 1203 604 1214 q 542 1192 575 1192 q 501 1203 517 1192 q 459 1226 485 1215 q 379 1238 433 1238 q 302 1217 338 1238 q 245 1168 267 1197 q 224 1108 224 1139 q 249 1043 224 1065 q 311 1021 275 1021 "},"Æ":{"ha":1392,"x_min":64,"x_max":1357,"o":"m 251 -3 q 335 18 306 -3 q 377 70 364 39 q 393 134 390 101 q 397 190 396 167 q 497 188 438 188 q 601 190 557 189 q 614 101 603 144 q 657 28 625 57 q 753 0 689 0 q 847 33 810 0 q 947 8 893 17 q 1061 0 1000 0 q 1235 18 1174 0 q 1322 67 1297 36 q 1346 135 1346 99 q 1300 208 1346 188 q 1164 228 1254 228 q 1038 250 1086 228 q 965 317 989 272 q 1068 316 1011 315 q 1173 318 1125 317 q 1239 324 1221 319 q 1315 363 1292 335 q 1339 425 1339 390 q 1314 490 1339 461 q 1240 528 1289 518 q 1192 533 1225 531 q 1115 535 1158 535 q 1030 535 1072 536 q 953 533 988 535 q 1023 613 972 590 q 1164 636 1074 636 q 1313 677 1268 636 q 1357 774 1357 718 q 1342 844 1357 810 q 1290 908 1328 879 q 1187 955 1253 938 q 1017 972 1121 972 q 873 950 936 972 q 763 886 810 928 q 651 949 714 928 q 514 971 589 971 q 267 893 368 971 q 115 676 167 815 q 64 349 64 536 q 115 90 64 182 q 251 -3 167 -3 m 607 438 q 388 438 497 442 q 393 531 383 488 q 428 603 403 575 q 496 631 454 631 q 570 603 544 631 q 604 531 596 575 q 607 438 613 486 "},"Ǽ":{"ha":1392,"x_min":64,"x_max":1357,"o":"m 251 -3 q 335 18 306 -3 q 377 70 364 39 q 393 134 390 101 q 397 190 396 167 q 497 188 438 188 q 601 190 557 189 q 614 101 603 144 q 657 28 625 57 q 753 0 689 0 q 847 33 810 0 q 947 8 893 17 q 1061 0 1000 0 q 1235 18 1174 0 q 1322 67 1297 36 q 1346 135 1346 99 q 1300 208 1346 188 q 1164 228 1254 228 q 1038 250 1086 228 q 965 317 989 272 q 1068 316 1011 315 q 1173 318 1125 317 q 1239 324 1221 319 q 1315 363 1292 335 q 1339 425 1339 390 q 1314 490 1339 461 q 1240 528 1289 518 q 1192 533 1225 531 q 1115 535 1158 535 q 1030 535 1072 536 q 953 533 988 535 q 1023 613 972 590 q 1164 636 1074 636 q 1313 677 1268 636 q 1357 774 1357 718 q 1342 844 1357 810 q 1290 908 1328 879 q 1187 955 1253 938 q 1017 972 1121 972 q 873 950 936 972 q 763 886 810 928 q 651 949 714 928 q 514 971 589 971 q 267 893 368 971 q 115 676 167 815 q 64 349 64 536 q 115 90 64 182 q 251 -3 167 -3 m 607 438 q 388 438 497 442 q 393 531 383 488 q 428 603 403 575 q 496 631 454 631 q 570 603 544 631 q 604 531 596 575 q 607 438 613 486 m 750 978 q 800 993 771 978 q 858 1031 829 1008 q 908 1078 888 1054 q 928 1122 928 1103 q 907 1178 929 1150 q 842 1207 885 1207 q 793 1189 821 1207 q 740 1144 765 1171 q 699 1090 715 1117 q 682 1043 682 1063 q 701 999 682 1021 q 750 978 719 978 "},"B":{"ha":906,"x_min":35,"x_max":876,"o":"m 494 1 q 676 24 603 1 q 791 86 749 47 q 851 171 833 125 q 869 261 869 217 q 830 372 869 326 q 742 426 790 418 q 842 538 808 475 q 871 685 876 600 q 813 838 865 774 q 671 938 761 903 q 460 972 581 972 q 228 912 322 972 q 84 742 133 851 q 35 481 35 632 q 88 202 35 307 q 243 50 140 97 q 494 1 346 3 m 399 519 q 363 562 372 532 q 363 622 354 592 q 399 665 372 653 q 449 678 419 676 q 506 672 478 679 q 552 644 533 664 q 571 593 571 625 q 540 529 571 550 q 468 508 508 508 q 399 519 428 507 m 399 194 q 363 232 372 206 q 363 285 354 258 q 399 322 372 311 q 449 333 419 331 q 506 328 478 335 q 552 303 533 321 q 571 258 571 286 q 540 203 571 221 q 468 184 508 185 q 399 194 428 183 "},"C":{"ha":933,"x_min":35,"x_max":899,"o":"m 511 3 q 691 37 613 3 q 816 125 769 71 q 868 239 863 179 q 842 338 874 297 q 750 378 811 378 q 680 361 707 378 q 630 323 653 344 q 574 285 607 301 q 486 268 542 268 q 377 322 415 268 q 339 449 339 376 q 360 535 339 497 q 418 596 382 574 q 497 618 454 618 q 569 604 543 618 q 614 569 596 590 q 649 528 632 549 q 692 494 667 508 q 763 481 718 481 q 840 503 810 481 q 884 559 869 525 q 899 631 899 593 q 847 804 899 726 q 701 927 794 882 q 485 972 608 972 q 304 933 386 972 q 162 826 222 894 q 68 672 101 758 q 35 489 35 585 q 99 218 35 326 q 271 56 163 110 q 511 3 379 3 "},"Ć":{"ha":933,"x_min":35,"x_max":899,"o":"m 511 3 q 691 37 613 3 q 816 125 769 71 q 868 239 863 179 q 842 338 874 297 q 750 378 811 378 q 680 361 707 378 q 630 323 653 344 q 574 285 607 301 q 486 268 542 268 q 377 322 415 268 q 339 449 339 376 q 360 535 339 497 q 418 596 382 574 q 497 618 454 618 q 569 604 543 618 q 614 569 596 590 q 649 528 632 549 q 692 494 667 508 q 763 481 718 481 q 840 503 810 481 q 884 559 869 525 q 899 631 899 593 q 847 804 899 726 q 701 927 794 882 q 485 972 608 972 q 304 933 386 972 q 162 826 222 894 q 68 672 101 758 q 35 489 35 585 q 99 218 35 326 q 271 56 163 110 q 511 3 379 3 m 432 1019 q 482 1035 453 1019 q 540 1073 511 1050 q 590 1120 569 1096 q 610 1164 610 1144 q 589 1220 611 1192 q 524 1249 567 1249 q 475 1231 503 1249 q 422 1185 447 1213 q 381 1131 397 1158 q 364 1085 364 1104 q 383 1041 364 1063 q 432 1019 401 1019 "},"Č":{"ha":933,"x_min":35,"x_max":899,"o":"m 511 3 q 691 37 613 3 q 816 125 769 71 q 868 239 863 179 q 842 338 874 297 q 750 378 811 378 q 680 361 707 378 q 630 323 653 344 q 574 285 607 301 q 486 268 542 268 q 377 322 415 268 q 339 449 339 376 q 360 535 339 497 q 418 596 382 574 q 497 618 454 618 q 569 604 543 618 q 614 569 596 590 q 649 528 632 549 q 692 494 667 508 q 763 481 718 481 q 840 503 810 481 q 884 559 869 525 q 899 631 899 593 q 847 804 899 726 q 701 927 794 882 q 485 972 608 972 q 304 933 386 972 q 162 826 222 894 q 68 672 101 758 q 35 489 35 585 q 99 218 35 326 q 271 56 163 110 q 511 3 379 3 m 349 1253 q 290 1233 311 1253 q 269 1176 269 1213 q 299 1106 269 1144 q 373 1041 328 1068 q 465 1014 418 1014 q 558 1040 513 1014 q 635 1104 604 1067 q 665 1176 665 1142 q 644 1233 665 1213 q 586 1253 624 1253 q 521 1231 551 1253 q 468 1181 490 1210 q 415 1231 446 1210 q 349 1253 383 1253 "},"Ç":{"ha":933,"x_min":35,"x_max":899,"o":"m 511 3 q 691 37 613 3 q 816 125 769 71 q 868 239 863 179 q 842 338 874 297 q 750 378 811 378 q 680 361 707 378 q 630 323 653 344 q 574 285 607 301 q 486 268 542 268 q 377 322 415 268 q 339 449 339 376 q 360 535 339 497 q 418 596 382 574 q 497 618 454 618 q 569 604 543 618 q 614 569 596 590 q 649 528 632 549 q 692 494 667 508 q 763 481 718 481 q 840 503 810 481 q 884 559 869 525 q 899 631 899 593 q 847 804 899 726 q 701 927 794 882 q 485 972 608 972 q 304 933 386 972 q 162 826 222 894 q 68 672 101 758 q 35 489 35 585 q 99 218 35 326 q 271 56 163 110 q 511 3 379 3 m 488 -342 q 597 -320 547 -342 q 677 -260 647 -299 q 707 -171 707 -221 q 656 -74 707 -114 q 531 -29 604 -33 q 563 44 563 10 q 538 81 563 71 q 482 92 514 92 q 435 75 460 92 q 391 32 411 58 q 358 -22 371 6 q 346 -69 346 -49 q 365 -119 346 -100 q 418 -139 383 -139 q 491 -149 461 -139 q 521 -179 521 -160 q 509 -199 521 -194 q 486 -203 497 -203 q 441 -188 464 -203 q 378 -174 418 -174 q 333 -189 351 -174 q 315 -239 315 -204 q 363 -311 315 -281 q 488 -342 410 -342 "},"Ĉ":{"ha":933,"x_min":35,"x_max":899,"o":"m 511 3 q 691 37 613 3 q 816 125 769 71 q 868 239 863 179 q 842 338 874 297 q 750 378 811 378 q 680 361 707 378 q 630 323 653 344 q 574 285 607 301 q 486 268 542 268 q 377 322 415 268 q 339 449 339 376 q 360 535 339 497 q 418 596 382 574 q 497 618 454 618 q 569 604 543 618 q 614 569 596 590 q 649 528 632 549 q 692 494 667 508 q 763 481 718 481 q 840 503 810 481 q 884 559 869 525 q 899 631 899 593 q 847 804 899 726 q 701 927 794 882 q 485 972 608 972 q 304 933 386 972 q 162 826 222 894 q 68 672 101 758 q 35 489 35 585 q 99 218 35 326 q 271 56 163 110 q 511 3 379 3 m 349 1010 q 415 1031 383 1010 q 468 1082 446 1053 q 521 1031 490 1053 q 586 1010 551 1010 q 644 1031 624 1010 q 665 1086 665 1051 q 635 1158 665 1121 q 558 1222 604 1196 q 465 1249 513 1249 q 373 1222 418 1249 q 299 1157 328 1194 q 269 1086 269 1119 q 290 1031 269 1051 q 349 1010 311 1010 "},"Ċ":{"ha":933,"x_min":35,"x_max":899,"o":"m 511 3 q 691 37 613 3 q 816 125 769 71 q 868 239 863 179 q 842 338 874 297 q 750 378 811 378 q 680 361 707 378 q 630 323 653 344 q 574 285 607 301 q 486 268 542 268 q 377 322 415 268 q 339 449 339 376 q 360 535 339 497 q 418 596 382 574 q 497 618 454 618 q 569 604 543 618 q 614 569 596 590 q 649 528 632 549 q 692 494 667 508 q 763 481 718 481 q 840 503 810 481 q 884 559 869 525 q 899 631 899 593 q 847 804 899 726 q 701 927 794 882 q 485 972 608 972 q 304 933 386 972 q 162 826 222 894 q 68 672 101 758 q 35 489 35 585 q 99 218 35 326 q 271 56 163 110 q 511 3 379 3 m 467 1018 q 535 1047 507 1018 q 564 1115 564 1076 q 535 1184 564 1156 q 467 1213 507 1213 q 398 1184 426 1213 q 369 1115 369 1156 q 398 1047 369 1076 q 467 1018 426 1018 "},"D":{"ha":938,"x_min":35,"x_max":903,"o":"m 425 0 q 542 15 478 0 q 669 62 606 29 q 785 149 733 94 q 870 284 838 204 q 903 474 903 364 q 872 671 903 588 q 788 813 840 754 q 672 906 736 871 q 543 956 608 940 q 421 972 478 972 q 208 945 286 972 q 92 859 129 918 q 45 705 56 800 q 35 475 35 610 q 46 249 35 340 q 94 103 57 157 q 211 24 132 49 q 425 0 290 0 m 339 244 l 339 608 q 538 581 467 628 q 610 438 610 535 q 538 278 610 331 q 339 244 467 225 "},"Ǆ":{"ha":1774,"x_min":35,"x_max":1739,"o":"m 425 0 q 542 15 478 0 q 669 62 606 29 q 785 149 733 94 q 870 284 838 204 q 903 474 903 364 q 872 671 903 588 q 788 813 840 754 q 672 906 736 871 q 543 956 608 940 q 421 972 478 972 q 208 945 286 972 q 92 859 129 918 q 45 705 56 800 q 35 475 35 610 q 46 249 35 340 q 94 103 57 157 q 211 24 132 49 q 425 0 290 0 m 339 244 l 339 608 q 538 581 467 628 q 610 438 610 535 q 538 278 610 331 q 339 244 467 225 m 1328 0 q 1461 3 1390 0 q 1594 20 1532 6 q 1697 69 1657 35 q 1736 165 1736 103 q 1710 251 1736 219 q 1638 299 1683 283 q 1535 321 1593 315 q 1414 328 1476 326 q 1530 402 1472 361 q 1635 492 1588 443 q 1710 596 1682 540 q 1739 714 1739 651 q 1699 848 1739 797 q 1593 924 1660 899 q 1442 959 1526 950 q 1268 968 1358 968 q 1085 947 1168 968 q 954 881 1003 926 q 906 758 906 835 q 943 658 906 696 q 1039 603 981 621 q 1163 582 1097 585 q 1283 585 1228 579 q 1171 504 1232 549 q 1056 410 1110 460 q 968 310 1003 361 q 933 211 933 260 q 968 93 933 136 q 1060 30 1003 50 q 1188 5 1118 10 q 1328 0 1258 0 m 1204 1239 q 1146 1219 1167 1239 q 1125 1163 1125 1199 q 1154 1092 1125 1131 q 1228 1027 1183 1054 q 1321 1000 1274 1000 q 1414 1026 1368 1000 q 1490 1090 1460 1053 q 1521 1163 1521 1128 q 1500 1219 1521 1199 q 1442 1239 1479 1239 q 1376 1217 1407 1239 q 1324 1167 1346 1196 q 1270 1217 1301 1196 q 1204 1239 1239 1239 "},"Ð":{"ha":1083,"x_min":35,"x_max":1049,"o":"m 571 0 q 688 15 624 0 q 815 62 751 29 q 931 149 879 94 q 1016 284 983 204 q 1049 474 1049 364 q 1017 671 1049 588 q 934 813 986 754 q 818 906 882 871 q 689 956 754 940 q 567 972 624 972 q 364 949 440 972 q 249 874 288 925 q 196 740 210 822 q 181 542 182 658 q 76 510 118 535 q 35 426 35 485 q 78 343 35 365 q 185 315 121 321 q 209 167 190 228 q 270 70 228 107 q 385 17 313 33 q 571 0 458 0 m 485 244 l 485 315 q 594 342 550 319 q 639 426 639 365 q 594 511 639 486 q 485 543 550 536 l 485 608 q 684 581 613 628 q 756 438 756 535 q 684 278 756 331 q 485 244 613 225 "},"Ď":{"ha":938,"x_min":35,"x_max":903,"o":"m 425 0 q 542 15 478 0 q 669 62 606 29 q 785 149 733 94 q 870 284 838 204 q 903 474 903 364 q 872 671 903 588 q 788 813 840 754 q 672 906 736 871 q 543 956 608 940 q 421 972 478 972 q 208 945 286 972 q 92 859 129 918 q 45 705 56 800 q 35 475 35 610 q 46 249 35 340 q 94 103 57 157 q 211 24 132 49 q 425 0 290 0 m 339 244 l 339 608 q 538 581 467 628 q 610 438 610 535 q 538 278 610 331 q 339 244 467 225 m 325 1253 q 267 1233 288 1253 q 246 1176 246 1213 q 275 1106 246 1144 q 349 1041 304 1068 q 442 1014 394 1014 q 535 1040 489 1014 q 611 1104 581 1067 q 642 1176 642 1142 q 621 1233 642 1213 q 563 1253 600 1253 q 497 1231 528 1253 q 444 1181 467 1210 q 391 1231 422 1210 q 325 1253 360 1253 "},"Đ":{"ha":1083,"x_min":181,"x_max":1049,"o":"m 571 0 q 688 15 624 0 q 815 62 751 29 q 931 149 879 94 q 1016 284 983 204 q 1049 474 1049 364 q 1017 671 1049 588 q 934 813 986 754 q 818 906 882 871 q 689 956 754 940 q 567 972 624 972 q 353 945 432 972 q 238 859 275 918 q 191 705 201 800 q 181 475 181 610 q 192 249 181 340 q 240 103 203 157 q 357 24 278 49 q 571 0 436 0 m 485 244 l 485 608 q 684 581 613 628 q 756 438 756 535 q 684 278 756 331 q 485 244 613 225 "},"ǅ":{"ha":1579,"x_min":35,"x_max":1544,"o":"m 425 0 q 542 15 478 0 q 669 62 606 29 q 785 149 733 94 q 870 284 838 204 q 903 474 903 364 q 872 671 903 588 q 788 813 840 754 q 672 906 736 871 q 543 956 608 940 q 421 972 478 972 q 208 945 286 972 q 92 859 129 918 q 45 705 56 800 q 35 475 35 610 q 46 249 35 340 q 94 103 57 157 q 211 24 132 49 q 425 0 290 0 m 339 244 l 339 608 q 538 581 467 628 q 610 438 610 535 q 538 278 610 331 q 339 244 467 225 m 1253 1 q 1406 10 1342 1 q 1504 43 1469 18 q 1539 119 1539 68 q 1510 190 1539 168 q 1431 218 1482 213 q 1315 224 1381 224 q 1422 291 1369 251 q 1510 381 1475 331 q 1544 486 1544 431 q 1509 590 1544 554 q 1406 640 1474 626 q 1242 653 1338 653 q 1022 625 1100 653 q 944 524 944 597 q 975 438 944 464 q 1063 408 1006 413 q 1200 403 1119 403 q 1082 316 1135 357 q 998 235 1029 275 q 967 154 967 196 q 1001 53 967 86 q 1099 11 1035 21 q 1253 1 1163 1 m 1106 942 q 1047 922 1068 942 q 1026 865 1026 901 q 1056 795 1026 833 q 1130 730 1085 757 q 1222 703 1175 703 q 1315 729 1269 703 q 1392 793 1361 756 q 1422 865 1422 831 q 1401 922 1422 901 q 1343 942 1381 942 q 1278 920 1308 942 q 1225 869 1247 899 q 1172 920 1203 899 q 1106 942 1140 942 "},"E":{"ha":840,"x_min":35,"x_max":806,"o":"m 510 0 q 684 18 622 0 q 770 67 746 36 q 794 135 794 99 q 728 222 794 201 q 642 230 686 235 q 574 225 597 225 q 472 249 511 225 q 413 317 432 274 q 453 316 431 317 q 499 315 475 315 q 613 317 558 315 q 688 324 668 319 q 764 363 740 335 q 788 425 788 390 q 763 490 788 461 q 689 528 738 518 q 616 534 668 532 q 507 536 564 536 q 451 535 478 536 q 401 533 424 535 q 459 612 418 586 q 572 638 500 638 q 647 635 606 638 q 728 651 689 633 q 787 704 768 671 q 806 774 806 738 q 791 843 806 808 q 739 907 776 878 q 635 954 701 936 q 465 972 569 972 q 225 904 321 972 q 82 722 129 836 q 35 469 35 608 q 65 258 35 343 q 147 121 96 172 q 261 43 199 69 q 388 8 324 17 q 510 0 453 0 "},"É":{"ha":840,"x_min":35,"x_max":806,"o":"m 510 0 q 684 18 622 0 q 770 67 746 36 q 794 135 794 99 q 728 222 794 201 q 642 230 686 235 q 574 225 597 225 q 472 249 511 225 q 413 317 432 274 q 453 316 431 317 q 499 315 475 315 q 613 317 558 315 q 688 324 668 319 q 764 363 740 335 q 788 425 788 390 q 763 490 788 461 q 689 528 738 518 q 616 534 668 532 q 507 536 564 536 q 451 535 478 536 q 401 533 424 535 q 459 612 418 586 q 572 638 500 638 q 647 635 606 638 q 728 651 689 633 q 787 704 768 671 q 806 774 806 738 q 791 843 806 808 q 739 907 776 878 q 635 954 701 936 q 465 972 569 972 q 225 904 321 972 q 82 722 129 836 q 35 469 35 608 q 65 258 35 343 q 147 121 96 172 q 261 43 199 69 q 388 8 324 17 q 510 0 453 0 m 440 1006 q 490 1021 461 1006 q 549 1059 519 1036 q 598 1106 578 1082 q 618 1150 618 1131 q 597 1206 619 1178 q 532 1235 575 1235 q 483 1217 511 1235 q 431 1172 456 1199 q 389 1117 406 1144 q 372 1071 372 1090 q 391 1027 372 1049 q 440 1006 410 1006 "},"Ĕ":{"ha":840,"x_min":35,"x_max":806,"o":"m 510 0 q 684 18 622 0 q 770 67 746 36 q 794 135 794 99 q 728 222 794 201 q 642 230 686 235 q 574 225 597 225 q 472 249 511 225 q 413 317 432 274 q 453 316 431 317 q 499 315 475 315 q 613 317 558 315 q 688 324 668 319 q 764 363 740 335 q 788 425 788 390 q 763 490 788 461 q 689 528 738 518 q 616 534 668 532 q 507 536 564 536 q 451 535 478 536 q 401 533 424 535 q 459 612 418 586 q 572 638 500 638 q 647 635 606 638 q 728 651 689 633 q 787 704 768 671 q 806 774 806 738 q 791 843 806 808 q 739 907 776 878 q 635 954 701 936 q 465 972 569 972 q 225 904 321 972 q 82 722 129 836 q 35 469 35 608 q 65 258 35 343 q 147 121 96 172 q 261 43 199 69 q 388 8 324 17 q 510 0 453 0 m 460 1014 q 563 1038 519 1014 q 629 1097 606 1061 q 653 1167 653 1132 q 638 1217 653 1192 q 586 1242 622 1242 q 533 1224 547 1242 q 504 1188 518 1207 q 461 1163 486 1163 q 418 1188 436 1164 q 388 1224 404 1207 q 338 1242 371 1242 q 286 1217 301 1242 q 271 1167 271 1192 q 294 1099 271 1135 q 359 1038 317 1063 q 460 1014 401 1014 "},"Ě":{"ha":840,"x_min":35,"x_max":806,"o":"m 510 0 q 684 18 622 0 q 770 67 746 36 q 794 135 794 99 q 728 222 794 201 q 642 230 686 235 q 574 225 597 225 q 472 249 511 225 q 413 317 432 274 q 453 316 431 317 q 499 315 475 315 q 613 317 558 315 q 688 324 668 319 q 764 363 740 335 q 788 425 788 390 q 763 490 788 461 q 689 528 738 518 q 616 534 668 532 q 507 536 564 536 q 451 535 478 536 q 401 533 424 535 q 459 612 418 586 q 572 638 500 638 q 647 635 606 638 q 728 651 689 633 q 787 704 768 671 q 806 774 806 738 q 791 843 806 808 q 739 907 776 878 q 635 954 701 936 q 465 972 569 972 q 225 904 321 972 q 82 722 129 836 q 35 469 35 608 q 65 258 35 343 q 147 121 96 172 q 261 43 199 69 q 388 8 324 17 q 510 0 453 0 m 357 1253 q 299 1233 319 1253 q 278 1176 278 1213 q 307 1106 278 1144 q 381 1041 336 1068 q 474 1014 426 1014 q 567 1040 521 1014 q 643 1104 613 1067 q 674 1176 674 1142 q 653 1233 674 1213 q 594 1253 632 1253 q 529 1231 560 1253 q 476 1181 499 1210 q 423 1231 454 1210 q 357 1253 392 1253 "},"Ê":{"ha":840,"x_min":35,"x_max":806,"o":"m 510 0 q 684 18 622 0 q 770 67 746 36 q 794 135 794 99 q 728 222 794 201 q 642 230 686 235 q 574 225 597 225 q 472 249 511 225 q 413 317 432 274 q 453 316 431 317 q 499 315 475 315 q 613 317 558 315 q 688 324 668 319 q 764 363 740 335 q 788 425 788 390 q 763 490 788 461 q 689 528 738 518 q 616 534 668 532 q 507 536 564 536 q 451 535 478 536 q 401 533 424 535 q 459 612 418 586 q 572 638 500 638 q 647 635 606 638 q 728 651 689 633 q 787 704 768 671 q 806 774 806 738 q 791 843 806 808 q 739 907 776 878 q 635 954 701 936 q 465 972 569 972 q 225 904 321 972 q 82 722 129 836 q 35 469 35 608 q 65 258 35 343 q 147 121 96 172 q 261 43 199 69 q 388 8 324 17 q 510 0 453 0 m 353 1010 q 419 1031 388 1010 q 472 1082 450 1053 q 525 1031 494 1053 q 590 1010 556 1010 q 649 1031 628 1010 q 669 1086 669 1051 q 639 1158 669 1121 q 563 1222 608 1196 q 469 1249 517 1249 q 377 1222 422 1249 q 303 1157 332 1194 q 274 1086 274 1119 q 294 1031 274 1051 q 353 1010 315 1010 "},"Ế":{"ha":840,"x_min":35,"x_max":806,"o":"m 639 1257 q 685 1270 658 1257 q 738 1304 711 1283 q 782 1347 764 1325 q 801 1388 800 1369 q 781 1438 801 1413 q 722 1464 761 1464 q 678 1448 703 1464 q 631 1407 654 1432 q 593 1357 608 1382 q 578 1315 578 1332 q 594 1276 578 1294 q 639 1257 611 1257 m 357 1010 q 423 1031 392 1010 q 476 1082 454 1053 q 529 1031 499 1053 q 594 1010 560 1010 q 653 1031 632 1010 q 674 1086 674 1051 q 643 1158 674 1121 q 567 1222 613 1196 q 474 1249 521 1249 q 381 1222 426 1249 q 307 1157 336 1194 q 278 1086 278 1119 q 299 1031 278 1051 q 357 1010 319 1010 m 510 0 q 684 18 622 0 q 770 67 746 36 q 794 135 794 99 q 728 222 794 201 q 642 230 686 235 q 574 225 597 225 q 472 249 511 225 q 413 317 432 274 q 453 316 431 317 q 499 315 475 315 q 613 317 558 315 q 688 324 668 319 q 764 363 740 335 q 788 425 788 390 q 763 490 788 461 q 689 528 738 518 q 616 534 668 532 q 507 536 564 536 q 451 535 478 536 q 401 533 424 535 q 459 612 418 586 q 572 638 500 638 q 647 635 606 638 q 728 651 689 633 q 787 704 768 671 q 806 774 806 738 q 791 843 806 808 q 739 907 776 878 q 635 954 701 936 q 465 972 569 972 q 225 904 321 972 q 82 722 129 836 q 35 469 35 608 q 65 258 35 343 q 147 121 96 172 q 261 43 199 69 q 388 8 324 17 q 510 0 453 0 "},"Ệ":{"ha":840,"x_min":35,"x_max":806,"o":"m 510 0 q 684 18 622 0 q 770 67 746 36 q 794 135 794 99 q 728 222 794 201 q 642 230 686 235 q 574 225 597 225 q 472 249 511 225 q 413 317 432 274 q 453 316 431 317 q 499 315 475 315 q 613 317 558 315 q 688 324 668 319 q 764 363 740 335 q 788 425 788 390 q 763 490 788 461 q 689 528 738 518 q 616 534 668 532 q 507 536 564 536 q 451 535 478 536 q 401 533 424 535 q 459 612 418 586 q 572 638 500 638 q 647 635 606 638 q 728 651 689 633 q 787 704 768 671 q 806 774 806 738 q 791 843 806 808 q 739 907 776 878 q 635 954 701 936 q 465 972 569 972 q 225 904 321 972 q 82 722 129 836 q 35 469 35 608 q 65 258 35 343 q 147 121 96 172 q 261 43 199 69 q 388 8 324 17 q 510 0 453 0 m 472 -224 q 541 -194 513 -224 q 569 -126 569 -165 q 541 -58 569 -86 q 472 -29 513 -29 q 403 -58 432 -29 q 375 -126 375 -86 q 403 -194 375 -165 q 472 -224 432 -224 m 353 1010 q 419 1031 388 1010 q 472 1082 450 1053 q 525 1031 494 1053 q 590 1010 556 1010 q 649 1031 628 1010 q 669 1086 669 1051 q 639 1158 669 1121 q 563 1222 608 1196 q 469 1249 517 1249 q 377 1222 422 1249 q 303 1157 332 1194 q 274 1086 274 1119 q 294 1031 274 1051 q 353 1010 315 1010 "},"Ề":{"ha":840,"x_min":35,"x_max":806,"o":"m 669 1224 q 715 1242 699 1224 q 732 1282 732 1261 q 717 1324 732 1299 q 678 1374 701 1349 q 631 1415 656 1399 q 586 1431 606 1431 q 527 1405 547 1431 q 508 1354 507 1379 q 526 1314 508 1336 q 571 1271 544 1292 q 624 1237 597 1250 q 669 1224 651 1224 m 343 1010 q 409 1031 378 1010 q 463 1082 440 1053 q 515 1031 485 1053 q 581 1010 546 1010 q 639 1031 618 1010 q 660 1086 660 1051 q 629 1158 660 1121 q 553 1222 599 1196 q 460 1249 507 1249 q 367 1222 413 1249 q 293 1157 322 1194 q 264 1086 264 1119 q 285 1031 264 1051 q 343 1010 306 1010 m 510 0 q 684 18 622 0 q 770 67 746 36 q 794 135 794 99 q 728 222 794 201 q 642 230 686 235 q 574 225 597 225 q 472 249 511 225 q 413 317 432 274 q 453 316 431 317 q 499 315 475 315 q 613 317 558 315 q 688 324 668 319 q 764 363 740 335 q 788 425 788 390 q 763 490 788 461 q 689 528 738 518 q 616 534 668 532 q 507 536 564 536 q 451 535 478 536 q 401 533 424 535 q 459 612 418 586 q 572 638 500 638 q 647 635 606 638 q 728 651 689 633 q 787 704 768 671 q 806 774 806 738 q 791 843 806 808 q 739 907 776 878 q 635 954 701 936 q 465 972 569 972 q 225 904 321 972 q 82 722 129 836 q 35 469 35 608 q 65 258 35 343 q 147 121 96 172 q 261 43 199 69 q 388 8 324 17 q 510 0 453 0 "},"Ể":{"ha":840,"x_min":35,"x_max":806,"o":"m 669 1207 q 735 1231 703 1207 q 768 1306 768 1256 q 736 1377 768 1350 q 650 1404 704 1404 q 616 1399 636 1404 q 581 1382 596 1394 q 565 1350 565 1369 q 581 1315 565 1324 q 614 1306 596 1306 q 643 1305 631 1306 q 656 1292 656 1304 q 647 1279 656 1282 q 628 1270 638 1276 q 619 1246 619 1264 q 635 1217 619 1226 q 669 1207 651 1207 m 371 1010 q 437 1031 406 1010 q 490 1082 468 1053 q 543 1031 513 1053 q 608 1010 574 1010 q 667 1031 646 1010 q 688 1086 688 1051 q 657 1158 688 1121 q 581 1222 626 1196 q 488 1249 535 1249 q 395 1222 440 1249 q 321 1157 350 1194 q 292 1086 292 1119 q 313 1031 292 1051 q 371 1010 333 1010 m 510 0 q 684 18 622 0 q 770 67 746 36 q 794 135 794 99 q 728 222 794 201 q 642 230 686 235 q 574 225 597 225 q 472 249 511 225 q 413 317 432 274 q 453 316 431 317 q 499 315 475 315 q 613 317 558 315 q 688 324 668 319 q 764 363 740 335 q 788 425 788 390 q 763 490 788 461 q 689 528 738 518 q 616 534 668 532 q 507 536 564 536 q 451 535 478 536 q 401 533 424 535 q 459 612 418 586 q 572 638 500 638 q 647 635 606 638 q 728 651 689 633 q 787 704 768 671 q 806 774 806 738 q 791 843 806 808 q 739 907 776 878 q 635 954 701 936 q 465 972 569 972 q 225 904 321 972 q 82 722 129 836 q 35 469 35 608 q 65 258 35 343 q 147 121 96 172 q 261 43 199 69 q 388 8 324 17 q 510 0 453 0 "},"Ễ":{"ha":840,"x_min":35,"x_max":806,"o":"m 331 1269 q 363 1277 353 1269 q 384 1292 374 1285 q 419 1300 394 1300 q 451 1292 439 1300 q 483 1275 464 1283 q 543 1267 503 1267 q 601 1282 575 1267 q 644 1320 628 1297 q 660 1364 660 1343 q 641 1414 660 1397 q 594 1431 622 1431 q 562 1422 572 1431 q 541 1406 551 1414 q 506 1399 531 1399 q 474 1407 486 1399 q 443 1424 463 1415 q 382 1433 424 1433 q 299 1401 335 1433 q 264 1335 264 1369 q 283 1285 264 1301 q 331 1269 303 1269 m 343 1010 q 409 1031 378 1010 q 463 1082 440 1053 q 515 1031 485 1053 q 581 1010 546 1010 q 639 1031 618 1010 q 660 1086 660 1051 q 629 1158 660 1121 q 553 1222 599 1196 q 460 1249 507 1249 q 367 1222 413 1249 q 293 1157 322 1194 q 264 1086 264 1119 q 285 1031 264 1051 q 343 1010 306 1010 m 510 0 q 684 18 622 0 q 770 67 746 36 q 794 135 794 99 q 728 222 794 201 q 642 230 686 235 q 574 225 597 225 q 472 249 511 225 q 413 317 432 274 q 453 316 431 317 q 499 315 475 315 q 613 317 558 315 q 688 324 668 319 q 764 363 740 335 q 788 425 788 390 q 763 490 788 461 q 689 528 738 518 q 616 534 668 532 q 507 536 564 536 q 451 535 478 536 q 401 533 424 535 q 459 612 418 586 q 572 638 500 638 q 647 635 606 638 q 728 651 689 633 q 787 704 768 671 q 806 774 806 738 q 791 843 806 808 q 739 907 776 878 q 635 954 701 936 q 465 972 569 972 q 225 904 321 972 q 82 722 129 836 q 35 469 35 608 q 65 258 35 343 q 147 121 96 172 q 261 43 199 69 q 388 8 324 17 q 510 0 453 0 "},"Ȅ":{"ha":840,"x_min":35,"x_max":806,"o":"m 510 0 q 684 18 622 0 q 770 67 746 36 q 794 135 794 99 q 728 222 794 201 q 642 230 686 235 q 574 225 597 225 q 472 249 511 225 q 413 317 432 274 q 453 316 431 317 q 499 315 475 315 q 613 317 558 315 q 688 324 668 319 q 764 363 740 335 q 788 425 788 390 q 763 490 788 461 q 689 528 738 518 q 616 534 668 532 q 507 536 564 536 q 451 535 478 536 q 401 533 424 535 q 459 612 418 586 q 572 638 500 638 q 647 635 606 638 q 728 651 689 633 q 787 704 768 671 q 806 774 806 738 q 791 843 806 808 q 739 907 776 878 q 635 954 701 936 q 465 972 569 972 q 225 904 321 972 q 82 722 129 836 q 35 469 35 608 q 65 258 35 343 q 147 121 96 172 q 261 43 199 69 q 388 8 324 17 q 510 0 453 0 m 593 1049 q 643 1070 625 1049 q 661 1114 661 1092 q 649 1160 661 1133 q 617 1215 636 1188 q 574 1260 597 1242 q 529 1278 550 1278 q 464 1249 486 1278 q 443 1192 442 1219 q 459 1148 443 1172 q 499 1101 475 1124 q 547 1063 522 1078 q 593 1049 572 1049 m 365 1047 q 415 1069 397 1047 q 433 1113 433 1090 q 419 1159 433 1132 q 382 1213 404 1186 q 334 1258 360 1240 q 288 1276 308 1276 q 222 1248 244 1276 q 201 1192 200 1219 q 219 1148 201 1172 q 264 1101 238 1124 q 317 1063 290 1078 q 365 1047 344 1047 "},"Ë":{"ha":840,"x_min":35,"x_max":806,"o":"m 510 0 q 684 18 622 0 q 770 67 746 36 q 794 135 794 99 q 728 222 794 201 q 642 230 686 235 q 574 225 597 225 q 472 249 511 225 q 413 317 432 274 q 453 316 431 317 q 499 315 475 315 q 613 317 558 315 q 688 324 668 319 q 764 363 740 335 q 788 425 788 390 q 763 490 788 461 q 689 528 738 518 q 616 534 668 532 q 507 536 564 536 q 451 535 478 536 q 401 533 424 535 q 459 612 418 586 q 572 638 500 638 q 647 635 606 638 q 728 651 689 633 q 787 704 768 671 q 806 774 806 738 q 791 843 806 808 q 739 907 776 878 q 635 954 701 936 q 465 972 569 972 q 225 904 321 972 q 82 722 129 836 q 35 469 35 608 q 65 258 35 343 q 147 121 96 172 q 261 43 199 69 q 388 8 324 17 q 510 0 453 0 m 599 1022 q 674 1054 643 1022 q 706 1129 706 1086 q 674 1205 706 1174 q 599 1236 643 1236 q 523 1205 554 1236 q 492 1129 492 1174 q 523 1054 492 1086 q 599 1022 554 1022 m 326 1021 q 401 1052 371 1021 q 432 1128 432 1083 q 401 1203 432 1172 q 326 1235 371 1235 q 250 1203 282 1235 q 218 1128 218 1172 q 250 1052 218 1083 q 326 1021 282 1021 "},"Ė":{"ha":840,"x_min":35,"x_max":806,"o":"m 510 0 q 684 18 622 0 q 770 67 746 36 q 794 135 794 99 q 728 222 794 201 q 642 230 686 235 q 574 225 597 225 q 472 249 511 225 q 413 317 432 274 q 453 316 431 317 q 499 315 475 315 q 613 317 558 315 q 688 324 668 319 q 764 363 740 335 q 788 425 788 390 q 763 490 788 461 q 689 528 738 518 q 616 534 668 532 q 507 536 564 536 q 451 535 478 536 q 401 533 424 535 q 459 612 418 586 q 572 638 500 638 q 647 635 606 638 q 728 651 689 633 q 787 704 768 671 q 806 774 806 738 q 791 843 806 808 q 739 907 776 878 q 635 954 701 936 q 465 972 569 972 q 225 904 321 972 q 82 722 129 836 q 35 469 35 608 q 65 258 35 343 q 147 121 96 172 q 261 43 199 69 q 388 8 324 17 q 510 0 453 0 m 417 1018 q 485 1047 457 1018 q 514 1115 514 1076 q 485 1184 514 1156 q 417 1213 457 1213 q 348 1184 376 1213 q 319 1115 319 1156 q 348 1047 319 1076 q 417 1018 376 1018 "},"Ẹ":{"ha":840,"x_min":35,"x_max":806,"o":"m 510 0 q 684 18 622 0 q 770 67 746 36 q 794 135 794 99 q 728 222 794 201 q 642 230 686 235 q 574 225 597 225 q 472 249 511 225 q 413 317 432 274 q 453 316 431 317 q 499 315 475 315 q 613 317 558 315 q 688 324 668 319 q 764 363 740 335 q 788 425 788 390 q 763 490 788 461 q 689 528 738 518 q 616 534 668 532 q 507 536 564 536 q 451 535 478 536 q 401 533 424 535 q 459 612 418 586 q 572 638 500 638 q 647 635 606 638 q 728 651 689 633 q 787 704 768 671 q 806 774 806 738 q 791 843 806 808 q 739 907 776 878 q 635 954 701 936 q 465 972 569 972 q 225 904 321 972 q 82 722 129 836 q 35 469 35 608 q 65 258 35 343 q 147 121 96 172 q 261 43 199 69 q 388 8 324 17 q 510 0 453 0 m 463 1018 q 531 1047 503 1018 q 560 1115 560 1076 q 531 1184 560 1156 q 463 1213 503 1213 q 394 1184 422 1213 q 365 1115 365 1156 q 394 1047 365 1076 q 463 1018 422 1018 "},"È":{"ha":840,"x_min":35,"x_max":806,"o":"m 510 0 q 684 18 622 0 q 770 67 746 36 q 794 135 794 99 q 728 222 794 201 q 642 230 686 235 q 574 225 597 225 q 472 249 511 225 q 413 317 432 274 q 453 316 431 317 q 499 315 475 315 q 613 317 558 315 q 688 324 668 319 q 764 363 740 335 q 788 425 788 390 q 763 490 788 461 q 689 528 738 518 q 616 534 668 532 q 507 536 564 536 q 451 535 478 536 q 401 533 424 535 q 459 612 418 586 q 572 638 500 638 q 647 635 606 638 q 728 651 689 633 q 787 704 768 671 q 806 774 806 738 q 791 843 806 808 q 739 907 776 878 q 635 954 701 936 q 465 972 569 972 q 225 904 321 972 q 82 722 129 836 q 35 469 35 608 q 65 258 35 343 q 147 121 96 172 q 261 43 199 69 q 388 8 324 17 q 510 0 453 0 m 532 1019 q 582 1041 564 1019 q 600 1085 600 1063 q 583 1131 600 1104 q 542 1185 567 1158 q 489 1231 517 1213 q 440 1249 461 1249 q 375 1220 397 1249 q 354 1164 353 1192 q 374 1120 354 1144 q 424 1073 394 1096 q 482 1035 453 1050 q 532 1019 511 1019 "},"Ẻ":{"ha":840,"x_min":35,"x_max":806,"o":"m 510 0 q 684 18 622 0 q 770 67 746 36 q 794 135 794 99 q 728 222 794 201 q 642 230 686 235 q 574 225 597 225 q 472 249 511 225 q 413 317 432 274 q 453 316 431 317 q 499 315 475 315 q 613 317 558 315 q 688 324 668 319 q 764 363 740 335 q 788 425 788 390 q 763 490 788 461 q 689 528 738 518 q 616 534 668 532 q 507 536 564 536 q 451 535 478 536 q 401 533 424 535 q 459 612 418 586 q 572 638 500 638 q 647 635 606 638 q 728 651 689 633 q 787 704 768 671 q 806 774 806 738 q 791 843 806 808 q 739 907 776 878 q 635 954 701 936 q 465 972 569 972 q 225 904 321 972 q 82 722 129 836 q 35 469 35 608 q 65 258 35 343 q 147 121 96 172 q 261 43 199 69 q 388 8 324 17 q 510 0 453 0 m 460 1011 q 520 1026 490 1011 q 570 1069 550 1040 q 590 1143 590 1099 q 548 1239 590 1203 q 433 1275 506 1275 q 388 1268 415 1275 q 341 1245 361 1261 q 321 1201 321 1229 q 341 1155 321 1167 q 386 1143 361 1143 q 424 1142 407 1143 q 442 1125 442 1142 q 430 1108 442 1113 q 406 1095 418 1103 q 393 1064 393 1088 q 414 1024 393 1038 q 460 1011 435 1011 "},"Ȇ":{"ha":840,"x_min":35,"x_max":806,"o":"m 510 0 q 684 18 622 0 q 770 67 746 36 q 794 135 794 99 q 728 222 794 201 q 642 230 686 235 q 574 225 597 225 q 472 249 511 225 q 413 317 432 274 q 453 316 431 317 q 499 315 475 315 q 613 317 558 315 q 688 324 668 319 q 764 363 740 335 q 788 425 788 390 q 763 490 788 461 q 689 528 738 518 q 616 534 668 532 q 507 536 564 536 q 451 535 478 536 q 401 533 424 535 q 459 612 418 586 q 572 638 500 638 q 647 635 606 638 q 728 651 689 633 q 787 704 768 671 q 806 774 806 738 q 791 843 806 808 q 739 907 776 878 q 635 954 701 936 q 465 972 569 972 q 225 904 321 972 q 82 722 129 836 q 35 469 35 608 q 65 258 35 343 q 147 121 96 172 q 261 43 199 69 q 388 8 324 17 q 510 0 453 0 m 460 1240 q 359 1216 401 1240 q 294 1156 317 1192 q 271 1088 271 1121 q 286 1038 271 1063 q 338 1013 301 1013 q 388 1031 371 1013 q 418 1067 404 1049 q 461 1091 436 1090 q 504 1067 486 1092 q 533 1031 518 1049 q 586 1013 547 1013 q 638 1038 622 1013 q 653 1088 653 1063 q 629 1158 653 1122 q 563 1217 606 1193 q 460 1240 519 1240 "},"Ē":{"ha":840,"x_min":35,"x_max":806,"o":"m 510 0 q 684 18 622 0 q 770 67 746 36 q 794 135 794 99 q 728 222 794 201 q 642 230 686 235 q 574 225 597 225 q 472 249 511 225 q 413 317 432 274 q 453 316 431 317 q 499 315 475 315 q 613 317 558 315 q 688 324 668 319 q 764 363 740 335 q 788 425 788 390 q 763 490 788 461 q 689 528 738 518 q 616 534 668 532 q 507 536 564 536 q 451 535 478 536 q 401 533 424 535 q 459 612 418 586 q 572 638 500 638 q 647 635 606 638 q 728 651 689 633 q 787 704 768 671 q 806 774 806 738 q 791 843 806 808 q 739 907 776 878 q 635 954 701 936 q 465 972 569 972 q 225 904 321 972 q 82 722 129 836 q 35 469 35 608 q 65 258 35 343 q 147 121 96 172 q 261 43 199 69 q 388 8 324 17 q 510 0 453 0 m 447 1035 q 535 1035 490 1035 q 617 1042 579 1035 q 679 1067 656 1049 q 703 1124 703 1086 q 679 1179 703 1160 q 617 1207 656 1199 q 535 1217 579 1215 q 447 1218 490 1218 q 360 1217 406 1218 q 278 1207 315 1215 q 217 1179 240 1199 q 193 1124 193 1160 q 217 1067 193 1086 q 278 1042 240 1049 q 360 1035 315 1035 q 447 1035 406 1035 "},"Ę":{"ha":840,"x_min":35,"x_max":806,"o":"m 510 0 q 684 18 622 0 q 770 67 746 36 q 794 135 794 99 q 728 222 794 201 q 642 230 686 235 q 574 225 597 225 q 472 249 511 225 q 413 317 432 274 q 453 316 431 317 q 499 315 475 315 q 613 317 558 315 q 688 324 668 319 q 764 363 740 335 q 788 425 788 390 q 763 490 788 461 q 689 528 738 518 q 616 534 668 532 q 507 536 564 536 q 451 535 478 536 q 401 533 424 535 q 459 612 418 586 q 572 638 500 638 q 647 635 606 638 q 728 651 689 633 q 787 704 768 671 q 806 774 806 738 q 791 843 806 808 q 739 907 776 878 q 635 954 701 936 q 465 972 569 972 q 225 904 321 972 q 82 722 129 836 q 35 469 35 608 q 65 258 35 343 q 147 121 96 172 q 261 43 199 69 q 388 8 324 17 q 510 0 453 0 m 625 -256 q 724 -233 694 -256 q 753 -176 753 -210 q 733 -122 753 -137 q 686 -106 713 -106 q 653 -99 671 -106 q 636 -67 636 -92 q 658 -21 636 -40 q 703 18 681 -1 q 783 99 768 75 q 753 122 797 122 l 631 122 q 574 107 606 122 q 513 63 543 92 q 464 -2 483 35 q 444 -83 444 -39 q 494 -214 444 -172 q 625 -256 544 -256 "},"Ẽ":{"ha":840,"x_min":35,"x_max":806,"o":"m 510 0 q 684 18 622 0 q 770 67 746 36 q 794 135 794 99 q 728 222 794 201 q 642 230 686 235 q 574 225 597 225 q 472 249 511 225 q 413 317 432 274 q 453 316 431 317 q 499 315 475 315 q 613 317 558 315 q 688 324 668 319 q 764 363 740 335 q 788 425 788 390 q 763 490 788 461 q 689 528 738 518 q 616 534 668 532 q 507 536 564 536 q 451 535 478 536 q 401 533 424 535 q 459 612 418 586 q 572 638 500 638 q 647 635 606 638 q 728 651 689 633 q 787 704 768 671 q 806 774 806 738 q 791 843 806 808 q 739 907 776 878 q 635 954 701 936 q 465 972 569 972 q 225 904 321 972 q 82 722 129 836 q 35 469 35 608 q 65 258 35 343 q 147 121 96 172 q 261 43 199 69 q 388 8 324 17 q 510 0 453 0 m 281 1035 q 324 1045 311 1035 q 351 1066 336 1056 q 399 1076 365 1076 q 440 1065 424 1076 q 482 1043 456 1054 q 561 1032 508 1032 q 639 1052 604 1032 q 695 1102 674 1072 q 717 1161 717 1132 q 691 1226 717 1204 q 629 1249 665 1249 q 587 1238 600 1249 q 559 1217 574 1228 q 511 1206 544 1206 q 470 1217 486 1206 q 428 1240 454 1229 q 349 1251 403 1251 q 272 1231 307 1251 q 215 1182 236 1211 q 193 1122 193 1153 q 219 1057 193 1079 q 281 1035 244 1035 "},"F":{"ha":858,"x_min":35,"x_max":824,"o":"m 251 1 q 326 24 300 1 q 363 81 353 46 q 374 156 374 117 q 372 199 374 178 q 368 239 371 219 q 412 240 390 239 q 456 240 433 240 q 576 240 517 240 q 683 247 635 239 q 761 281 732 256 q 790 360 790 307 q 761 433 790 408 q 683 467 732 458 q 576 477 635 476 q 456 478 517 478 q 406 478 431 478 q 356 476 381 478 q 357 489 357 482 q 388 552 361 526 q 458 591 415 578 q 549 604 501 604 q 694 615 632 604 q 790 660 756 626 q 824 767 824 694 q 742 917 824 863 q 500 972 661 972 q 319 935 404 972 q 171 831 235 899 q 71 671 107 764 q 35 465 35 578 q 62 197 35 300 q 138 48 89 94 q 251 1 188 1 "},"G":{"ha":938,"x_min":35,"x_max":903,"o":"m 526 1 q 710 40 626 0 q 843 147 793 79 q 893 299 893 215 q 870 425 893 376 q 791 497 847 474 q 636 519 735 519 q 497 484 535 519 q 460 396 460 449 q 517 312 460 333 q 667 290 574 290 q 651 269 667 283 q 605 244 636 256 q 526 232 574 232 q 438 251 479 232 q 372 310 397 271 q 347 408 347 349 q 401 564 347 510 q 544 618 454 618 q 619 608 592 618 q 674 588 647 599 q 749 578 701 578 q 822 592 786 578 q 880 640 857 606 q 903 738 903 675 q 858 850 903 796 q 731 938 814 904 q 531 972 647 972 q 354 942 442 972 q 194 851 267 913 q 78 692 122 789 q 35 461 35 596 q 92 217 35 321 q 260 58 150 114 q 526 1 371 1 "},"Ğ":{"ha":938,"x_min":35,"x_max":903,"o":"m 526 1 q 710 40 626 0 q 843 147 793 79 q 893 299 893 215 q 870 425 893 376 q 791 497 847 474 q 636 519 735 519 q 497 484 535 519 q 460 396 460 449 q 517 312 460 333 q 667 290 574 290 q 651 269 667 283 q 605 244 636 256 q 526 232 574 232 q 438 251 479 232 q 372 310 397 271 q 347 408 347 349 q 401 564 347 510 q 544 618 454 618 q 619 608 592 618 q 674 588 647 599 q 749 578 701 578 q 822 592 786 578 q 880 640 857 606 q 903 738 903 675 q 858 850 903 796 q 731 938 814 904 q 531 972 647 972 q 354 942 442 972 q 194 851 267 913 q 78 692 122 789 q 35 461 35 596 q 92 217 35 321 q 260 58 150 114 q 526 1 371 1 m 508 1028 q 611 1051 568 1028 q 678 1110 654 1075 q 701 1181 701 1146 q 686 1231 701 1206 q 635 1256 671 1256 q 581 1238 596 1256 q 553 1201 567 1221 q 510 1177 535 1176 q 467 1201 485 1178 q 436 1238 453 1221 q 386 1256 419 1256 q 335 1231 350 1256 q 319 1181 319 1206 q 342 1113 319 1149 q 408 1052 365 1076 q 508 1028 450 1028 "},"Ǧ":{"ha":938,"x_min":35,"x_max":903,"o":"m 526 1 q 710 40 626 0 q 843 147 793 79 q 893 299 893 215 q 870 425 893 376 q 791 497 847 474 q 636 519 735 519 q 497 484 535 519 q 460 396 460 449 q 517 312 460 333 q 667 290 574 290 q 651 269 667 283 q 605 244 636 256 q 526 232 574 232 q 438 251 479 232 q 372 310 397 271 q 347 408 347 349 q 401 564 347 510 q 544 618 454 618 q 619 608 592 618 q 674 588 647 599 q 749 578 701 578 q 822 592 786 578 q 880 640 857 606 q 903 738 903 675 q 858 850 903 796 q 731 938 814 904 q 531 972 647 972 q 354 942 442 972 q 194 851 267 913 q 78 692 122 789 q 35 461 35 596 q 92 217 35 321 q 260 58 150 114 q 526 1 371 1 m 378 1253 q 319 1233 340 1253 q 299 1176 299 1213 q 328 1106 299 1144 q 402 1041 357 1068 q 494 1014 447 1014 q 588 1040 542 1014 q 664 1104 633 1067 q 694 1176 694 1142 q 674 1233 694 1213 q 615 1253 653 1253 q 550 1231 581 1253 q 497 1181 519 1210 q 444 1231 475 1210 q 378 1253 413 1253 "},"Ĝ":{"ha":938,"x_min":35,"x_max":903,"o":"m 526 1 q 710 40 626 0 q 843 147 793 79 q 893 299 893 215 q 870 425 893 376 q 791 497 847 474 q 636 519 735 519 q 497 484 535 519 q 460 396 460 449 q 517 312 460 333 q 667 290 574 290 q 651 269 667 283 q 605 244 636 256 q 526 232 574 232 q 438 251 479 232 q 372 310 397 271 q 347 408 347 349 q 401 564 347 510 q 544 618 454 618 q 619 608 592 618 q 674 588 647 599 q 749 578 701 578 q 822 592 786 578 q 880 640 857 606 q 903 738 903 675 q 858 850 903 796 q 731 938 814 904 q 531 972 647 972 q 354 942 442 972 q 194 851 267 913 q 78 692 122 789 q 35 461 35 596 q 92 217 35 321 q 260 58 150 114 q 526 1 371 1 m 392 1024 q 458 1045 426 1024 q 511 1096 489 1067 q 564 1045 533 1067 q 629 1024 594 1024 q 688 1044 667 1024 q 708 1100 708 1065 q 678 1172 708 1135 q 601 1236 647 1210 q 508 1263 556 1263 q 416 1235 461 1263 q 342 1171 371 1208 q 313 1100 313 1133 q 333 1044 313 1065 q 392 1024 354 1024 "},"Ģ":{"ha":938,"x_min":35,"x_max":903,"o":"m 526 1 q 710 40 626 0 q 843 147 793 79 q 893 299 893 215 q 870 425 893 376 q 791 497 847 474 q 636 519 735 519 q 497 484 535 519 q 460 396 460 449 q 517 312 460 333 q 667 290 574 290 q 651 269 667 283 q 605 244 636 256 q 526 232 574 232 q 438 251 479 232 q 372 310 397 271 q 347 408 347 349 q 401 564 347 510 q 544 618 454 618 q 619 608 592 618 q 674 588 647 599 q 749 578 701 578 q 822 592 786 578 q 880 640 857 606 q 903 738 903 675 q 858 850 903 796 q 731 938 814 904 q 531 972 647 972 q 354 942 442 972 q 194 851 267 913 q 78 692 122 789 q 35 461 35 596 q 92 217 35 321 q 260 58 150 114 q 526 1 371 1 m 433 -265 q 483 -250 454 -265 q 542 -212 513 -235 q 591 -165 571 -189 q 611 -121 611 -140 q 590 -65 613 -93 q 525 -36 568 -36 q 476 -54 504 -36 q 424 -99 449 -72 q 382 -153 399 -126 q 365 -200 365 -181 q 384 -244 365 -222 q 433 -265 403 -265 "},"Ġ":{"ha":938,"x_min":35,"x_max":903,"o":"m 526 1 q 710 40 626 0 q 843 147 793 79 q 893 299 893 215 q 870 425 893 376 q 791 497 847 474 q 636 519 735 519 q 497 484 535 519 q 460 396 460 449 q 517 312 460 333 q 667 290 574 290 q 651 269 667 283 q 605 244 636 256 q 526 232 574 232 q 438 251 479 232 q 372 310 397 271 q 347 408 347 349 q 401 564 347 510 q 544 618 454 618 q 619 608 592 618 q 674 588 647 599 q 749 578 701 578 q 822 592 786 578 q 880 640 857 606 q 903 738 903 675 q 858 850 903 796 q 731 938 814 904 q 531 972 647 972 q 354 942 442 972 q 194 851 267 913 q 78 692 122 789 q 35 461 35 596 q 92 217 35 321 q 260 58 150 114 q 526 1 371 1 m 469 1018 q 538 1047 510 1018 q 567 1115 567 1076 q 538 1184 567 1156 q 469 1213 510 1213 q 401 1184 429 1213 q 372 1115 372 1156 q 401 1047 372 1076 q 469 1018 429 1018 "},"H":{"ha":1028,"x_min":35,"x_max":993,"o":"m 226 1 q 363 88 326 1 q 407 332 400 175 q 443 332 425 332 q 479 332 461 332 q 553 332 517 332 q 621 333 589 332 q 664 89 628 175 q 800 3 700 3 q 922 57 881 3 q 978 218 964 111 q 993 483 993 325 q 978 750 993 642 q 922 914 964 858 q 800 969 881 969 q 691 925 729 969 q 638 797 653 881 q 619 596 622 714 q 565 597 593 597 q 507 597 536 597 q 457 597 482 597 q 408 597 432 597 q 390 797 406 714 q 335 924 374 881 q 226 968 297 968 q 104 913 146 968 q 49 750 63 858 q 35 483 35 642 q 49 218 35 325 q 104 56 63 111 q 226 1 146 1 "},"Ħ":{"ha":1213,"x_min":35,"x_max":1178,"o":"m 318 1 q 453 85 417 1 q 499 319 490 168 q 534 319 515 319 q 571 319 553 319 q 644 319 608 319 q 713 321 681 319 q 757 85 721 168 q 892 3 793 3 q 1014 57 972 3 q 1070 218 1056 111 q 1085 483 1085 325 q 1083 574 1085 531 q 1081 657 1082 618 q 1155 689 1132 667 q 1178 750 1178 711 q 1147 819 1178 794 q 1046 854 1115 843 q 988 941 1025 911 q 892 971 950 971 q 803 944 838 971 q 749 868 769 918 q 679 868 715 868 q 604 868 643 868 q 529 868 565 868 q 461 868 493 868 q 406 943 440 917 q 318 969 372 969 q 222 940 260 969 q 164 853 185 911 q 65 819 96 843 q 35 750 35 794 q 58 689 35 711 q 131 657 81 667 q 127 574 128 618 q 126 483 126 531 q 140 218 126 325 q 196 56 154 111 q 318 1 238 1 m 604 642 q 660 642 633 642 q 713 642 688 642 q 711 572 711 610 q 656 574 683 574 q 599 574 628 574 q 549 574 574 574 q 500 574 524 574 q 499 642 500 610 q 550 642 524 642 q 604 642 576 642 "},"Ĥ":{"ha":1028,"x_min":35,"x_max":993,"o":"m 226 1 q 363 88 326 1 q 407 332 400 175 q 443 332 425 332 q 479 332 461 332 q 553 332 517 332 q 621 333 589 332 q 664 89 628 175 q 800 3 700 3 q 922 57 881 3 q 978 218 964 111 q 993 483 993 325 q 978 750 993 642 q 922 914 964 858 q 800 969 881 969 q 691 925 729 969 q 638 797 653 881 q 619 596 622 714 q 565 597 593 597 q 507 597 536 597 q 457 597 482 597 q 408 597 432 597 q 390 797 406 714 q 335 924 374 881 q 226 968 297 968 q 104 913 146 968 q 49 750 63 858 q 35 483 35 642 q 49 218 35 325 q 104 56 63 111 q 226 1 146 1 m 396 996 q 462 1017 431 996 q 515 1068 493 1039 q 568 1017 538 1039 q 633 996 599 996 q 692 1017 671 996 q 713 1072 713 1038 q 682 1144 713 1107 q 606 1208 651 1182 q 513 1235 560 1235 q 420 1208 465 1235 q 346 1143 375 1181 q 317 1072 317 1106 q 338 1017 317 1038 q 396 996 358 996 "},"I":{"ha":696,"x_min":35,"x_max":661,"o":"m 349 4 q 449 6 399 4 q 541 19 499 8 q 609 57 583 31 q 635 131 635 83 q 591 219 635 193 q 485 251 547 244 q 491 358 489 300 q 493 482 493 415 q 492 599 493 544 q 486 699 490 653 q 574 717 533 704 q 638 758 614 731 q 661 833 661 786 q 633 915 661 886 q 558 955 604 943 q 457 969 513 967 q 347 972 401 972 q 238 969 293 972 q 137 955 183 967 q 63 915 90 943 q 35 833 35 886 q 85 735 35 763 q 207 699 136 707 q 203 598 204 653 q 201 482 201 543 q 203 358 201 415 q 208 251 204 300 q 107 217 149 243 q 65 131 65 192 q 91 57 65 83 q 158 19 117 31 q 250 6 200 8 q 349 4 300 4 "},"Í":{"ha":696,"x_min":35,"x_max":661,"o":"m 349 4 q 449 6 399 4 q 541 19 499 8 q 609 57 583 31 q 635 131 635 83 q 591 219 635 193 q 485 251 547 244 q 491 358 489 300 q 493 482 493 415 q 492 599 493 544 q 486 699 490 653 q 574 717 533 704 q 638 758 614 731 q 661 833 661 786 q 633 915 661 886 q 558 955 604 943 q 457 969 513 967 q 347 972 401 972 q 238 969 293 972 q 137 955 183 967 q 63 915 90 943 q 35 833 35 886 q 85 735 35 763 q 207 699 136 707 q 203 598 204 653 q 201 482 201 543 q 203 358 201 415 q 208 251 204 300 q 107 217 149 243 q 65 131 65 192 q 91 57 65 83 q 158 19 117 31 q 250 6 200 8 q 349 4 300 4 m 313 1006 q 363 1021 333 1006 q 421 1059 392 1036 q 470 1106 450 1082 q 490 1150 490 1131 q 469 1206 492 1178 q 404 1235 447 1235 q 356 1217 383 1235 q 303 1172 328 1199 q 261 1117 278 1144 q 244 1071 244 1090 q 263 1027 244 1049 q 313 1006 282 1006 "},"Ĭ":{"ha":696,"x_min":35,"x_max":661,"o":"m 349 4 q 449 6 399 4 q 541 19 499 8 q 609 57 583 31 q 635 131 635 83 q 591 219 635 193 q 485 251 547 244 q 491 358 489 300 q 493 482 493 415 q 492 599 493 544 q 486 699 490 653 q 574 717 533 704 q 638 758 614 731 q 661 833 661 786 q 633 915 661 886 q 558 955 604 943 q 457 969 513 967 q 347 972 401 972 q 238 969 293 972 q 137 955 183 967 q 63 915 90 943 q 35 833 35 886 q 85 735 35 763 q 207 699 136 707 q 203 598 204 653 q 201 482 201 543 q 203 358 201 415 q 208 251 204 300 q 107 217 149 243 q 65 131 65 192 q 91 57 65 83 q 158 19 117 31 q 250 6 200 8 q 349 4 300 4 m 346 1014 q 449 1038 406 1014 q 515 1097 492 1061 q 539 1167 539 1132 q 524 1217 539 1192 q 472 1242 508 1242 q 419 1224 433 1242 q 390 1188 404 1207 q 347 1163 372 1163 q 304 1188 322 1164 q 274 1224 290 1207 q 224 1242 257 1242 q 172 1217 188 1242 q 157 1167 157 1192 q 180 1099 157 1135 q 245 1038 203 1063 q 346 1014 288 1014 "},"Î":{"ha":696,"x_min":35,"x_max":661,"o":"m 349 4 q 449 6 399 4 q 541 19 499 8 q 609 57 583 31 q 635 131 635 83 q 591 219 635 193 q 485 251 547 244 q 491 358 489 300 q 493 482 493 415 q 492 599 493 544 q 486 699 490 653 q 574 717 533 704 q 638 758 614 731 q 661 833 661 786 q 633 915 661 886 q 558 955 604 943 q 457 969 513 967 q 347 972 401 972 q 238 969 293 972 q 137 955 183 967 q 63 915 90 943 q 35 833 35 886 q 85 735 35 763 q 207 699 136 707 q 203 598 204 653 q 201 482 201 543 q 203 358 201 415 q 208 251 204 300 q 107 217 149 243 q 65 131 65 192 q 91 57 65 83 q 158 19 117 31 q 250 6 200 8 q 349 4 300 4 m 229 1024 q 295 1045 264 1024 q 349 1096 326 1067 q 401 1045 371 1067 q 467 1024 432 1024 q 525 1044 504 1024 q 546 1100 546 1065 q 515 1172 546 1135 q 439 1236 485 1210 q 346 1263 393 1263 q 253 1235 299 1263 q 179 1171 208 1208 q 150 1100 150 1133 q 171 1044 150 1065 q 229 1024 192 1024 "},"Ȉ":{"ha":696,"x_min":35,"x_max":661,"o":"m 349 4 q 449 6 399 4 q 541 19 499 8 q 609 57 583 31 q 635 131 635 83 q 591 219 635 193 q 485 251 547 244 q 491 358 489 300 q 493 482 493 415 q 492 599 493 544 q 486 699 490 653 q 574 717 533 704 q 638 758 614 731 q 661 833 661 786 q 633 915 661 886 q 558 955 604 943 q 457 969 513 967 q 347 972 401 972 q 238 969 293 972 q 137 955 183 967 q 63 915 90 943 q 35 833 35 886 q 85 735 35 763 q 207 699 136 707 q 203 598 204 653 q 201 482 201 543 q 203 358 201 415 q 208 251 204 300 q 107 217 149 243 q 65 131 65 192 q 91 57 65 83 q 158 19 117 31 q 250 6 200 8 q 349 4 300 4 m 465 1050 q 515 1072 497 1050 q 533 1115 533 1093 q 521 1162 533 1135 q 489 1216 508 1189 q 446 1261 469 1243 q 401 1279 422 1279 q 336 1250 358 1279 q 315 1193 314 1221 q 331 1149 315 1174 q 371 1102 347 1125 q 419 1065 394 1079 q 465 1050 444 1050 m 238 1049 q 288 1070 269 1049 q 306 1114 306 1092 q 291 1160 306 1133 q 254 1215 276 1188 q 206 1260 232 1242 q 160 1278 181 1278 q 94 1249 117 1278 q 74 1193 72 1221 q 92 1149 74 1174 q 136 1102 110 1125 q 190 1064 163 1079 q 238 1049 217 1049 "},"Ï":{"ha":696,"x_min":35,"x_max":661,"o":"m 349 4 q 449 6 399 4 q 541 19 499 8 q 609 57 583 31 q 635 131 635 83 q 591 219 635 193 q 485 251 547 244 q 491 358 489 300 q 493 482 493 415 q 492 599 493 544 q 486 699 490 653 q 574 717 533 704 q 638 758 614 731 q 661 833 661 786 q 633 915 661 886 q 558 955 604 943 q 457 969 513 967 q 347 972 401 972 q 238 969 293 972 q 137 955 183 967 q 63 915 90 943 q 35 833 35 886 q 85 735 35 763 q 207 699 136 707 q 203 598 204 653 q 201 482 201 543 q 203 358 201 415 q 208 251 204 300 q 107 217 149 243 q 65 131 65 192 q 91 57 65 83 q 158 19 117 31 q 250 6 200 8 q 349 4 300 4 m 485 1022 q 560 1054 529 1022 q 592 1129 592 1086 q 560 1205 592 1174 q 485 1236 529 1236 q 409 1205 440 1236 q 378 1129 378 1174 q 409 1054 378 1086 q 485 1022 440 1022 m 213 1021 q 288 1052 257 1021 q 318 1128 318 1083 q 288 1203 318 1172 q 213 1235 257 1235 q 136 1203 168 1235 q 104 1128 104 1172 q 136 1052 104 1083 q 213 1021 168 1021 "},"İ":{"ha":696,"x_min":35,"x_max":661,"o":"m 349 4 q 449 6 399 4 q 541 19 499 8 q 609 57 583 31 q 635 131 635 83 q 591 219 635 193 q 485 251 547 244 q 491 358 489 300 q 493 482 493 415 q 492 599 493 544 q 486 699 490 653 q 574 717 533 704 q 638 758 614 731 q 661 833 661 786 q 633 915 661 886 q 558 955 604 943 q 457 969 513 967 q 347 972 401 972 q 238 969 293 972 q 137 955 183 967 q 63 915 90 943 q 35 833 35 886 q 85 735 35 763 q 207 699 136 707 q 203 598 204 653 q 201 482 201 543 q 203 358 201 415 q 208 251 204 300 q 107 217 149 243 q 65 131 65 192 q 91 57 65 83 q 158 19 117 31 q 250 6 200 8 q 349 4 300 4 m 347 1018 q 416 1047 388 1018 q 444 1115 444 1076 q 416 1184 444 1156 q 347 1213 388 1213 q 278 1184 307 1213 q 250 1115 250 1156 q 278 1047 250 1076 q 347 1018 307 1018 "},"Ị":{"ha":696,"x_min":35,"x_max":661,"o":"m 349 4 q 449 6 399 4 q 541 19 499 8 q 609 57 583 31 q 635 131 635 83 q 591 219 635 193 q 485 251 547 244 q 491 358 489 300 q 493 482 493 415 q 492 599 493 544 q 486 699 490 653 q 574 717 533 704 q 638 758 614 731 q 661 833 661 786 q 633 915 661 886 q 558 955 604 943 q 457 969 513 967 q 347 972 401 972 q 238 969 293 972 q 137 955 183 967 q 63 915 90 943 q 35 833 35 886 q 85 735 35 763 q 207 699 136 707 q 203 598 204 653 q 201 482 201 543 q 203 358 201 415 q 208 251 204 300 q 107 217 149 243 q 65 131 65 192 q 91 57 65 83 q 158 19 117 31 q 250 6 200 8 q 349 4 300 4 m 347 1018 q 416 1047 388 1018 q 444 1115 444 1076 q 416 1184 444 1156 q 347 1213 388 1213 q 278 1184 307 1213 q 250 1115 250 1156 q 278 1047 250 1076 q 347 1018 307 1018 "},"Ì":{"ha":696,"x_min":35,"x_max":661,"o":"m 349 4 q 449 6 399 4 q 541 19 499 8 q 609 57 583 31 q 635 131 635 83 q 591 219 635 193 q 485 251 547 244 q 491 358 489 300 q 493 482 493 415 q 492 599 493 544 q 486 699 490 653 q 574 717 533 704 q 638 758 614 731 q 661 833 661 786 q 633 915 661 886 q 558 955 604 943 q 457 969 513 967 q 347 972 401 972 q 238 969 293 972 q 137 955 183 967 q 63 915 90 943 q 35 833 35 886 q 85 735 35 763 q 207 699 136 707 q 203 598 204 653 q 201 482 201 543 q 203 358 201 415 q 208 251 204 300 q 107 217 149 243 q 65 131 65 192 q 91 57 65 83 q 158 19 117 31 q 250 6 200 8 q 349 4 300 4 m 394 1019 q 444 1041 426 1019 q 463 1085 463 1063 q 446 1131 463 1104 q 404 1185 429 1158 q 351 1231 379 1213 q 303 1249 324 1249 q 238 1220 260 1249 q 217 1164 215 1192 q 237 1120 217 1144 q 286 1073 257 1096 q 344 1035 315 1050 q 394 1019 374 1019 "},"Ỉ":{"ha":696,"x_min":35,"x_max":661,"o":"m 349 4 q 449 6 399 4 q 541 19 499 8 q 609 57 583 31 q 635 131 635 83 q 591 219 635 193 q 485 251 547 244 q 491 358 489 300 q 493 482 493 415 q 492 599 493 544 q 486 699 490 653 q 574 717 533 704 q 638 758 614 731 q 661 833 661 786 q 633 915 661 886 q 558 955 604 943 q 457 969 513 967 q 347 972 401 972 q 238 969 293 972 q 137 955 183 967 q 63 915 90 943 q 35 833 35 886 q 85 735 35 763 q 207 699 136 707 q 203 598 204 653 q 201 482 201 543 q 203 358 201 415 q 208 251 204 300 q 107 217 149 243 q 65 131 65 192 q 91 57 65 83 q 158 19 117 31 q 250 6 200 8 q 349 4 300 4 m 353 1011 q 413 1026 383 1011 q 463 1069 443 1040 q 483 1143 483 1099 q 441 1239 483 1203 q 326 1275 399 1275 q 281 1268 308 1275 q 234 1245 254 1261 q 214 1201 214 1229 q 234 1155 214 1167 q 279 1143 254 1143 q 317 1142 300 1143 q 335 1125 335 1142 q 323 1108 335 1113 q 299 1095 311 1103 q 286 1064 286 1088 q 307 1024 286 1038 q 353 1011 328 1011 "},"Ȋ":{"ha":696,"x_min":35,"x_max":661,"o":"m 349 4 q 449 6 399 4 q 541 19 499 8 q 609 57 583 31 q 635 131 635 83 q 591 219 635 193 q 485 251 547 244 q 491 358 489 300 q 493 482 493 415 q 492 599 493 544 q 486 699 490 653 q 574 717 533 704 q 638 758 614 731 q 661 833 661 786 q 633 915 661 886 q 558 955 604 943 q 457 969 513 967 q 347 972 401 972 q 238 969 293 972 q 137 955 183 967 q 63 915 90 943 q 35 833 35 886 q 85 735 35 763 q 207 699 136 707 q 203 598 204 653 q 201 482 201 543 q 203 358 201 415 q 208 251 204 300 q 107 217 149 243 q 65 131 65 192 q 91 57 65 83 q 158 19 117 31 q 250 6 200 8 q 349 4 300 4 m 346 1254 q 245 1230 288 1254 q 180 1170 203 1206 q 157 1101 157 1135 q 172 1051 157 1076 q 224 1026 188 1026 q 274 1044 257 1026 q 304 1081 290 1063 q 347 1105 322 1104 q 390 1081 372 1106 q 419 1044 404 1063 q 472 1026 433 1026 q 524 1051 508 1026 q 539 1101 539 1076 q 515 1172 539 1136 q 449 1231 492 1207 q 346 1254 406 1254 "},"Ī":{"ha":696,"x_min":35,"x_max":661,"o":"m 349 4 q 449 6 399 4 q 541 19 499 8 q 609 57 583 31 q 635 131 635 83 q 591 219 635 193 q 485 251 547 244 q 491 358 489 300 q 493 482 493 415 q 492 599 493 544 q 486 699 490 653 q 574 717 533 704 q 638 758 614 731 q 661 833 661 786 q 633 915 661 886 q 558 955 604 943 q 457 969 513 967 q 347 972 401 972 q 238 969 293 972 q 137 955 183 967 q 63 915 90 943 q 35 833 35 886 q 85 735 35 763 q 207 699 136 707 q 203 598 204 653 q 201 482 201 543 q 203 358 201 415 q 208 251 204 300 q 107 217 149 243 q 65 131 65 192 q 91 57 65 83 q 158 19 117 31 q 250 6 200 8 q 349 4 300 4 m 347 1035 q 435 1035 390 1035 q 517 1042 479 1035 q 579 1067 556 1049 q 603 1124 603 1086 q 579 1179 603 1160 q 517 1207 556 1199 q 435 1217 479 1215 q 347 1218 390 1218 q 260 1217 306 1218 q 178 1207 215 1215 q 117 1179 140 1199 q 93 1124 93 1160 q 117 1067 93 1086 q 178 1042 140 1049 q 260 1035 215 1035 q 347 1035 306 1035 "},"Į":{"ha":696,"x_min":35,"x_max":661,"o":"m 349 4 q 449 6 399 4 q 541 19 499 8 q 609 57 583 31 q 635 131 635 83 q 591 219 635 193 q 485 251 547 244 q 491 358 489 300 q 493 482 493 415 q 492 599 493 544 q 486 699 490 653 q 574 717 533 704 q 638 758 614 731 q 661 833 661 786 q 633 915 661 886 q 558 955 604 943 q 457 969 513 967 q 347 972 401 972 q 238 969 293 972 q 137 955 183 967 q 63 915 90 943 q 35 833 35 886 q 85 735 35 763 q 207 699 136 707 q 203 598 204 653 q 201 482 201 543 q 203 358 201 415 q 208 251 204 300 q 107 217 149 243 q 65 131 65 192 q 91 57 65 83 q 158 19 117 31 q 250 6 200 8 q 349 4 300 4 m 344 -308 q 443 -285 414 -308 q 472 -229 472 -262 q 452 -174 472 -190 q 406 -158 432 -158 q 373 -151 390 -158 q 356 -119 356 -144 q 378 -74 356 -93 q 422 -35 400 -54 q 502 46 488 22 q 472 69 517 69 l 350 69 q 294 54 325 69 q 233 10 263 39 q 183 -55 203 -18 q 164 -136 164 -92 q 214 -267 164 -225 q 344 -308 264 -308 "},"Ĩ":{"ha":696,"x_min":35,"x_max":661,"o":"m 349 4 q 449 6 399 4 q 541 19 499 8 q 609 57 583 31 q 635 131 635 83 q 591 219 635 193 q 485 251 547 244 q 491 358 489 300 q 493 482 493 415 q 492 599 493 544 q 486 699 490 653 q 574 717 533 704 q 638 758 614 731 q 661 833 661 786 q 633 915 661 886 q 558 955 604 943 q 457 969 513 967 q 347 972 401 972 q 238 969 293 972 q 137 955 183 967 q 63 915 90 943 q 35 833 35 886 q 85 735 35 763 q 207 699 136 707 q 203 598 204 653 q 201 482 201 543 q 203 358 201 415 q 208 251 204 300 q 107 217 149 243 q 65 131 65 192 q 91 57 65 83 q 158 19 117 31 q 250 6 200 8 q 349 4 300 4 m 174 1021 q 217 1031 204 1021 q 244 1052 229 1042 q 292 1063 258 1063 q 333 1051 317 1063 q 375 1029 349 1040 q 454 1018 401 1018 q 532 1038 497 1018 q 588 1088 567 1058 q 610 1147 610 1118 q 584 1213 610 1190 q 522 1235 558 1235 q 480 1224 493 1235 q 452 1203 467 1214 q 404 1192 438 1192 q 363 1203 379 1192 q 322 1226 347 1215 q 242 1238 296 1238 q 165 1217 200 1238 q 108 1168 129 1197 q 86 1108 86 1139 q 112 1043 86 1065 q 174 1021 138 1021 "},"J":{"ha":944,"x_min":35,"x_max":910,"o":"m 357 0 q 644 119 551 0 q 736 472 736 239 q 735 569 736 525 q 732 650 735 614 q 860 697 810 663 q 910 807 910 732 q 878 899 910 865 q 794 949 847 933 q 673 968 740 964 q 532 972 606 972 q 392 968 460 972 q 269 949 324 964 q 184 899 215 933 q 153 807 153 865 q 188 710 153 744 q 282 661 222 676 q 414 643 342 646 q 414 558 414 606 q 406 365 415 432 q 342 299 397 299 q 297 317 311 299 q 270 360 282 336 q 235 403 258 385 q 163 422 211 422 q 75 386 115 422 q 35 276 35 350 q 75 141 35 204 q 188 39 115 78 q 357 0 260 0 "},"Ĵ":{"ha":944,"x_min":35,"x_max":910,"o":"m 357 0 q 644 119 551 0 q 736 472 736 239 q 735 569 736 525 q 732 650 735 614 q 860 697 810 663 q 910 807 910 732 q 878 899 910 865 q 794 949 847 933 q 673 968 740 964 q 532 972 606 972 q 392 968 460 972 q 269 949 324 964 q 184 899 215 933 q 153 807 153 865 q 188 710 153 744 q 282 661 222 676 q 414 643 342 646 q 414 558 414 606 q 406 365 415 432 q 342 299 397 299 q 297 317 311 299 q 270 360 282 336 q 235 403 258 385 q 163 422 211 422 q 75 386 115 422 q 35 276 35 350 q 75 141 35 204 q 188 39 115 78 q 357 0 260 0 m 451 1024 q 517 1045 486 1024 q 571 1096 549 1067 q 624 1045 593 1067 q 689 1024 654 1024 q 747 1044 726 1024 q 768 1100 768 1065 q 738 1172 768 1135 q 661 1236 707 1210 q 568 1263 615 1263 q 476 1235 521 1263 q 401 1171 431 1208 q 372 1100 372 1133 q 393 1044 372 1065 q 451 1024 414 1024 "},"K":{"ha":886,"x_min":35,"x_max":851,"o":"m 190 0 q 278 26 246 0 q 325 99 310 53 q 345 201 340 144 q 350 319 350 258 q 447 165 394 239 q 560 46 499 92 q 692 0 621 0 q 768 17 732 0 q 827 69 804 33 q 850 164 850 106 q 824 263 850 217 q 753 348 797 308 q 657 420 710 388 q 553 476 604 453 q 708 558 642 508 q 813 670 775 608 q 851 797 851 732 q 809 919 851 869 q 701 968 767 968 q 597 935 649 968 q 500 851 546 903 q 416 743 454 800 q 351 638 378 686 q 351 679 351 664 q 319 897 351 821 q 199 972 286 972 q 83 907 122 972 q 42 742 44 842 q 39 681 40 725 q 37 581 38 638 q 35 472 36 525 q 35 385 35 418 q 38 249 35 317 q 54 124 40 181 q 100 34 68 68 q 190 0 132 0 "},"Ķ":{"ha":886,"x_min":35,"x_max":851,"o":"m 190 0 q 278 26 246 0 q 325 99 310 53 q 345 201 340 144 q 350 319 350 258 q 447 165 394 239 q 560 46 499 92 q 692 0 621 0 q 768 17 732 0 q 827 69 804 33 q 850 164 850 106 q 824 263 850 217 q 753 348 797 308 q 657 420 710 388 q 553 476 604 453 q 708 558 642 508 q 813 670 775 608 q 851 797 851 732 q 809 919 851 869 q 701 968 767 968 q 597 935 649 968 q 500 851 546 903 q 416 743 454 800 q 351 638 378 686 q 351 679 351 664 q 319 897 351 821 q 199 972 286 972 q 83 907 122 972 q 42 742 44 842 q 39 681 40 725 q 37 581 38 638 q 35 472 36 525 q 35 385 35 418 q 38 249 35 317 q 54 124 40 181 q 100 34 68 68 q 190 0 132 0 m 381 -196 q 431 -181 401 -196 q 489 -142 460 -165 q 538 -95 518 -119 q 558 -51 558 -71 q 538 5 560 -24 q 472 33 515 33 q 424 15 451 33 q 371 -30 396 -3 q 329 -84 346 -57 q 313 -131 313 -111 q 331 -174 313 -153 q 381 -196 350 -196 "},"L":{"ha":854,"x_min":35,"x_max":819,"o":"m 421 0 q 563 3 492 0 q 692 23 633 7 q 785 77 750 39 q 819 183 819 115 q 789 276 819 240 q 708 328 758 311 q 599 348 658 346 q 483 342 540 350 q 381 321 425 335 q 419 546 400 426 q 439 769 439 665 q 418 871 439 825 q 358 944 397 917 q 260 972 318 972 q 140 933 185 972 q 72 829 94 894 q 42 683 50 764 q 35 519 35 603 q 38 359 35 435 q 56 231 42 283 q 187 56 88 111 q 421 0 286 0 "},"Ǉ":{"ha":1763,"x_min":35,"x_max":1728,"o":"m 421 0 q 563 3 492 0 q 692 23 633 7 q 785 77 750 39 q 819 183 819 115 q 789 276 819 240 q 708 328 758 311 q 599 348 658 346 q 483 342 540 350 q 381 321 425 335 q 419 546 400 426 q 439 769 439 665 q 418 871 439 825 q 358 944 397 917 q 260 972 318 972 q 140 933 185 972 q 72 829 94 894 q 42 683 50 764 q 35 519 35 603 q 38 359 35 435 q 56 231 42 283 q 187 56 88 111 q 421 0 286 0 m 1175 0 q 1462 119 1369 0 q 1554 472 1554 239 q 1553 569 1554 525 q 1550 650 1553 614 q 1678 697 1628 663 q 1728 807 1728 732 q 1697 899 1728 865 q 1612 949 1665 933 q 1491 968 1558 964 q 1350 972 1424 972 q 1210 968 1278 972 q 1088 949 1142 964 q 1002 899 1033 933 q 971 807 971 865 q 1006 710 971 744 q 1100 661 1040 676 q 1232 643 1160 646 q 1232 558 1232 606 q 1224 365 1233 432 q 1160 299 1215 299 q 1115 317 1129 299 q 1088 360 1100 336 q 1053 403 1076 385 q 981 422 1029 422 q 893 386 933 422 q 853 276 853 350 q 893 141 853 204 q 1006 39 933 78 q 1175 0 1078 0 "},"Ĺ":{"ha":854,"x_min":35,"x_max":819,"o":"m 421 0 q 563 3 492 0 q 692 23 633 7 q 785 77 750 39 q 819 183 819 115 q 789 276 819 240 q 708 328 758 311 q 599 348 658 346 q 483 342 540 350 q 381 321 425 335 q 419 546 400 426 q 439 769 439 665 q 418 871 439 825 q 358 944 397 917 q 260 972 318 972 q 140 933 185 972 q 72 829 94 894 q 42 683 50 764 q 35 519 35 603 q 38 359 35 435 q 56 231 42 283 q 187 56 88 111 q 421 0 286 0 m 242 1014 q 292 1029 263 1014 q 350 1067 321 1044 q 399 1115 379 1090 q 419 1158 419 1139 q 399 1215 421 1186 q 333 1243 376 1243 q 285 1225 313 1243 q 232 1180 257 1207 q 190 1126 207 1153 q 174 1079 174 1099 q 192 1035 174 1057 q 242 1014 211 1014 "},"Ľ":{"ha":854,"x_min":35,"x_max":819,"o":"m 421 0 q 563 3 492 0 q 692 23 633 7 q 785 77 750 39 q 819 183 819 115 q 789 276 819 240 q 708 328 758 311 q 599 348 658 346 q 483 342 540 350 q 381 321 425 335 q 419 546 400 426 q 439 769 439 665 q 418 871 439 825 q 358 944 397 917 q 260 972 318 972 q 140 933 185 972 q 72 829 94 894 q 42 683 50 764 q 35 519 35 603 q 38 359 35 435 q 56 231 42 283 q 187 56 88 111 q 421 0 286 0 m 146 1257 q 88 1237 108 1257 q 67 1181 67 1217 q 96 1110 67 1149 q 170 1045 125 1072 q 263 1018 215 1018 q 356 1044 310 1018 q 432 1108 401 1071 q 463 1181 463 1146 q 442 1237 463 1217 q 383 1257 421 1257 q 318 1235 349 1257 q 265 1185 288 1214 q 212 1235 243 1214 q 146 1257 181 1257 "},"Ļ":{"ha":854,"x_min":35,"x_max":819,"o":"m 421 0 q 563 3 492 0 q 692 23 633 7 q 785 77 750 39 q 819 183 819 115 q 789 276 819 240 q 708 328 758 311 q 599 348 658 346 q 483 342 540 350 q 381 321 425 335 q 419 546 400 426 q 439 769 439 665 q 418 871 439 825 q 358 944 397 917 q 260 972 318 972 q 140 933 185 972 q 72 829 94 894 q 42 683 50 764 q 35 519 35 603 q 38 359 35 435 q 56 231 42 283 q 187 56 88 111 q 421 0 286 0 m 367 -265 q 417 -250 388 -265 q 475 -212 446 -235 q 524 -165 504 -189 q 544 -121 544 -140 q 524 -65 546 -93 q 458 -36 501 -36 q 410 -54 438 -36 q 357 -99 382 -72 q 315 -153 332 -126 q 299 -200 299 -181 q 317 -244 299 -222 q 367 -265 336 -265 "},"Ŀ":{"ha":854,"x_min":35,"x_max":819,"o":"m 421 0 q 563 3 492 0 q 692 23 633 7 q 785 77 750 39 q 819 183 819 115 q 789 276 819 240 q 708 328 758 311 q 599 348 658 346 q 483 342 540 350 q 381 321 425 335 q 419 546 400 426 q 439 769 439 665 q 418 871 439 825 q 358 944 397 917 q 260 972 318 972 q 140 933 185 972 q 72 829 94 894 q 42 683 50 764 q 35 519 35 603 q 38 359 35 435 q 56 231 42 283 q 187 56 88 111 q 421 0 286 0 m 653 446 q 750 487 710 446 q 790 586 790 528 q 750 683 790 643 q 653 724 710 724 q 553 683 594 724 q 513 586 513 643 q 553 487 513 528 q 653 446 594 446 "},"ǈ":{"ha":1224,"x_min":35,"x_max":1189,"o":"m 421 0 q 563 3 492 0 q 692 23 633 7 q 785 77 750 39 q 819 183 819 115 q 789 276 819 240 q 708 328 758 311 q 599 348 658 346 q 483 342 540 350 q 381 321 425 335 q 419 546 400 426 q 439 769 439 665 q 418 871 439 825 q 358 944 397 917 q 260 972 318 972 q 140 933 185 972 q 72 829 94 894 q 42 683 50 764 q 35 519 35 603 q 38 359 35 435 q 56 231 42 283 q 187 56 88 111 q 421 0 286 0 m 1026 674 q 1108 697 1071 674 q 1167 758 1144 719 q 1189 843 1189 796 q 1167 928 1189 890 q 1108 988 1144 965 q 1026 1011 1071 1011 q 944 988 981 1011 q 885 928 907 965 q 864 843 864 890 q 911 723 864 772 q 1026 674 958 674 m 885 -240 q 1025 -205 964 -240 q 1119 -110 1086 -169 q 1159 15 1151 -53 q 1167 183 1167 82 q 1161 394 1167 307 q 1127 528 1156 482 q 1029 574 1099 574 q 935 528 960 574 q 908 396 910 482 q 906 189 906 310 q 903 73 906 118 q 885 6 901 28 q 828 -17 869 -17 q 787 -28 813 -17 q 741 -63 761 -39 q 721 -129 721 -87 q 765 -212 721 -183 q 885 -240 808 -240 "},"Ł":{"ha":1010,"x_min":19,"x_max":975,"o":"m 576 0 q 718 3 647 0 q 847 23 789 7 q 940 77 906 39 q 975 183 975 115 q 944 276 975 240 q 864 328 914 311 q 755 348 814 346 q 638 342 696 350 q 536 321 581 335 q 551 404 543 361 q 567 492 560 447 q 747 608 696 554 q 771 731 797 661 q 708 792 750 781 q 594 782 665 803 q 544 917 590 861 q 415 972 499 972 q 308 942 350 972 q 241 860 265 913 q 206 742 217 808 q 192 604 194 676 q 56 504 93 551 q 44 396 19 457 q 100 337 64 350 q 194 338 136 324 q 201 280 197 307 q 211 231 206 253 q 342 56 243 111 q 576 0 442 0 "},"M":{"ha":1151,"x_min":35,"x_max":1117,"o":"m 572 0 q 656 26 624 0 q 697 90 688 51 q 710 178 708 129 q 713 276 713 226 q 715 366 713 325 q 724 432 717 407 q 751 457 732 457 q 790 434 779 457 q 800 373 800 411 q 794 290 800 335 q 783 202 789 246 q 778 125 778 158 q 810 28 778 56 q 897 0 842 0 q 989 42 949 0 q 1058 152 1029 85 q 1101 298 1086 219 q 1117 447 1117 376 q 1078 713 1117 599 q 965 893 1039 828 q 785 958 890 958 q 678 930 721 958 q 610 858 635 901 q 575 771 585 815 q 540 858 565 815 q 471 930 514 901 q 363 958 428 958 q 218 918 279 958 q 116 810 157 878 q 55 656 75 742 q 35 478 35 569 q 49 319 35 403 q 90 165 63 236 q 158 48 117 93 q 253 3 199 3 q 338 29 307 3 q 369 125 369 56 q 364 202 369 158 q 353 290 358 246 q 349 373 349 335 q 360 434 349 411 q 399 457 371 457 q 425 432 418 457 q 433 365 432 407 q 434 274 435 324 q 436 177 433 225 q 450 90 439 129 q 492 26 461 51 q 572 0 524 0 "},"N":{"ha":990,"x_min":35,"x_max":956,"o":"m 224 0 q 315 31 283 0 q 360 119 347 63 q 375 256 374 176 q 375 432 376 336 q 433 279 406 356 q 494 140 461 203 q 569 38 526 76 q 671 0 611 0 q 785 35 738 0 q 867 126 833 69 q 919 251 900 183 q 947 388 939 319 q 956 513 956 456 q 948 663 956 583 q 919 812 940 742 q 859 926 899 882 q 754 971 819 971 q 636 913 678 971 q 581 756 594 854 q 574 539 568 658 q 511 704 540 626 q 450 842 482 782 q 378 937 418 903 q 286 971 339 971 q 161 926 210 971 q 85 812 113 882 q 46 663 57 742 q 35 513 35 583 q 40 388 35 457 q 59 251 46 319 q 94 126 72 183 q 148 35 115 69 q 224 0 181 0 "},"Ǌ":{"ha":1924,"x_min":35,"x_max":1889,"o":"m 224 0 q 315 31 283 0 q 360 119 347 63 q 375 256 374 176 q 375 432 376 336 q 433 279 406 356 q 494 140 461 203 q 569 38 526 76 q 671 0 611 0 q 785 35 738 0 q 867 126 833 69 q 919 251 900 183 q 947 388 939 319 q 956 513 956 456 q 948 663 956 583 q 919 812 940 742 q 859 926 899 882 q 754 971 819 971 q 636 913 678 971 q 581 756 594 854 q 574 539 568 658 q 511 704 540 626 q 450 842 482 782 q 378 937 418 903 q 286 971 339 971 q 161 926 210 971 q 85 812 113 882 q 46 663 57 742 q 35 513 35 583 q 40 388 35 457 q 59 251 46 319 q 94 126 72 183 q 148 35 115 69 q 224 0 181 0 m 1336 0 q 1623 119 1531 0 q 1715 472 1715 239 q 1715 569 1715 525 q 1711 650 1714 614 q 1839 697 1789 663 q 1889 807 1889 732 q 1858 899 1889 865 q 1773 949 1826 933 q 1652 968 1719 964 q 1511 972 1585 972 q 1371 968 1439 972 q 1249 949 1303 964 q 1163 899 1194 933 q 1132 807 1132 865 q 1167 710 1132 744 q 1261 661 1201 676 q 1393 643 1321 646 q 1393 558 1393 606 q 1385 365 1394 432 q 1321 299 1376 299 q 1276 317 1290 299 q 1249 360 1261 336 q 1214 403 1238 385 q 1142 422 1190 422 q 1054 386 1094 422 q 1014 276 1014 350 q 1054 141 1014 204 q 1167 39 1094 78 q 1336 0 1239 0 "},"Ń":{"ha":1026,"x_min":35,"x_max":956,"o":"m 224 0 q 315 31 283 0 q 360 119 347 63 q 375 256 374 176 q 375 432 376 336 q 433 279 406 356 q 494 140 461 203 q 569 38 526 76 q 671 0 611 0 q 785 35 738 0 q 867 126 833 69 q 919 251 900 183 q 947 388 939 319 q 956 513 956 456 q 948 663 956 583 q 919 812 940 742 q 859 926 899 882 q 754 971 819 971 q 636 913 678 971 q 581 756 594 854 q 574 539 568 658 q 511 704 540 626 q 450 842 482 782 q 378 937 418 903 q 286 971 339 971 q 161 926 210 971 q 85 812 113 882 q 46 663 57 742 q 35 513 35 583 q 40 388 35 457 q 59 251 46 319 q 94 126 72 183 q 148 35 115 69 q 224 0 181 0 m 511 964 q 561 979 532 964 q 619 1017 590 994 q 669 1065 649 1040 q 689 1108 689 1089 q 668 1165 690 1136 q 603 1193 646 1193 q 554 1175 582 1193 q 501 1130 526 1157 q 460 1076 476 1103 q 443 1029 443 1049 q 462 985 443 1007 q 511 964 481 964 "},"Ň":{"ha":1026,"x_min":35,"x_max":956,"o":"m 224 0 q 315 31 283 0 q 360 119 347 63 q 375 256 374 176 q 375 432 376 336 q 433 279 406 356 q 494 140 461 203 q 569 38 526 76 q 671 0 611 0 q 785 35 738 0 q 867 126 833 69 q 919 251 900 183 q 947 388 939 319 q 956 513 956 456 q 948 663 956 583 q 919 812 940 742 q 859 926 899 882 q 754 971 819 971 q 636 913 678 971 q 581 756 594 854 q 574 539 568 658 q 511 704 540 626 q 450 842 482 782 q 378 937 418 903 q 286 971 339 971 q 161 926 210 971 q 85 812 113 882 q 46 663 57 742 q 35 513 35 583 q 40 388 35 457 q 59 251 46 319 q 94 126 72 183 q 148 35 115 69 q 224 0 181 0 m 408 1197 q 350 1177 371 1197 q 329 1121 329 1157 q 358 1051 329 1089 q 433 985 388 1013 q 525 958 478 958 q 618 985 572 958 q 694 1049 664 1011 q 725 1121 725 1086 q 704 1177 725 1157 q 646 1197 683 1197 q 581 1176 611 1197 q 528 1125 550 1154 q 474 1176 506 1154 q 408 1197 443 1197 "},"Ņ":{"ha":1026,"x_min":35,"x_max":956,"o":"m 224 0 q 315 31 283 0 q 360 119 347 63 q 375 256 374 176 q 375 432 376 336 q 433 279 406 356 q 494 140 461 203 q 569 38 526 76 q 671 0 611 0 q 785 35 738 0 q 867 126 833 69 q 919 251 900 183 q 947 388 939 319 q 956 513 956 456 q 948 663 956 583 q 919 812 940 742 q 859 926 899 882 q 754 971 819 971 q 636 913 678 971 q 581 756 594 854 q 574 539 568 658 q 511 704 540 626 q 450 842 482 782 q 378 937 418 903 q 286 971 339 971 q 161 926 210 971 q 85 812 113 882 q 46 663 57 742 q 35 513 35 583 q 40 388 35 457 q 59 251 46 319 q 94 126 72 183 q 148 35 115 69 q 224 0 181 0 m 436 -224 q 486 -208 457 -224 q 544 -170 515 -193 q 594 -123 574 -147 q 614 -79 614 -99 q 593 -23 615 -51 q 528 6 571 6 q 479 -12 507 6 q 426 -58 451 -31 q 385 -112 401 -85 q 368 -158 368 -139 q 387 -202 368 -181 q 436 -224 406 -224 "},"Ŋ":{"ha":1026,"x_min":35,"x_max":992,"o":"m 35 513 q 41 388 35 457 q 61 251 47 319 q 99 126 75 183 q 159 35 124 69 q 244 0 194 0 q 327 31 297 0 q 369 113 357 63 q 383 224 382 164 q 381 342 385 283 q 374 446 376 400 q 451 272 413 354 q 530 128 490 190 q 609 31 569 65 q 689 0 649 -4 q 663 -49 683 -35 q 615 -64 643 -62 q 554 -65 586 -65 q 483 -84 518 -65 q 447 -156 447 -103 q 496 -243 447 -214 q 604 -272 544 -272 q 818 -199 731 -272 q 944 -1 906 -126 q 985 237 978 106 q 992 513 992 368 q 987 632 992 569 q 969 755 982 694 q 931 864 956 815 q 866 942 906 913 q 768 971 826 971 q 669 931 704 971 q 619 821 633 890 q 606 663 606 751 q 610 539 606 604 q 544 704 575 626 q 479 842 514 782 q 401 937 444 903 q 296 971 357 971 q 166 926 217 971 q 87 812 115 882 q 47 663 58 742 q 35 513 35 583 "},"ǋ":{"ha":1424,"x_min":35,"x_max":1389,"o":"m 224 0 q 315 31 283 0 q 360 119 347 63 q 375 256 374 176 q 375 432 376 336 q 433 279 406 356 q 494 140 461 203 q 569 38 526 76 q 671 0 611 0 q 785 35 738 0 q 867 126 833 69 q 919 251 900 183 q 947 388 939 319 q 956 513 956 456 q 948 663 956 583 q 919 812 940 742 q 859 926 899 882 q 754 971 819 971 q 636 913 678 971 q 581 756 594 854 q 574 539 568 658 q 511 704 540 626 q 450 842 482 782 q 378 937 418 903 q 286 971 339 971 q 161 926 210 971 q 85 812 113 882 q 46 663 57 742 q 35 513 35 583 q 40 388 35 457 q 59 251 46 319 q 94 126 72 183 q 148 35 115 69 q 224 0 181 0 m 1226 674 q 1308 697 1271 674 q 1367 758 1344 719 q 1389 843 1389 796 q 1367 928 1389 890 q 1308 988 1344 965 q 1226 1011 1271 1011 q 1144 988 1181 1011 q 1085 928 1107 965 q 1064 843 1064 890 q 1111 723 1064 772 q 1226 674 1158 674 m 1085 -240 q 1225 -205 1164 -240 q 1319 -110 1286 -169 q 1359 15 1351 -53 q 1367 183 1367 82 q 1361 394 1367 307 q 1327 528 1356 482 q 1229 574 1299 574 q 1135 528 1160 574 q 1108 396 1110 482 q 1106 189 1106 310 q 1103 73 1106 118 q 1085 6 1101 28 q 1028 -17 1069 -17 q 987 -28 1013 -17 q 941 -63 961 -39 q 921 -129 921 -87 q 965 -212 921 -183 q 1085 -240 1008 -240 "},"Ñ":{"ha":1026,"x_min":35,"x_max":956,"o":"m 224 0 q 315 31 283 0 q 360 119 347 63 q 375 256 374 176 q 375 432 376 336 q 433 279 406 356 q 494 140 461 203 q 569 38 526 76 q 671 0 611 0 q 785 35 738 0 q 867 126 833 69 q 919 251 900 183 q 947 388 939 319 q 956 513 956 456 q 948 663 956 583 q 919 812 940 742 q 859 926 899 882 q 754 971 819 971 q 636 913 678 971 q 581 756 594 854 q 574 539 568 658 q 511 704 540 626 q 450 842 482 782 q 378 937 418 903 q 286 971 339 971 q 161 926 210 971 q 85 812 113 882 q 46 663 57 742 q 35 513 35 583 q 40 388 35 457 q 59 251 46 319 q 94 126 72 183 q 148 35 115 69 q 224 0 181 0 m 353 1021 q 396 1031 383 1021 q 423 1052 408 1042 q 471 1063 438 1063 q 512 1051 496 1063 q 554 1029 528 1040 q 633 1018 581 1018 q 711 1038 676 1018 q 767 1088 746 1058 q 789 1147 789 1118 q 763 1213 789 1190 q 701 1235 738 1235 q 659 1224 672 1235 q 631 1203 646 1214 q 583 1192 617 1192 q 542 1203 558 1192 q 501 1226 526 1215 q 421 1238 475 1238 q 344 1217 379 1238 q 287 1168 308 1197 q 265 1108 265 1139 q 291 1043 265 1065 q 353 1021 317 1021 "},"O":{"ha":1017,"x_min":33,"x_max":985,"o":"m 508 -1 q 694 40 607 1 q 846 144 781 78 q 948 297 911 210 q 982 485 985 385 q 942 678 981 589 q 839 833 904 767 q 689 935 774 899 q 508 969 604 971 q 322 931 408 969 q 171 826 236 893 q 69 672 106 760 q 35 485 33 585 q 75 292 38 381 q 178 136 113 203 q 328 33 243 69 q 508 -1 413 -3 m 513 269 q 406 314 451 269 q 360 435 360 358 q 406 557 360 513 q 513 601 451 601 q 619 557 574 601 q 665 435 665 513 q 620 314 667 358 q 513 269 574 269 "},"Ó":{"ha":1017,"x_min":33,"x_max":985,"o":"m 508 -1 q 694 40 607 1 q 846 144 781 78 q 948 297 911 210 q 982 485 985 385 q 942 678 981 589 q 839 833 904 767 q 689 935 774 899 q 508 969 604 971 q 322 931 408 969 q 171 826 236 893 q 69 672 106 760 q 35 485 33 585 q 75 292 38 381 q 178 136 113 203 q 328 33 243 69 q 508 -1 413 -3 m 513 269 q 406 314 451 269 q 360 435 360 358 q 406 557 360 513 q 513 601 451 601 q 619 557 574 601 q 665 435 665 513 q 620 314 667 358 q 513 269 574 269 m 460 1006 q 510 1021 481 1006 q 568 1059 539 1036 q 617 1106 597 1082 q 638 1150 638 1131 q 617 1206 639 1178 q 551 1235 594 1235 q 503 1217 531 1235 q 450 1172 475 1199 q 408 1117 425 1144 q 392 1071 392 1090 q 410 1027 392 1049 q 460 1006 429 1006 "},"Ŏ":{"ha":1017,"x_min":33,"x_max":985,"o":"m 508 -1 q 694 40 607 1 q 846 144 781 78 q 948 297 911 210 q 982 485 985 385 q 942 678 981 589 q 839 833 904 767 q 689 935 774 899 q 508 969 604 971 q 322 931 408 969 q 171 826 236 893 q 69 672 106 760 q 35 485 33 585 q 75 292 38 381 q 178 136 113 203 q 328 33 243 69 q 508 -1 413 -3 m 513 269 q 406 314 451 269 q 360 435 360 358 q 406 557 360 513 q 513 601 451 601 q 619 557 574 601 q 665 435 665 513 q 620 314 667 358 q 513 269 574 269 m 507 1014 q 610 1038 567 1014 q 676 1097 653 1061 q 700 1167 700 1132 q 685 1217 700 1192 q 633 1242 669 1242 q 580 1224 594 1242 q 551 1188 565 1207 q 508 1163 533 1163 q 465 1188 483 1164 q 435 1224 451 1207 q 385 1242 418 1242 q 333 1217 349 1242 q 318 1167 318 1192 q 341 1099 318 1135 q 406 1038 364 1063 q 507 1014 449 1014 "},"Ô":{"ha":1017,"x_min":33,"x_max":985,"o":"m 508 -1 q 694 40 607 1 q 846 144 781 78 q 948 297 911 210 q 982 485 985 385 q 942 678 981 589 q 839 833 904 767 q 689 935 774 899 q 508 969 604 971 q 322 931 408 969 q 171 826 236 893 q 69 672 106 760 q 35 485 33 585 q 75 292 38 381 q 178 136 113 203 q 328 33 243 69 q 508 -1 413 -3 m 513 269 q 406 314 451 269 q 360 435 360 358 q 406 557 360 513 q 513 601 451 601 q 619 557 574 601 q 665 435 665 513 q 620 314 667 358 q 513 269 574 269 m 390 1010 q 456 1031 425 1010 q 510 1082 488 1053 q 563 1031 532 1053 q 628 1010 593 1010 q 686 1031 665 1010 q 707 1086 707 1051 q 676 1158 707 1121 q 600 1222 646 1196 q 507 1249 554 1249 q 415 1222 460 1249 q 340 1157 369 1194 q 311 1086 311 1119 q 332 1031 311 1051 q 390 1010 353 1010 "},"Ố":{"ha":1017,"x_min":33,"x_max":985,"o":"m 671 1206 q 715 1219 689 1206 q 765 1251 740 1232 q 807 1292 790 1271 q 825 1331 824 1314 q 806 1379 825 1354 q 750 1404 788 1404 q 708 1388 732 1404 q 663 1349 685 1372 q 626 1302 640 1326 q 613 1263 613 1278 q 628 1224 613 1242 q 671 1206 644 1206 m 390 996 q 456 1017 425 996 q 510 1068 488 1039 q 563 1017 532 1039 q 628 996 593 996 q 686 1017 665 996 q 707 1072 707 1038 q 676 1144 707 1107 q 600 1208 646 1182 q 507 1235 554 1235 q 415 1208 460 1235 q 340 1143 369 1181 q 311 1072 311 1106 q 332 1017 311 1038 q 390 996 353 996 m 508 -1 q 694 40 607 1 q 846 144 781 78 q 948 297 911 210 q 982 485 985 385 q 942 678 981 589 q 839 833 904 767 q 689 935 774 899 q 508 969 604 971 q 322 931 408 969 q 171 826 236 893 q 69 672 106 760 q 35 485 33 585 q 75 292 38 381 q 178 136 113 203 q 328 33 243 69 q 508 -1 413 -3 m 513 269 q 406 314 451 269 q 360 435 360 358 q 406 557 360 513 q 513 601 451 601 q 619 557 574 601 q 665 435 665 513 q 620 314 667 358 q 513 269 574 269 "},"Ộ":{"ha":1017,"x_min":33,"x_max":985,"o":"m 508 -1 q 694 40 607 1 q 846 144 781 78 q 948 297 911 210 q 982 485 985 385 q 942 678 981 589 q 839 833 904 767 q 689 935 774 899 q 508 969 604 971 q 322 931 408 969 q 171 826 236 893 q 69 672 106 760 q 35 485 33 585 q 75 292 38 381 q 178 136 113 203 q 328 33 243 69 q 508 -1 413 -3 m 513 269 q 406 314 451 269 q 360 435 360 358 q 406 557 360 513 q 513 601 451 601 q 619 557 574 601 q 665 435 665 513 q 620 314 667 358 q 513 269 574 269 m 508 -247 q 577 -218 549 -247 q 606 -150 606 -189 q 577 -81 606 -110 q 508 -53 549 -53 q 440 -81 468 -53 q 411 -150 411 -110 q 440 -218 411 -189 q 508 -247 468 -247 m 390 996 q 456 1017 425 996 q 510 1068 488 1039 q 563 1017 532 1039 q 628 996 593 996 q 686 1017 665 996 q 707 1072 707 1038 q 676 1144 707 1107 q 600 1208 646 1182 q 507 1235 554 1235 q 415 1208 460 1235 q 340 1143 369 1181 q 311 1072 311 1106 q 332 1017 311 1038 q 390 996 353 996 "},"Ồ":{"ha":1017,"x_min":33,"x_max":985,"o":"m 703 1206 q 749 1224 732 1206 q 765 1264 765 1243 q 750 1306 765 1281 q 712 1356 735 1331 q 664 1397 689 1381 q 619 1413 639 1413 q 560 1387 581 1413 q 542 1336 540 1361 q 560 1296 542 1318 q 604 1253 578 1274 q 658 1219 631 1232 q 703 1206 685 1206 m 390 996 q 456 1017 425 996 q 510 1068 488 1039 q 563 1017 532 1039 q 628 996 593 996 q 686 1017 665 996 q 707 1072 707 1038 q 676 1144 707 1107 q 600 1208 646 1182 q 507 1235 554 1235 q 415 1208 460 1235 q 340 1143 369 1181 q 311 1072 311 1106 q 332 1017 311 1038 q 390 996 353 996 m 508 -1 q 694 40 607 1 q 846 144 781 78 q 948 297 911 210 q 982 485 985 385 q 942 678 981 589 q 839 833 904 767 q 689 935 774 899 q 508 969 604 971 q 322 931 408 969 q 171 826 236 893 q 69 672 106 760 q 35 485 33 585 q 75 292 38 381 q 178 136 113 203 q 328 33 243 69 q 508 -1 413 -3 m 513 269 q 406 314 451 269 q 360 435 360 358 q 406 557 360 513 q 513 601 451 601 q 619 557 574 601 q 665 435 665 513 q 620 314 667 358 q 513 269 574 269 "},"Ổ":{"ha":1017,"x_min":33,"x_max":985,"o":"m 693 1193 q 772 1223 733 1193 q 811 1313 811 1253 q 773 1399 811 1367 q 669 1432 735 1432 q 628 1426 653 1432 q 585 1405 604 1419 q 567 1365 567 1390 q 585 1324 567 1335 q 626 1313 604 1313 q 661 1312 646 1313 q 676 1296 676 1311 q 665 1281 676 1285 q 644 1269 654 1276 q 633 1240 633 1263 q 652 1205 633 1217 q 693 1193 671 1193 m 390 996 q 456 1017 425 996 q 510 1068 488 1039 q 563 1017 532 1039 q 628 996 593 996 q 686 1017 665 996 q 707 1072 707 1038 q 676 1144 707 1107 q 600 1208 646 1182 q 507 1235 554 1235 q 415 1208 460 1235 q 340 1143 369 1181 q 311 1072 311 1106 q 332 1017 311 1038 q 390 996 353 996 m 508 -1 q 694 40 607 1 q 846 144 781 78 q 948 297 911 210 q 982 485 985 385 q 942 678 981 589 q 839 833 904 767 q 689 935 774 899 q 508 969 604 971 q 322 931 408 969 q 171 826 236 893 q 69 672 106 760 q 35 485 33 585 q 75 292 38 381 q 178 136 113 203 q 328 33 243 69 q 508 -1 413 -3 m 513 269 q 406 314 451 269 q 360 435 360 358 q 406 557 360 513 q 513 601 451 601 q 619 557 574 601 q 665 435 665 513 q 620 314 667 358 q 513 269 574 269 "},"Ỗ":{"ha":1017,"x_min":33,"x_max":985,"o":"m 350 1257 q 390 1266 378 1257 q 414 1285 401 1275 q 457 1294 426 1294 q 494 1284 479 1294 q 533 1264 510 1274 q 604 1254 556 1254 q 675 1272 643 1254 q 726 1317 707 1290 q 746 1371 746 1344 q 722 1430 746 1410 q 667 1450 699 1450 q 627 1440 639 1450 q 602 1421 615 1431 q 560 1411 589 1411 q 522 1422 536 1411 q 484 1442 507 1432 q 411 1453 461 1453 q 342 1435 374 1453 q 290 1390 310 1417 q 271 1336 271 1363 q 294 1276 271 1296 q 350 1257 317 1257 m 390 996 q 456 1017 425 996 q 510 1068 488 1039 q 563 1017 532 1039 q 628 996 593 996 q 686 1017 665 996 q 707 1072 707 1038 q 676 1144 707 1107 q 600 1208 646 1182 q 507 1235 554 1235 q 415 1208 460 1235 q 340 1143 369 1181 q 311 1072 311 1106 q 332 1017 311 1038 q 390 996 353 996 m 508 -1 q 694 40 607 1 q 846 144 781 78 q 948 297 911 210 q 982 485 985 385 q 942 678 981 589 q 839 833 904 767 q 689 935 774 899 q 508 969 604 971 q 322 931 408 969 q 171 826 236 893 q 69 672 106 760 q 35 485 33 585 q 75 292 38 381 q 178 136 113 203 q 328 33 243 69 q 508 -1 413 -3 m 513 269 q 406 314 451 269 q 360 435 360 358 q 406 557 360 513 q 513 601 451 601 q 619 557 574 601 q 665 435 665 513 q 620 314 667 358 q 513 269 574 269 "},"Ȍ":{"ha":1017,"x_min":33,"x_max":985,"o":"m 508 -1 q 694 40 607 1 q 846 144 781 78 q 948 297 911 210 q 982 485 985 385 q 942 678 981 589 q 839 833 904 767 q 689 935 774 899 q 508 969 604 971 q 322 931 408 969 q 171 826 236 893 q 69 672 106 760 q 35 485 33 585 q 75 292 38 381 q 178 136 113 203 q 328 33 243 69 q 508 -1 413 -3 m 513 269 q 406 314 451 269 q 360 435 360 358 q 406 557 360 513 q 513 601 451 601 q 619 557 574 601 q 665 435 665 513 q 620 314 667 358 q 513 269 574 269 m 657 1007 q 707 1028 689 1007 q 725 1072 725 1050 q 713 1119 725 1092 q 681 1173 700 1146 q 638 1218 661 1200 q 593 1236 614 1236 q 528 1207 550 1236 q 507 1150 506 1178 q 523 1106 507 1131 q 563 1059 539 1082 q 611 1022 586 1036 q 657 1007 636 1007 m 429 1006 q 479 1027 461 1006 q 497 1071 497 1049 q 483 1117 497 1090 q 446 1172 468 1144 q 398 1217 424 1199 q 351 1235 372 1235 q 286 1206 308 1235 q 265 1150 264 1178 q 283 1106 265 1131 q 328 1059 301 1082 q 381 1021 354 1036 q 429 1006 408 1006 "},"Ö":{"ha":1017,"x_min":33,"x_max":985,"o":"m 508 -1 q 694 40 607 1 q 846 144 781 78 q 948 297 911 210 q 982 485 985 385 q 942 678 981 589 q 839 833 904 767 q 689 935 774 899 q 508 969 604 971 q 322 931 408 969 q 171 826 236 893 q 69 672 106 760 q 35 485 33 585 q 75 292 38 381 q 178 136 113 203 q 328 33 243 69 q 508 -1 413 -3 m 513 269 q 406 314 451 269 q 360 435 360 358 q 406 557 360 513 q 513 601 451 601 q 619 557 574 601 q 665 435 665 513 q 620 314 667 358 q 513 269 574 269 m 646 1008 q 722 1040 690 1008 q 753 1115 753 1072 q 722 1191 753 1160 q 646 1222 690 1222 q 570 1191 601 1222 q 539 1115 539 1160 q 570 1040 539 1072 q 646 1008 601 1008 m 374 1007 q 449 1038 418 1007 q 479 1114 479 1069 q 449 1190 479 1158 q 374 1221 418 1221 q 297 1190 329 1221 q 265 1114 265 1158 q 297 1038 265 1069 q 374 1007 329 1007 "},"Ȫ":{"ha":1017,"x_min":33,"x_max":985,"o":"m 508 -1 q 694 40 607 1 q 846 144 781 78 q 948 297 911 210 q 982 485 985 385 q 942 678 981 589 q 839 833 904 767 q 689 935 774 899 q 508 969 604 971 q 322 931 408 969 q 171 826 236 893 q 69 672 106 760 q 35 485 33 585 q 75 292 38 381 q 178 136 113 203 q 328 33 243 69 q 508 -1 413 -3 m 513 269 q 406 314 451 269 q 360 435 360 358 q 406 557 360 513 q 513 601 451 601 q 619 557 574 601 q 665 435 665 513 q 620 314 667 358 q 513 269 574 269 m 646 1008 q 722 1040 690 1008 q 753 1115 753 1072 q 722 1191 753 1160 q 646 1222 690 1222 q 570 1191 601 1222 q 539 1115 539 1160 q 570 1040 539 1072 q 646 1008 601 1008 m 374 1007 q 449 1038 418 1007 q 479 1114 479 1069 q 449 1190 479 1158 q 374 1221 418 1221 q 297 1190 329 1221 q 265 1114 265 1158 q 297 1038 265 1069 q 374 1007 329 1007 m 508 1258 q 596 1258 551 1258 q 678 1265 640 1258 q 740 1291 717 1272 q 764 1347 764 1310 q 740 1403 764 1383 q 678 1431 717 1422 q 596 1440 640 1439 q 508 1442 551 1442 q 422 1440 467 1442 q 339 1431 376 1439 q 278 1403 301 1422 q 254 1347 254 1383 q 278 1291 254 1310 q 339 1265 301 1272 q 422 1258 376 1258 q 508 1258 467 1258 "},"Ȱ":{"ha":1017,"x_min":33,"x_max":985,"o":"m 508 -1 q 694 40 607 1 q 846 144 781 78 q 948 297 911 210 q 982 485 985 385 q 942 678 981 589 q 839 833 904 767 q 689 935 774 899 q 508 969 604 971 q 322 931 408 969 q 171 826 236 893 q 69 672 106 760 q 35 485 33 585 q 75 292 38 381 q 178 136 113 203 q 328 33 243 69 q 508 -1 413 -3 m 513 269 q 406 314 451 269 q 360 435 360 358 q 406 557 360 513 q 513 601 451 601 q 619 557 574 601 q 665 435 665 513 q 620 314 667 358 q 513 269 574 269 m 508 1018 q 577 1047 549 1018 q 606 1115 606 1076 q 577 1184 606 1156 q 508 1213 549 1213 q 440 1184 468 1213 q 411 1115 411 1156 q 440 1047 411 1076 q 508 1018 468 1018 m 508 1258 q 596 1258 551 1258 q 678 1265 640 1258 q 740 1291 717 1272 q 764 1347 764 1310 q 740 1403 764 1383 q 678 1431 717 1422 q 596 1440 640 1439 q 508 1442 551 1442 q 422 1440 467 1442 q 339 1431 376 1439 q 278 1403 301 1422 q 254 1347 254 1383 q 278 1291 254 1310 q 339 1265 301 1272 q 422 1258 376 1258 q 508 1258 467 1258 "},"Ọ":{"ha":1017,"x_min":33,"x_max":985,"o":"m 508 -1 q 694 40 607 1 q 846 144 781 78 q 948 297 911 210 q 982 485 985 385 q 942 678 981 589 q 839 833 904 767 q 689 935 774 899 q 508 969 604 971 q 322 931 408 969 q 171 826 236 893 q 69 672 106 760 q 35 485 33 585 q 75 292 38 381 q 178 136 113 203 q 328 33 243 69 q 508 -1 413 -3 m 513 269 q 406 314 451 269 q 360 435 360 358 q 406 557 360 513 q 513 601 451 601 q 619 557 574 601 q 665 435 665 513 q 620 314 667 358 q 513 269 574 269 m 508 1018 q 577 1047 549 1018 q 606 1115 606 1076 q 577 1184 606 1156 q 508 1213 549 1213 q 440 1184 468 1213 q 411 1115 411 1156 q 440 1047 411 1076 q 508 1018 468 1018 "},"Ò":{"ha":1017,"x_min":33,"x_max":985,"o":"m 508 -1 q 694 40 607 1 q 846 144 781 78 q 948 297 911 210 q 982 485 985 385 q 942 678 981 589 q 839 833 904 767 q 689 935 774 899 q 508 969 604 971 q 322 931 408 969 q 171 826 236 893 q 69 672 106 760 q 35 485 33 585 q 75 292 38 381 q 178 136 113 203 q 328 33 243 69 q 508 -1 413 -3 m 513 269 q 406 314 451 269 q 360 435 360 358 q 406 557 360 513 q 513 601 451 601 q 619 557 574 601 q 665 435 665 513 q 620 314 667 358 q 513 269 574 269 m 569 1006 q 619 1027 601 1006 q 638 1071 638 1049 q 621 1117 638 1090 q 579 1172 604 1144 q 526 1217 554 1199 q 478 1235 499 1235 q 413 1206 435 1235 q 392 1150 390 1178 q 412 1106 392 1131 q 461 1059 432 1082 q 519 1021 490 1036 q 569 1006 549 1006 "},"Ỏ":{"ha":1017,"x_min":33,"x_max":985,"o":"m 508 -1 q 694 40 607 1 q 846 144 781 78 q 948 297 911 210 q 982 485 985 385 q 942 678 981 589 q 839 833 904 767 q 689 935 774 899 q 508 969 604 971 q 322 931 408 969 q 171 826 236 893 q 69 672 106 760 q 35 485 33 585 q 75 292 38 381 q 178 136 113 203 q 328 33 243 69 q 508 -1 413 -3 m 513 269 q 406 314 451 269 q 360 435 360 358 q 406 557 360 513 q 513 601 451 601 q 619 557 574 601 q 665 435 665 513 q 620 314 667 358 q 513 269 574 269 m 513 1006 q 573 1020 543 1006 q 623 1064 603 1035 q 643 1138 643 1093 q 601 1233 643 1197 q 486 1269 558 1269 q 441 1263 468 1269 q 394 1240 414 1256 q 374 1196 374 1224 q 394 1149 374 1161 q 439 1138 414 1138 q 477 1137 460 1138 q 494 1119 494 1136 q 483 1102 494 1107 q 458 1090 471 1097 q 446 1058 446 1082 q 467 1019 446 1032 q 513 1006 488 1006 "},"Ơ":{"ha":1017,"x_min":33,"x_max":985,"o":"m 508 -1 q 694 40 607 1 q 846 144 781 78 q 948 297 911 210 q 982 485 985 385 q 942 678 981 589 q 839 833 904 767 q 689 935 774 899 q 508 969 604 971 q 322 931 408 969 q 171 826 236 893 q 69 672 106 760 q 35 485 33 585 q 75 292 38 381 q 178 136 113 203 q 328 33 243 69 q 508 -1 413 -3 m 513 269 q 406 314 451 269 q 360 435 360 358 q 406 557 360 513 q 513 601 451 601 q 619 557 574 601 q 665 435 665 513 q 620 314 667 358 q 513 269 574 269 m 744 786 q 858 814 811 786 q 928 885 904 842 q 953 978 953 929 q 952 1032 953 1001 q 944 1092 951 1063 q 918 1140 936 1121 q 867 1158 900 1158 q 808 1140 829 1158 q 780 1096 788 1122 q 772 1044 772 1069 q 756 987 772 1001 q 706 972 739 972 q 628 968 674 971 q 556 942 578 967 q 533 875 533 917 q 590 806 533 826 q 744 786 647 786 "},"Ớ":{"ha":1017,"x_min":33,"x_max":985,"o":"m 508 -1 q 694 40 607 1 q 846 144 781 78 q 948 297 911 210 q 982 485 985 385 q 942 678 981 589 q 839 833 904 767 q 689 935 774 899 q 508 969 604 971 q 322 931 408 969 q 171 826 236 893 q 69 672 106 760 q 35 485 33 585 q 75 292 38 381 q 178 136 113 203 q 328 33 243 69 q 508 -1 413 -3 m 513 269 q 406 314 451 269 q 360 435 360 358 q 406 557 360 513 q 513 601 451 601 q 619 557 574 601 q 665 435 665 513 q 620 314 667 358 q 513 269 574 269 m 744 786 q 858 814 811 786 q 928 885 904 842 q 953 978 953 929 q 952 1032 953 1001 q 944 1092 951 1063 q 918 1140 936 1121 q 867 1158 900 1158 q 808 1140 829 1158 q 780 1096 788 1122 q 772 1044 772 1069 q 756 987 772 1001 q 706 972 739 972 q 628 968 674 971 q 556 942 578 967 q 533 875 533 917 q 590 806 533 826 q 744 786 647 786 m 453 1011 q 503 1026 474 1011 q 561 1065 532 1042 q 610 1112 590 1088 q 631 1156 631 1136 q 610 1212 632 1183 q 544 1240 588 1240 q 496 1222 524 1240 q 443 1177 468 1204 q 401 1123 418 1150 q 385 1076 385 1096 q 403 1033 385 1054 q 453 1011 422 1011 "},"Ợ":{"ha":1017,"x_min":33,"x_max":985,"o":"m 508 -1 q 694 40 607 1 q 846 144 781 78 q 948 297 911 210 q 982 485 985 385 q 942 678 981 589 q 839 833 904 767 q 689 935 774 899 q 508 969 604 971 q 322 931 408 969 q 171 826 236 893 q 69 672 106 760 q 35 485 33 585 q 75 292 38 381 q 178 136 113 203 q 328 33 243 69 q 508 -1 413 -3 m 513 269 q 406 314 451 269 q 360 435 360 358 q 406 557 360 513 q 513 601 451 601 q 619 557 574 601 q 665 435 665 513 q 620 314 667 358 q 513 269 574 269 m 744 786 q 858 814 811 786 q 928 885 904 842 q 953 978 953 929 q 952 1032 953 1001 q 944 1092 951 1063 q 918 1140 936 1121 q 867 1158 900 1158 q 808 1140 829 1158 q 780 1096 788 1122 q 772 1044 772 1069 q 756 987 772 1001 q 706 972 739 972 q 628 968 674 971 q 556 942 578 967 q 533 875 533 917 q 590 806 533 826 q 744 786 647 786 m 508 1018 q 577 1047 549 1018 q 606 1115 606 1076 q 577 1184 606 1156 q 508 1213 549 1213 q 440 1184 468 1213 q 411 1115 411 1156 q 440 1047 411 1076 q 508 1018 468 1018 "},"Ờ":{"ha":1017,"x_min":33,"x_max":985,"o":"m 508 -1 q 694 40 607 1 q 846 144 781 78 q 948 297 911 210 q 982 485 985 385 q 942 678 981 589 q 839 833 904 767 q 689 935 774 899 q 508 969 604 971 q 322 931 408 969 q 171 826 236 893 q 69 672 106 760 q 35 485 33 585 q 75 292 38 381 q 178 136 113 203 q 328 33 243 69 q 508 -1 413 -3 m 513 269 q 406 314 451 269 q 360 435 360 358 q 406 557 360 513 q 513 601 451 601 q 619 557 574 601 q 665 435 665 513 q 620 314 667 358 q 513 269 574 269 m 744 786 q 858 814 811 786 q 928 885 904 842 q 953 978 953 929 q 952 1032 953 1001 q 944 1092 951 1063 q 918 1140 936 1121 q 867 1158 900 1158 q 808 1140 829 1158 q 780 1096 788 1122 q 772 1044 772 1069 q 756 987 772 1001 q 706 972 739 972 q 628 968 674 971 q 556 942 578 967 q 533 875 533 917 q 590 806 533 826 q 744 786 647 786 m 564 1019 q 614 1041 596 1019 q 632 1085 632 1063 q 615 1131 632 1104 q 574 1185 599 1158 q 521 1231 549 1213 q 472 1249 493 1249 q 407 1220 429 1249 q 386 1164 385 1192 q 406 1120 386 1144 q 456 1073 426 1096 q 514 1035 485 1050 q 564 1019 543 1019 "},"Ở":{"ha":1017,"x_min":33,"x_max":985,"o":"m 508 -1 q 694 40 607 1 q 846 144 781 78 q 948 297 911 210 q 982 485 985 385 q 942 678 981 589 q 839 833 904 767 q 689 935 774 899 q 508 969 604 971 q 322 931 408 969 q 171 826 236 893 q 69 672 106 760 q 35 485 33 585 q 75 292 38 381 q 178 136 113 203 q 328 33 243 69 q 508 -1 413 -3 m 513 269 q 406 314 451 269 q 360 435 360 358 q 406 557 360 513 q 513 601 451 601 q 619 557 574 601 q 665 435 665 513 q 620 314 667 358 q 513 269 574 269 m 744 786 q 858 814 811 786 q 928 885 904 842 q 953 978 953 929 q 952 1032 953 1001 q 944 1092 951 1063 q 918 1140 936 1121 q 867 1158 900 1158 q 808 1140 829 1158 q 780 1096 788 1122 q 772 1044 772 1069 q 756 987 772 1001 q 706 972 739 972 q 628 968 674 971 q 556 942 578 967 q 533 875 533 917 q 590 806 533 826 q 744 786 647 786 m 513 997 q 573 1012 543 997 q 623 1056 603 1026 q 643 1129 643 1085 q 601 1225 643 1189 q 486 1261 558 1261 q 441 1254 468 1261 q 394 1231 414 1247 q 374 1188 374 1215 q 394 1141 374 1153 q 439 1129 414 1129 q 477 1128 460 1129 q 494 1111 494 1128 q 483 1094 494 1099 q 458 1081 471 1089 q 446 1050 446 1074 q 467 1010 446 1024 q 513 997 488 997 "},"Ỡ":{"ha":1017,"x_min":33,"x_max":985,"o":"m 358 1058 q 396 1068 385 1058 q 419 1088 407 1078 q 460 1099 432 1099 q 496 1088 482 1099 q 532 1066 510 1076 q 601 1056 554 1056 q 668 1075 638 1056 q 717 1123 699 1094 q 736 1179 736 1151 q 714 1241 736 1219 q 660 1263 692 1263 q 623 1252 635 1263 q 599 1231 611 1242 q 558 1221 586 1221 q 522 1232 536 1221 q 486 1254 508 1243 q 417 1265 464 1265 q 350 1246 381 1265 q 301 1198 319 1226 q 282 1142 282 1169 q 304 1079 282 1100 q 358 1058 326 1058 m 508 -1 q 694 40 607 1 q 846 144 781 78 q 948 297 911 210 q 982 485 985 385 q 947 666 981 582 q 857 814 914 750 q 928 885 903 840 q 953 978 953 929 q 952 1032 953 1001 q 944 1092 951 1063 q 918 1140 936 1121 q 867 1158 900 1158 q 808 1140 829 1158 q 780 1096 788 1122 q 772 1044 772 1069 q 756 987 772 1001 q 706 972 739 972 q 628 968 674 971 q 592 963 608 967 q 508 969 551 969 q 322 931 408 969 q 171 826 236 893 q 69 672 106 760 q 35 485 33 585 q 75 292 38 381 q 178 136 113 203 q 328 33 243 69 q 508 -1 413 -3 m 513 269 q 406 314 451 269 q 360 435 360 358 q 406 557 360 513 q 513 601 451 601 q 619 557 574 601 q 665 435 665 513 q 620 314 667 358 q 513 269 574 269 "},"Ő":{"ha":1017,"x_min":33,"x_max":985,"o":"m 508 -1 q 694 40 607 1 q 846 144 781 78 q 948 297 911 210 q 982 485 985 385 q 942 678 981 589 q 839 833 904 767 q 689 935 774 899 q 508 969 604 971 q 322 931 408 969 q 171 826 236 893 q 69 672 106 760 q 35 485 33 585 q 75 292 38 381 q 178 136 113 203 q 328 33 243 69 q 508 -1 413 -3 m 513 269 q 406 314 451 269 q 360 435 360 358 q 406 557 360 513 q 513 601 451 601 q 619 557 574 601 q 665 435 665 513 q 620 314 667 358 q 513 269 574 269 m 378 1007 q 424 1022 399 1007 q 472 1059 449 1036 q 512 1106 496 1082 q 528 1150 528 1131 q 507 1207 529 1178 q 442 1236 485 1236 q 397 1218 421 1236 q 354 1173 374 1200 q 322 1119 335 1146 q 310 1072 310 1092 q 328 1028 310 1050 q 378 1007 347 1007 m 606 1006 q 653 1021 626 1006 q 707 1059 681 1036 q 751 1106 733 1082 q 769 1150 769 1131 q 749 1206 771 1178 q 683 1235 726 1235 q 637 1217 663 1235 q 589 1172 611 1199 q 552 1117 567 1144 q 538 1071 538 1090 q 556 1027 538 1049 q 606 1006 575 1006 "},"Ȏ":{"ha":1017,"x_min":33,"x_max":985,"o":"m 508 -1 q 694 40 607 1 q 846 144 781 78 q 948 297 911 210 q 982 485 985 385 q 942 678 981 589 q 839 833 904 767 q 689 935 774 899 q 508 969 604 971 q 322 931 408 969 q 171 826 236 893 q 69 672 106 760 q 35 485 33 585 q 75 292 38 381 q 178 136 113 203 q 328 33 243 69 q 508 -1 413 -3 m 513 269 q 406 314 451 269 q 360 435 360 358 q 406 557 360 513 q 513 601 451 601 q 619 557 574 601 q 665 435 665 513 q 620 314 667 358 q 513 269 574 269 m 507 1226 q 406 1202 449 1226 q 341 1142 364 1178 q 318 1074 318 1107 q 333 1024 318 1049 q 385 999 349 999 q 435 1017 418 999 q 465 1053 451 1035 q 508 1077 483 1076 q 551 1053 533 1078 q 580 1017 565 1035 q 633 999 594 999 q 685 1024 669 999 q 700 1074 700 1049 q 676 1144 700 1108 q 610 1203 653 1179 q 507 1226 567 1226 "},"Ō":{"ha":1017,"x_min":33,"x_max":985,"o":"m 508 -1 q 694 40 607 1 q 846 144 781 78 q 948 297 911 210 q 982 485 985 385 q 942 678 981 589 q 839 833 904 767 q 689 935 774 899 q 508 969 604 971 q 322 931 408 969 q 171 826 236 893 q 69 672 106 760 q 35 485 33 585 q 75 292 38 381 q 178 136 113 203 q 328 33 243 69 q 508 -1 413 -3 m 513 269 q 406 314 451 269 q 360 435 360 358 q 406 557 360 513 q 513 601 451 601 q 619 557 574 601 q 665 435 665 513 q 620 314 667 358 q 513 269 574 269 m 508 1035 q 596 1035 551 1035 q 678 1042 640 1035 q 740 1067 717 1049 q 764 1124 764 1086 q 740 1179 764 1160 q 678 1207 717 1199 q 596 1217 640 1215 q 508 1218 551 1218 q 422 1217 467 1218 q 339 1207 376 1215 q 278 1179 301 1199 q 254 1124 254 1160 q 278 1067 254 1086 q 339 1042 301 1049 q 422 1035 376 1035 q 508 1035 467 1035 "},"Ǫ":{"ha":1017,"x_min":33,"x_max":985,"o":"m 508 -1 q 694 40 607 1 q 846 144 781 78 q 948 297 911 210 q 982 485 985 385 q 942 678 981 589 q 839 833 904 767 q 689 935 774 899 q 508 969 604 971 q 322 931 408 969 q 171 826 236 893 q 69 672 106 760 q 35 485 33 585 q 75 292 38 381 q 178 136 113 203 q 328 33 243 69 q 508 -1 413 -3 m 513 269 q 406 314 451 269 q 360 435 360 358 q 406 557 360 513 q 513 601 451 601 q 619 557 574 601 q 665 435 665 513 q 620 314 667 358 q 513 269 574 269 m 518 -308 q 617 -285 588 -308 q 646 -229 646 -262 q 626 -174 646 -190 q 579 -158 606 -158 q 547 -151 564 -158 q 529 -119 529 -144 q 551 -74 529 -93 q 596 -35 574 -54 q 676 46 661 22 q 646 69 690 69 l 524 69 q 467 54 499 69 q 406 10 436 39 q 357 -55 376 -18 q 338 -136 338 -92 q 388 -267 338 -225 q 518 -308 438 -308 "},"Ø":{"ha":1015,"x_min":32,"x_max":983,"o":"m 507 -1 q 692 40 606 1 q 844 144 779 78 q 947 298 910 211 q 981 485 983 385 q 938 685 979 593 q 828 842 897 776 q 858 940 860 911 q 829 983 856 968 q 780 987 804 997 q 714 922 756 976 q 507 969 617 971 q 321 931 407 969 q 169 826 235 893 q 68 672 104 760 q 33 485 32 585 q 90 258 36 361 q 231 89 143 154 q 200 -11 197 18 q 229 -56 203 -40 q 282 -58 256 -71 q 356 22 308 -44 q 507 -1 429 -3 m 324 435 q 350 543 324 497 q 419 614 376 589 q 511 638 461 639 q 538 636 525 638 q 500 572 519 606 q 460 503 481 539 q 403 405 429 450 q 354 321 378 360 q 324 435 325 369 m 511 233 q 488 235 499 233 q 538 322 511 275 q 597 424 565 369 q 635 488 617 457 q 669 549 653 519 q 697 435 699 499 q 673 328 699 374 q 604 258 647 282 q 511 233 561 233 "},"Ǿ":{"ha":1015,"x_min":32,"x_max":983,"o":"m 507 -1 q 692 40 606 1 q 844 144 779 78 q 947 298 910 211 q 981 485 983 385 q 938 685 979 593 q 828 842 897 776 q 858 940 860 911 q 829 983 856 968 q 780 987 804 997 q 714 922 756 976 q 507 969 617 971 q 321 931 407 969 q 169 826 235 893 q 68 672 104 760 q 33 485 32 585 q 90 258 36 361 q 231 89 143 154 q 200 -11 197 18 q 229 -56 203 -40 q 282 -58 256 -71 q 356 22 308 -44 q 507 -1 429 -3 m 324 435 q 350 543 324 497 q 419 614 376 589 q 511 638 461 639 q 538 636 525 638 q 500 572 519 606 q 460 503 481 539 q 403 405 429 450 q 354 321 378 360 q 324 435 325 369 m 511 233 q 488 235 499 233 q 538 322 511 275 q 597 424 565 369 q 635 488 617 457 q 669 549 653 519 q 697 435 699 499 q 673 328 699 374 q 604 258 647 282 q 511 233 561 233 m 472 1019 q 522 1035 493 1019 q 581 1073 551 1050 q 630 1120 610 1096 q 650 1164 650 1144 q 629 1220 651 1192 q 564 1249 607 1249 q 515 1231 543 1249 q 463 1185 488 1213 q 421 1131 438 1158 q 404 1085 404 1104 q 423 1041 404 1063 q 472 1019 442 1019 "},"Õ":{"ha":1017,"x_min":33,"x_max":985,"o":"m 508 -1 q 694 40 607 1 q 846 144 781 78 q 948 297 911 210 q 982 485 985 385 q 942 678 981 589 q 839 833 904 767 q 689 935 774 899 q 508 969 604 971 q 322 931 408 969 q 171 826 236 893 q 69 672 106 760 q 35 485 33 585 q 75 292 38 381 q 178 136 113 203 q 328 33 243 69 q 508 -1 413 -3 m 513 269 q 406 314 451 269 q 360 435 360 358 q 406 557 360 513 q 513 601 451 601 q 619 557 574 601 q 665 435 665 513 q 620 314 667 358 q 513 269 574 269 m 335 1007 q 378 1017 365 1007 q 405 1038 390 1028 q 453 1049 419 1049 q 494 1038 478 1049 q 536 1015 510 1026 q 615 1004 563 1004 q 693 1024 658 1004 q 749 1074 728 1044 q 771 1133 771 1104 q 745 1199 771 1176 q 683 1221 719 1221 q 641 1210 654 1221 q 613 1189 628 1200 q 565 1178 599 1178 q 524 1190 540 1178 q 483 1213 508 1201 q 403 1224 457 1224 q 326 1203 361 1224 q 269 1154 290 1183 q 247 1094 247 1125 q 273 1029 247 1051 q 335 1007 299 1007 "},"Ȭ":{"ha":1017,"x_min":33,"x_max":985,"o":"m 508 -1 q 694 40 607 1 q 846 144 781 78 q 948 297 911 210 q 982 485 985 385 q 942 678 981 589 q 839 833 904 767 q 689 935 774 899 q 508 969 604 971 q 322 931 408 969 q 171 826 236 893 q 69 672 106 760 q 35 485 33 585 q 75 292 38 381 q 178 136 113 203 q 328 33 243 69 q 508 -1 413 -3 m 513 269 q 406 314 451 269 q 360 435 360 358 q 406 557 360 513 q 513 601 451 601 q 619 557 574 601 q 665 435 665 513 q 620 314 667 358 q 513 269 574 269 m 335 997 q 378 1008 365 997 q 405 1028 390 1018 q 453 1039 419 1039 q 494 1028 478 1039 q 536 1006 510 1017 q 615 994 563 994 q 693 1015 658 994 q 749 1065 728 1035 q 771 1124 771 1094 q 745 1189 771 1167 q 683 1211 719 1211 q 641 1201 654 1211 q 613 1179 628 1190 q 565 1168 599 1168 q 524 1180 540 1168 q 483 1203 508 1192 q 403 1214 457 1214 q 326 1194 361 1214 q 269 1144 290 1174 q 247 1085 247 1115 q 273 1019 247 1042 q 335 997 299 997 m 508 1249 q 596 1249 551 1249 q 678 1256 640 1249 q 740 1281 717 1263 q 764 1338 764 1300 q 740 1393 764 1374 q 678 1421 717 1413 q 596 1431 640 1429 q 508 1432 551 1432 q 422 1431 467 1432 q 339 1421 376 1429 q 278 1393 301 1413 q 254 1338 254 1374 q 278 1281 254 1300 q 339 1256 301 1263 q 422 1249 376 1249 q 508 1249 467 1249 "},"Œ":{"ha":1479,"x_min":33,"x_max":1444,"o":"m 508 -1 q 694 40 607 1 q 846 144 781 78 q 948 297 911 210 q 982 485 985 385 q 942 678 981 589 q 839 833 904 767 q 689 935 774 899 q 508 969 604 971 q 322 931 408 969 q 171 826 236 893 q 69 672 106 760 q 35 485 33 585 q 75 292 38 381 q 178 136 113 203 q 328 33 243 69 q 508 -1 413 -3 m 513 269 q 406 314 451 269 q 360 435 360 358 q 406 557 360 513 q 513 601 451 601 q 619 557 574 601 q 665 435 665 513 q 620 314 667 358 q 513 269 574 269 m 1149 0 q 1323 18 1261 0 q 1409 67 1385 36 q 1433 135 1433 99 q 1367 222 1433 201 q 1281 230 1325 235 q 1213 225 1236 225 q 1110 249 1150 225 q 1051 317 1071 274 q 1092 316 1069 317 q 1138 315 1114 315 q 1252 317 1197 315 q 1326 324 1307 319 q 1403 363 1379 335 q 1426 425 1426 390 q 1401 490 1426 461 q 1328 528 1376 518 q 1255 534 1307 532 q 1146 536 1203 536 q 1090 535 1117 536 q 1040 533 1063 535 q 1098 612 1057 586 q 1211 638 1139 638 q 1286 635 1244 638 q 1367 651 1328 633 q 1426 704 1407 671 q 1444 774 1444 738 q 1430 843 1444 808 q 1378 907 1415 878 q 1274 954 1340 936 q 1104 972 1208 972 q 864 904 960 972 q 721 722 768 836 q 674 469 674 608 q 704 258 674 343 q 786 121 735 172 q 900 43 838 69 q 1027 8 963 17 q 1149 0 1092 0 "},"P":{"ha":914,"x_min":35,"x_max":879,"o":"m 231 -1 q 315 17 285 -1 q 356 66 344 36 q 367 131 368 96 q 360 199 367 165 q 492 172 421 174 q 631 193 563 169 q 756 266 700 217 q 846 393 813 315 q 879 579 879 471 q 824 788 879 700 q 676 922 768 875 q 469 969 583 969 q 275 926 357 969 q 140 810 193 883 q 60 647 86 738 q 35 463 35 557 q 42 300 35 382 q 69 149 49 218 q 129 40 90 81 q 231 -1 168 -1 m 483 388 q 397 424 433 388 q 360 510 360 461 q 397 597 360 560 q 483 633 433 633 q 570 597 533 633 q 607 510 607 560 q 570 424 607 461 q 483 388 533 388 "},"Þ":{"ha":917,"x_min":35,"x_max":882,"o":"m 363 838 q 366 874 367 851 q 353 919 365 896 q 313 957 342 942 q 233 972 285 972 q 145 941 181 972 q 88 858 110 910 q 54 742 65 806 q 39 615 43 679 q 35 494 35 550 q 39 387 35 450 q 54 256 43 324 q 88 131 65 189 q 145 35 110 72 q 233 -1 181 -1 q 334 26 304 -1 q 368 95 364 54 q 363 175 372 136 q 525 138 438 138 q 653 161 590 138 q 768 231 717 185 q 851 347 819 278 q 882 510 882 417 q 848 665 882 599 q 758 775 814 731 q 635 842 703 819 q 501 864 568 864 q 363 838 424 864 m 486 356 q 400 390 438 356 q 363 471 363 424 q 400 553 363 518 q 486 588 438 588 q 573 553 536 588 q 610 471 610 518 q 573 390 610 424 q 486 356 536 356 "},"Q":{"ha":1010,"x_min":35,"x_max":975,"o":"m 503 11 q 606 26 556 11 q 704 65 657 40 q 793 11 749 33 q 865 -3 829 -7 q 926 22 900 0 q 961 81 953 44 q 951 164 969 118 q 930 202 944 181 q 896 247 915 224 q 952 367 931 304 q 975 492 974 429 q 935 680 972 593 q 835 832 899 767 q 686 934 771 897 q 503 972 601 971 q 321 935 406 971 q 173 833 236 899 q 74 681 110 768 q 35 492 38 594 q 74 303 38 390 q 173 151 110 217 q 320 49 236 86 q 503 11 404 13 m 514 232 q 419 258 463 232 q 349 328 375 285 q 322 424 322 372 q 349 518 322 475 q 419 588 375 561 q 514 614 463 614 q 606 589 564 614 q 676 522 649 564 q 704 429 703 479 q 650 469 674 454 q 568 492 608 496 q 499 460 528 488 q 465 391 471 433 q 485 299 458 349 q 528 233 503 265 q 514 232 521 232 "},"R":{"ha":914,"x_min":35,"x_max":879,"o":"m 244 -1 q 328 17 299 -1 q 370 66 358 36 q 381 131 382 96 q 374 199 381 165 q 465 175 417 181 q 501 102 479 139 q 553 43 524 65 q 611 10 585 19 q 668 0 638 0 q 737 17 704 0 q 790 63 769 33 q 811 132 811 93 q 799 201 811 165 q 765 269 786 238 q 848 397 817 319 q 879 579 879 474 q 824 788 879 700 q 676 922 768 875 q 469 969 583 969 q 275 926 357 969 q 140 810 193 883 q 60 647 86 738 q 35 463 35 557 q 44 300 35 382 q 76 149 53 218 q 141 40 100 81 q 244 -1 182 -1 m 483 396 q 397 431 433 396 q 360 514 360 467 q 397 598 360 563 q 483 633 433 633 q 570 598 533 633 q 607 514 607 563 q 570 431 607 467 q 483 396 533 396 "},"Ŕ":{"ha":914,"x_min":35,"x_max":879,"o":"m 244 -1 q 328 17 299 -1 q 370 66 358 36 q 381 131 382 96 q 374 199 381 165 q 465 175 417 181 q 501 102 479 139 q 553 43 524 65 q 611 10 585 19 q 668 0 638 0 q 737 17 704 0 q 790 63 769 33 q 811 132 811 93 q 799 201 811 165 q 765 269 786 238 q 848 397 817 319 q 879 579 879 474 q 824 788 879 700 q 676 922 768 875 q 469 969 583 969 q 275 926 357 969 q 140 810 193 883 q 60 647 86 738 q 35 463 35 557 q 44 300 35 382 q 76 149 53 218 q 141 40 100 81 q 244 -1 182 -1 m 483 396 q 397 431 433 396 q 360 514 360 467 q 397 598 360 563 q 483 633 433 633 q 570 598 533 633 q 607 514 607 563 q 570 431 607 467 q 483 396 533 396 m 415 1006 q 465 1021 436 1006 q 524 1059 494 1036 q 573 1106 553 1082 q 593 1150 593 1131 q 572 1206 594 1178 q 507 1235 550 1235 q 458 1217 486 1235 q 406 1172 431 1199 q 364 1117 381 1144 q 347 1071 347 1090 q 366 1027 347 1049 q 415 1006 385 1006 "},"Ř":{"ha":914,"x_min":35,"x_max":879,"o":"m 244 -1 q 328 17 299 -1 q 370 66 358 36 q 381 131 382 96 q 374 199 381 165 q 465 175 417 181 q 501 102 479 139 q 553 43 524 65 q 611 10 585 19 q 668 0 638 0 q 737 17 704 0 q 790 63 769 33 q 811 132 811 93 q 799 201 811 165 q 765 269 786 238 q 848 397 817 319 q 879 579 879 474 q 824 788 879 700 q 676 922 768 875 q 469 969 583 969 q 275 926 357 969 q 140 810 193 883 q 60 647 86 738 q 35 463 35 557 q 44 300 35 382 q 76 149 53 218 q 141 40 100 81 q 244 -1 182 -1 m 483 396 q 397 431 433 396 q 360 514 360 467 q 397 598 360 563 q 483 633 433 633 q 570 598 533 633 q 607 514 607 563 q 570 431 607 467 q 483 396 533 396 m 339 1239 q 281 1219 301 1239 q 260 1163 260 1199 q 289 1092 260 1131 q 363 1027 318 1054 q 456 1000 408 1000 q 549 1026 503 1000 q 625 1090 594 1053 q 656 1163 656 1128 q 635 1219 656 1199 q 576 1239 614 1239 q 511 1217 542 1239 q 458 1167 481 1196 q 405 1217 436 1196 q 339 1239 374 1239 "},"Ŗ":{"ha":914,"x_min":35,"x_max":879,"o":"m 244 -1 q 328 17 299 -1 q 370 66 358 36 q 381 131 382 96 q 374 199 381 165 q 465 175 417 181 q 501 102 479 139 q 553 43 524 65 q 611 10 585 19 q 668 0 638 0 q 737 17 704 0 q 790 63 769 33 q 811 132 811 93 q 799 201 811 165 q 765 269 786 238 q 848 397 817 319 q 879 579 879 474 q 824 788 879 700 q 676 922 768 875 q 469 969 583 969 q 275 926 357 969 q 140 810 193 883 q 60 647 86 738 q 35 463 35 557 q 44 300 35 382 q 76 149 53 218 q 141 40 100 81 q 244 -1 182 -1 m 483 396 q 397 431 433 396 q 360 514 360 467 q 397 598 360 563 q 483 633 433 633 q 570 598 533 633 q 607 514 607 563 q 570 431 607 467 q 483 396 533 396 m 388 -224 q 438 -208 408 -224 q 496 -170 467 -193 q 545 -123 525 -147 q 565 -79 565 -99 q 544 -23 567 -51 q 479 6 522 6 q 431 -12 458 6 q 378 -58 403 -31 q 336 -112 353 -85 q 319 -158 319 -139 q 338 -202 319 -181 q 388 -224 357 -224 "},"Ȑ":{"ha":914,"x_min":35,"x_max":879,"o":"m 244 -1 q 328 17 299 -1 q 370 66 358 36 q 381 131 382 96 q 374 199 381 165 q 465 175 417 181 q 501 102 479 139 q 553 43 524 65 q 611 10 585 19 q 668 0 638 0 q 737 17 704 0 q 790 63 769 33 q 811 132 811 93 q 799 201 811 165 q 765 269 786 238 q 848 397 817 319 q 879 579 879 474 q 824 788 879 700 q 676 922 768 875 q 469 969 583 969 q 275 926 357 969 q 140 810 193 883 q 60 647 86 738 q 35 463 35 557 q 44 300 35 382 q 76 149 53 218 q 141 40 100 81 q 244 -1 182 -1 m 483 396 q 397 431 433 396 q 360 514 360 467 q 397 598 360 563 q 483 633 433 633 q 570 598 533 633 q 607 514 607 563 q 570 431 607 467 q 483 396 533 396 m 592 993 q 642 1015 624 993 q 660 1058 660 1036 q 647 1105 660 1078 q 615 1159 635 1132 q 572 1204 596 1186 q 528 1222 549 1222 q 463 1193 485 1222 q 442 1136 440 1164 q 458 1092 442 1117 q 497 1045 474 1068 q 546 1008 521 1022 q 592 993 571 993 m 364 992 q 414 1013 396 992 q 432 1057 432 1035 q 417 1103 432 1076 q 381 1158 403 1131 q 333 1203 358 1185 q 286 1221 307 1221 q 221 1192 243 1221 q 200 1136 199 1164 q 218 1092 200 1117 q 263 1045 236 1068 q 316 1007 289 1022 q 364 992 343 992 "},"Ȓ":{"ha":914,"x_min":35,"x_max":879,"o":"m 244 -1 q 328 17 299 -1 q 370 66 358 36 q 381 131 382 96 q 374 199 381 165 q 465 175 417 181 q 501 102 479 139 q 553 43 524 65 q 611 10 585 19 q 668 0 638 0 q 737 17 704 0 q 790 63 769 33 q 811 132 811 93 q 799 201 811 165 q 765 269 786 238 q 848 397 817 319 q 879 579 879 474 q 824 788 879 700 q 676 922 768 875 q 469 969 583 969 q 275 926 357 969 q 140 810 193 883 q 60 647 86 738 q 35 463 35 557 q 44 300 35 382 q 76 149 53 218 q 141 40 100 81 q 244 -1 182 -1 m 483 396 q 397 431 433 396 q 360 514 360 467 q 397 598 360 563 q 483 633 433 633 q 570 598 533 633 q 607 514 607 563 q 570 431 607 467 q 483 396 533 396 m 456 1226 q 355 1202 397 1226 q 290 1142 313 1178 q 267 1074 267 1107 q 282 1024 267 1049 q 333 999 297 999 q 383 1017 367 999 q 414 1053 400 1035 q 457 1077 432 1076 q 500 1053 482 1078 q 528 1017 514 1035 q 582 999 543 999 q 633 1024 618 999 q 649 1074 649 1049 q 625 1144 649 1108 q 558 1203 601 1179 q 456 1226 515 1226 "},"S":{"ha":828,"x_min":35,"x_max":793,"o":"m 400 -1 q 667 65 572 -1 q 763 249 763 131 q 699 408 763 347 q 511 513 635 468 q 448 537 478 525 q 418 569 418 549 q 435 603 418 592 q 468 614 451 614 q 512 608 497 614 q 540 597 526 603 q 576 585 553 590 q 647 579 600 579 q 713 594 679 579 q 770 643 747 610 q 793 732 793 676 q 744 853 793 800 q 610 939 694 907 q 421 971 525 971 q 225 928 313 971 q 86 814 138 885 q 35 661 35 743 q 64 524 35 581 q 174 419 93 468 q 278 369 228 388 q 360 336 328 350 q 392 304 392 322 q 346 268 392 268 q 291 283 317 268 q 235 312 265 297 q 157 326 204 326 q 70 294 106 326 q 35 203 35 261 q 66 118 35 156 q 150 54 97 81 q 268 13 203 28 q 400 -1 333 -1 "},"Ś":{"ha":828,"x_min":35,"x_max":793,"o":"m 400 -1 q 667 65 572 -1 q 763 249 763 131 q 699 408 763 347 q 511 513 635 468 q 448 537 478 525 q 418 569 418 549 q 435 603 418 592 q 468 614 451 614 q 512 608 497 614 q 540 597 526 603 q 576 585 553 590 q 647 579 600 579 q 713 594 679 579 q 770 643 747 610 q 793 732 793 676 q 744 853 793 800 q 610 939 694 907 q 421 971 525 971 q 225 928 313 971 q 86 814 138 885 q 35 661 35 743 q 64 524 35 581 q 174 419 93 468 q 278 369 228 388 q 360 336 328 350 q 392 304 392 322 q 346 268 392 268 q 291 283 317 268 q 235 312 265 297 q 157 326 204 326 q 70 294 106 326 q 35 203 35 261 q 66 118 35 156 q 150 54 97 81 q 268 13 203 28 q 400 -1 333 -1 m 358 1006 q 408 1021 379 1006 q 467 1059 438 1036 q 516 1106 496 1082 q 536 1150 536 1131 q 515 1206 538 1178 q 450 1235 493 1235 q 401 1217 429 1235 q 349 1172 374 1199 q 307 1117 324 1144 q 290 1071 290 1090 q 309 1027 290 1049 q 358 1006 328 1006 "},"Š":{"ha":828,"x_min":35,"x_max":793,"o":"m 400 -1 q 667 65 572 -1 q 763 249 763 131 q 699 408 763 347 q 511 513 635 468 q 448 537 478 525 q 418 569 418 549 q 435 603 418 592 q 468 614 451 614 q 512 608 497 614 q 540 597 526 603 q 576 585 553 590 q 647 579 600 579 q 713 594 679 579 q 770 643 747 610 q 793 732 793 676 q 744 853 793 800 q 610 939 694 907 q 421 971 525 971 q 225 928 313 971 q 86 814 138 885 q 35 661 35 743 q 64 524 35 581 q 174 419 93 468 q 278 369 228 388 q 360 336 328 350 q 392 304 392 322 q 346 268 392 268 q 291 283 317 268 q 235 312 265 297 q 157 326 204 326 q 70 294 106 326 q 35 203 35 261 q 66 118 35 156 q 150 54 97 81 q 268 13 203 28 q 400 -1 333 -1 m 294 1239 q 236 1219 257 1239 q 215 1163 215 1199 q 244 1092 215 1131 q 319 1027 274 1054 q 411 1000 364 1000 q 504 1026 458 1000 q 581 1090 550 1053 q 611 1163 611 1128 q 590 1219 611 1199 q 532 1239 569 1239 q 467 1217 497 1239 q 414 1167 436 1196 q 360 1217 392 1196 q 294 1239 329 1239 "},"Ş":{"ha":828,"x_min":35,"x_max":793,"o":"m 400 -1 q 667 65 572 -1 q 763 249 763 131 q 699 408 763 347 q 511 513 635 468 q 448 537 478 525 q 418 569 418 549 q 435 603 418 592 q 468 614 451 614 q 512 608 497 614 q 540 597 526 603 q 576 585 553 590 q 647 579 600 579 q 713 594 679 579 q 770 643 747 610 q 793 732 793 676 q 744 853 793 800 q 610 939 694 907 q 421 971 525 971 q 225 928 313 971 q 86 814 138 885 q 35 661 35 743 q 64 524 35 581 q 174 419 93 468 q 278 369 228 388 q 360 336 328 350 q 392 304 392 322 q 346 268 392 268 q 291 283 317 268 q 235 312 265 297 q 157 326 204 326 q 70 294 106 326 q 35 203 35 261 q 66 118 35 156 q 150 54 97 81 q 268 13 203 28 q 400 -1 333 -1 m 390 -336 q 500 -315 450 -336 q 580 -254 550 -293 q 610 -165 610 -215 q 558 -68 610 -108 q 433 -24 507 -28 q 465 50 465 15 q 441 87 465 76 q 385 97 417 97 q 338 81 363 97 q 294 38 314 64 q 261 -16 274 11 q 249 -64 249 -43 q 267 -114 249 -94 q 321 -133 286 -133 q 394 -144 364 -133 q 424 -174 424 -154 q 412 -193 424 -189 q 389 -197 400 -197 q 344 -183 367 -197 q 281 -168 321 -168 q 236 -183 254 -168 q 218 -233 218 -199 q 265 -306 218 -275 q 390 -336 313 -336 "},"Ŝ":{"ha":828,"x_min":35,"x_max":793,"o":"m 400 -1 q 667 65 572 -1 q 763 249 763 131 q 699 408 763 347 q 511 513 635 468 q 448 537 478 525 q 418 569 418 549 q 435 603 418 592 q 468 614 451 614 q 512 608 497 614 q 540 597 526 603 q 576 585 553 590 q 647 579 600 579 q 713 594 679 579 q 770 643 747 610 q 793 732 793 676 q 744 853 793 800 q 610 939 694 907 q 421 971 525 971 q 225 928 313 971 q 86 814 138 885 q 35 661 35 743 q 64 524 35 581 q 174 419 93 468 q 278 369 228 388 q 360 336 328 350 q 392 304 392 322 q 346 268 392 268 q 291 283 317 268 q 235 312 265 297 q 157 326 204 326 q 70 294 106 326 q 35 203 35 261 q 66 118 35 156 q 150 54 97 81 q 268 13 203 28 q 400 -1 333 -1 m 297 996 q 363 1017 332 996 q 417 1068 394 1039 q 469 1017 439 1039 q 535 996 500 996 q 593 1017 572 996 q 614 1072 614 1038 q 583 1144 614 1107 q 507 1208 553 1182 q 414 1235 461 1235 q 322 1208 367 1235 q 247 1143 276 1181 q 218 1072 218 1106 q 239 1017 218 1038 q 297 996 260 996 "},"Ș":{"ha":828,"x_min":35,"x_max":793,"o":"m 400 -1 q 667 65 572 -1 q 763 249 763 131 q 699 408 763 347 q 511 513 635 468 q 448 537 478 525 q 418 569 418 549 q 435 603 418 592 q 468 614 451 614 q 512 608 497 614 q 540 597 526 603 q 576 585 553 590 q 647 579 600 579 q 713 594 679 579 q 770 643 747 610 q 793 732 793 676 q 744 853 793 800 q 610 939 694 907 q 421 971 525 971 q 225 928 313 971 q 86 814 138 885 q 35 661 35 743 q 64 524 35 581 q 174 419 93 468 q 278 369 228 388 q 360 336 328 350 q 392 304 392 322 q 346 268 392 268 q 291 283 317 268 q 235 312 265 297 q 157 326 204 326 q 70 294 106 326 q 35 203 35 261 q 66 118 35 156 q 150 54 97 81 q 268 13 203 28 q 400 -1 333 -1 m 358 -265 q 408 -250 379 -265 q 467 -212 438 -235 q 516 -165 496 -189 q 536 -121 536 -140 q 515 -65 538 -93 q 450 -36 493 -36 q 401 -54 429 -36 q 349 -99 374 -72 q 307 -153 324 -126 q 290 -200 290 -181 q 309 -244 290 -222 q 358 -265 328 -265 "},"ẞ":{"ha":1625,"x_min":35,"x_max":1590,"o":"m 1197 -1 q 1465 65 1369 -1 q 1560 249 1560 131 q 1496 408 1560 347 q 1308 513 1432 468 q 1245 537 1275 525 q 1215 569 1215 549 q 1232 603 1215 592 q 1265 614 1249 614 q 1309 608 1294 614 q 1337 597 1324 603 q 1374 585 1350 590 q 1444 579 1397 579 q 1510 594 1476 579 q 1567 643 1544 610 q 1590 732 1590 676 q 1541 853 1590 800 q 1407 939 1492 907 q 1218 971 1322 971 q 1022 928 1110 971 q 883 814 935 885 q 832 661 832 743 q 861 524 832 581 q 971 419 890 468 q 1075 369 1025 388 q 1157 336 1125 350 q 1189 304 1189 322 q 1143 268 1189 268 q 1088 283 1114 268 q 1032 312 1063 297 q 954 326 1001 326 q 867 294 903 326 q 832 203 832 261 q 863 118 832 156 q 947 54 894 81 q 1065 13 1000 28 q 1197 -1 1131 -1 m 400 -1 q 667 65 572 -1 q 763 249 763 131 q 699 408 763 347 q 511 513 635 468 q 448 537 478 525 q 418 569 418 549 q 435 603 418 592 q 468 614 451 614 q 512 608 497 614 q 540 597 526 603 q 576 585 553 590 q 647 579 600 579 q 713 594 679 579 q 770 643 747 610 q 793 732 793 676 q 744 853 793 800 q 610 939 694 907 q 421 971 525 971 q 225 928 313 971 q 86 814 138 885 q 35 661 35 743 q 64 524 35 581 q 174 419 93 468 q 278 369 228 388 q 360 336 328 350 q 392 304 392 322 q 346 268 392 268 q 291 283 317 268 q 235 312 265 297 q 157 326 204 326 q 70 294 106 326 q 35 203 35 261 q 66 118 35 156 q 150 54 97 81 q 268 13 203 28 q 400 -1 333 -1 "},"Ə":{"ha":913,"x_min":35,"x_max":878,"o":"m 446 1 q 669 63 572 1 q 822 234 767 125 q 878 485 878 343 q 847 671 878 583 q 756 826 817 758 q 605 933 694 894 q 396 972 515 972 q 194 935 272 972 q 78 844 115 897 q 42 744 42 792 q 76 660 42 690 q 163 631 111 631 q 232 640 203 631 q 295 658 261 649 q 381 667 329 667 q 505 644 444 667 q 600 553 565 622 q 506 577 556 574 q 404 581 456 581 q 269 564 335 581 q 150 514 203 547 q 66 430 97 481 q 35 310 35 379 q 87 153 35 224 q 232 42 139 83 q 446 1 325 1 m 435 201 q 331 231 363 201 q 299 296 299 261 q 339 358 299 339 q 443 376 379 376 q 517 369 478 376 q 576 350 556 363 q 537 245 576 289 q 435 201 497 201 "},"T":{"ha":1051,"x_min":35,"x_max":1017,"o":"m 521 3 q 663 101 625 3 q 700 411 700 199 q 699 503 700 460 q 694 583 697 546 q 938 631 860 592 q 1017 765 1017 671 q 892 926 1017 885 q 522 968 768 968 q 156 926 278 968 q 35 765 35 885 q 113 631 35 669 q 357 583 190 592 q 354 503 356 546 q 353 411 353 460 q 366 185 353 276 q 415 49 379 94 q 521 3 451 3 "},"Ŧ":{"ha":1051,"x_min":35,"x_max":1017,"o":"m 521 3 q 638 58 599 3 q 692 229 678 113 q 880 249 819 231 q 940 338 940 268 q 882 428 940 406 q 700 454 824 450 q 694 583 699 528 q 938 631 860 592 q 1017 765 1017 671 q 892 926 1017 885 q 522 968 768 968 q 156 926 278 968 q 35 765 35 885 q 113 631 35 669 q 357 583 190 592 q 354 522 356 554 q 353 454 353 490 q 166 429 226 451 q 106 338 106 407 q 167 249 106 267 q 360 229 229 231 q 407 60 371 117 q 521 3 443 3 "},"Ť":{"ha":1051,"x_min":35,"x_max":1017,"o":"m 521 3 q 663 101 625 3 q 700 411 700 199 q 699 503 700 460 q 694 583 697 546 q 938 631 860 592 q 1017 765 1017 671 q 892 926 1017 885 q 522 968 768 968 q 156 926 278 968 q 35 765 35 885 q 113 631 35 669 q 357 583 190 592 q 354 503 356 546 q 353 411 353 460 q 366 185 353 276 q 415 49 379 94 q 521 3 451 3 m 393 1239 q 335 1219 356 1239 q 314 1163 314 1199 q 343 1092 314 1131 q 417 1027 372 1054 q 510 1000 463 1000 q 603 1026 557 1000 q 679 1090 649 1053 q 710 1163 710 1128 q 689 1219 710 1199 q 631 1239 668 1239 q 565 1217 596 1239 q 513 1167 535 1196 q 459 1217 490 1196 q 393 1239 428 1239 "},"Ţ":{"ha":1051,"x_min":35,"x_max":1017,"o":"m 521 3 q 663 101 625 3 q 700 411 700 199 q 699 503 700 460 q 694 583 697 546 q 938 631 860 592 q 1017 765 1017 671 q 892 926 1017 885 q 522 968 768 968 q 156 926 278 968 q 35 765 35 885 q 113 631 35 669 q 357 583 190 592 q 354 503 356 546 q 353 411 353 460 q 366 185 353 276 q 415 49 379 94 q 521 3 451 3 m 517 -336 q 626 -315 576 -336 q 706 -254 676 -293 q 736 -165 736 -215 q 685 -68 736 -108 q 560 -24 633 -28 q 592 50 592 15 q 567 87 592 76 q 511 97 543 97 q 465 81 489 97 q 420 38 440 64 q 388 -16 400 11 q 375 -64 375 -43 q 394 -114 375 -94 q 447 -133 413 -133 q 520 -144 490 -133 q 550 -174 550 -154 q 538 -193 550 -189 q 515 -197 526 -197 q 470 -183 493 -197 q 407 -168 447 -168 q 363 -183 381 -168 q 344 -233 344 -199 q 392 -306 344 -275 q 517 -336 439 -336 "},"Ț":{"ha":1051,"x_min":35,"x_max":1017,"o":"m 521 3 q 663 101 625 3 q 700 411 700 199 q 699 503 700 460 q 694 583 697 546 q 938 631 860 592 q 1017 765 1017 671 q 892 926 1017 885 q 522 968 768 968 q 156 926 278 968 q 35 765 35 885 q 113 631 35 669 q 357 583 190 592 q 354 503 356 546 q 353 411 353 460 q 366 185 353 276 q 415 49 379 94 q 521 3 451 3 m 457 -265 q 507 -250 478 -265 q 565 -212 536 -235 q 615 -165 594 -189 q 635 -121 635 -140 q 614 -65 636 -93 q 549 -36 592 -36 q 500 -54 528 -36 q 447 -99 472 -72 q 406 -153 422 -126 q 389 -200 389 -181 q 408 -244 389 -222 q 457 -265 426 -265 "},"U":{"ha":1050,"x_min":35,"x_max":1015,"o":"m 525 0 q 739 42 647 0 q 892 156 831 83 q 985 320 954 228 q 1015 514 1015 413 q 1011 634 1015 571 q 994 757 1007 697 q 958 865 982 817 q 894 943 933 914 q 797 972 856 972 q 682 941 724 972 q 624 863 640 910 q 607 765 607 815 q 613 669 607 708 q 624 594 618 631 q 629 503 629 557 q 621 428 629 467 q 590 363 613 389 q 525 338 568 338 q 461 363 483 338 q 430 428 439 389 q 421 503 421 467 q 426 594 421 557 q 438 669 432 631 q 443 765 443 708 q 426 863 443 815 q 369 941 410 910 q 253 972 328 972 q 156 943 194 972 q 92 865 117 914 q 56 757 68 817 q 39 634 43 697 q 35 514 35 571 q 65 320 35 413 q 158 156 96 228 q 311 42 219 83 q 525 0 403 0 "},"Ú":{"ha":1050,"x_min":35,"x_max":1015,"o":"m 525 0 q 739 42 647 0 q 892 156 831 83 q 985 320 954 228 q 1015 514 1015 413 q 1011 634 1015 571 q 994 757 1007 697 q 958 865 982 817 q 894 943 933 914 q 797 972 856 972 q 682 941 724 972 q 624 863 640 910 q 607 765 607 815 q 613 669 607 708 q 624 594 618 631 q 629 503 629 557 q 621 428 629 467 q 590 363 613 389 q 525 338 568 338 q 461 363 483 338 q 430 428 439 389 q 421 503 421 467 q 426 594 421 557 q 438 669 432 631 q 443 765 443 708 q 426 863 443 815 q 369 941 410 910 q 253 972 328 972 q 156 943 194 972 q 92 865 117 914 q 56 757 68 817 q 39 634 43 697 q 35 514 35 571 q 65 320 35 413 q 158 156 96 228 q 311 42 219 83 q 525 0 403 0 m 483 978 q 533 993 504 978 q 592 1031 563 1008 q 641 1078 621 1054 q 661 1122 661 1103 q 640 1178 663 1150 q 575 1207 618 1207 q 526 1189 554 1207 q 474 1144 499 1171 q 432 1090 449 1117 q 415 1043 415 1063 q 434 999 415 1021 q 483 978 453 978 "},"Ŭ":{"ha":1050,"x_min":35,"x_max":1015,"o":"m 525 0 q 739 42 647 0 q 892 156 831 83 q 985 320 954 228 q 1015 514 1015 413 q 1011 634 1015 571 q 994 757 1007 697 q 958 865 982 817 q 894 943 933 914 q 797 972 856 972 q 682 941 724 972 q 624 863 640 910 q 607 765 607 815 q 613 669 607 708 q 624 594 618 631 q 629 503 629 557 q 621 428 629 467 q 590 363 613 389 q 525 338 568 338 q 461 363 483 338 q 430 428 439 389 q 421 503 421 467 q 426 594 421 557 q 438 669 432 631 q 443 765 443 708 q 426 863 443 815 q 369 941 410 910 q 253 972 328 972 q 156 943 194 972 q 92 865 117 914 q 56 757 68 817 q 39 634 43 697 q 35 514 35 571 q 65 320 35 413 q 158 156 96 228 q 311 42 219 83 q 525 0 403 0 m 524 972 q 626 996 583 972 q 693 1055 669 1019 q 717 1125 717 1090 q 701 1175 717 1150 q 650 1200 686 1200 q 597 1183 611 1200 q 568 1146 582 1165 q 525 1122 550 1121 q 482 1146 500 1122 q 451 1183 468 1165 q 401 1200 435 1200 q 350 1175 365 1200 q 335 1125 335 1150 q 358 1057 335 1093 q 423 997 381 1021 q 524 972 465 972 "},"Û":{"ha":1050,"x_min":35,"x_max":1015,"o":"m 525 0 q 739 42 647 0 q 892 156 831 83 q 985 320 954 228 q 1015 514 1015 413 q 1011 634 1015 571 q 994 757 1007 697 q 958 865 982 817 q 894 943 933 914 q 797 972 856 972 q 682 941 724 972 q 624 863 640 910 q 607 765 607 815 q 613 669 607 708 q 624 594 618 631 q 629 503 629 557 q 621 428 629 467 q 590 363 613 389 q 525 338 568 338 q 461 363 483 338 q 430 428 439 389 q 421 503 421 467 q 426 594 421 557 q 438 669 432 631 q 443 765 443 708 q 426 863 443 815 q 369 941 410 910 q 253 972 328 972 q 156 943 194 972 q 92 865 117 914 q 56 757 68 817 q 39 634 43 697 q 35 514 35 571 q 65 320 35 413 q 158 156 96 228 q 311 42 219 83 q 525 0 403 0 m 407 996 q 473 1017 442 996 q 526 1068 504 1039 q 579 1017 549 1039 q 644 996 610 996 q 703 1017 682 996 q 724 1072 724 1038 q 693 1144 724 1107 q 617 1208 663 1182 q 524 1235 571 1235 q 431 1208 476 1235 q 357 1143 386 1181 q 328 1072 328 1106 q 349 1017 328 1038 q 407 996 369 996 "},"Ȕ":{"ha":1050,"x_min":35,"x_max":1015,"o":"m 525 0 q 739 42 647 0 q 892 156 831 83 q 985 320 954 228 q 1015 514 1015 413 q 1011 634 1015 571 q 994 757 1007 697 q 958 865 982 817 q 894 943 933 914 q 797 972 856 972 q 682 941 724 972 q 624 863 640 910 q 607 765 607 815 q 613 669 607 708 q 624 594 618 631 q 629 503 629 557 q 621 428 629 467 q 590 363 613 389 q 525 338 568 338 q 461 363 483 338 q 430 428 439 389 q 421 503 421 467 q 426 594 421 557 q 438 669 432 631 q 443 765 443 708 q 426 863 443 815 q 369 941 410 910 q 253 972 328 972 q 156 943 194 972 q 92 865 117 914 q 56 757 68 817 q 39 634 43 697 q 35 514 35 571 q 65 320 35 413 q 158 156 96 228 q 311 42 219 83 q 525 0 403 0 m 674 1007 q 724 1028 706 1007 q 742 1072 742 1050 q 729 1119 742 1092 q 697 1173 717 1146 q 654 1218 678 1200 q 610 1236 631 1236 q 544 1207 567 1236 q 524 1150 522 1178 q 540 1106 524 1131 q 579 1059 556 1082 q 628 1022 603 1036 q 674 1007 653 1007 m 446 1006 q 496 1027 478 1006 q 514 1071 514 1049 q 499 1117 514 1090 q 463 1172 485 1144 q 415 1217 440 1199 q 368 1235 389 1235 q 303 1206 325 1235 q 282 1150 281 1178 q 300 1106 282 1131 q 344 1059 318 1082 q 398 1021 371 1036 q 446 1006 425 1006 "},"Ü":{"ha":1050,"x_min":35,"x_max":1015,"o":"m 525 0 q 739 42 647 0 q 892 156 831 83 q 985 320 954 228 q 1015 514 1015 413 q 1011 634 1015 571 q 994 757 1007 697 q 958 865 982 817 q 894 943 933 914 q 797 972 856 972 q 682 941 724 972 q 624 863 640 910 q 607 765 607 815 q 613 669 607 708 q 624 594 618 631 q 629 503 629 557 q 621 428 629 467 q 590 363 613 389 q 525 338 568 338 q 461 363 483 338 q 430 428 439 389 q 421 503 421 467 q 426 594 421 557 q 438 669 432 631 q 443 765 443 708 q 426 863 443 815 q 369 941 410 910 q 253 972 328 972 q 156 943 194 972 q 92 865 117 914 q 56 757 68 817 q 39 634 43 697 q 35 514 35 571 q 65 320 35 413 q 158 156 96 228 q 311 42 219 83 q 525 0 403 0 m 663 1008 q 738 1040 707 1008 q 769 1115 769 1072 q 738 1191 769 1160 q 663 1222 707 1222 q 587 1191 618 1222 q 556 1115 556 1160 q 587 1040 556 1072 q 663 1008 618 1008 m 390 1007 q 465 1038 435 1007 q 496 1114 496 1069 q 465 1190 496 1158 q 390 1221 435 1221 q 314 1190 346 1221 q 282 1114 282 1158 q 314 1038 282 1069 q 390 1007 346 1007 "},"Ụ":{"ha":1050,"x_min":35,"x_max":1015,"o":"m 525 0 q 739 42 647 0 q 892 156 831 83 q 985 320 954 228 q 1015 514 1015 413 q 1011 634 1015 571 q 994 757 1007 697 q 958 865 982 817 q 894 943 933 914 q 797 972 856 972 q 682 941 724 972 q 624 863 640 910 q 607 765 607 815 q 613 669 607 708 q 624 594 618 631 q 629 503 629 557 q 621 428 629 467 q 590 363 613 389 q 525 338 568 338 q 461 363 483 338 q 430 428 439 389 q 421 503 421 467 q 426 594 421 557 q 438 669 432 631 q 443 765 443 708 q 426 863 443 815 q 369 941 410 910 q 253 972 328 972 q 156 943 194 972 q 92 865 117 914 q 56 757 68 817 q 39 634 43 697 q 35 514 35 571 q 65 320 35 413 q 158 156 96 228 q 311 42 219 83 q 525 0 403 0 m 525 1018 q 594 1047 565 1018 q 622 1115 622 1076 q 594 1184 622 1156 q 525 1213 565 1213 q 456 1184 485 1213 q 428 1115 428 1156 q 456 1047 428 1076 q 525 1018 485 1018 "},"Ù":{"ha":1050,"x_min":35,"x_max":1015,"o":"m 525 0 q 739 42 647 0 q 892 156 831 83 q 985 320 954 228 q 1015 514 1015 413 q 1011 634 1015 571 q 994 757 1007 697 q 958 865 982 817 q 894 943 933 914 q 797 972 856 972 q 682 941 724 972 q 624 863 640 910 q 607 765 607 815 q 613 669 607 708 q 624 594 618 631 q 629 503 629 557 q 621 428 629 467 q 590 363 613 389 q 525 338 568 338 q 461 363 483 338 q 430 428 439 389 q 421 503 421 467 q 426 594 421 557 q 438 669 432 631 q 443 765 443 708 q 426 863 443 815 q 369 941 410 910 q 253 972 328 972 q 156 943 194 972 q 92 865 117 914 q 56 757 68 817 q 39 634 43 697 q 35 514 35 571 q 65 320 35 413 q 158 156 96 228 q 311 42 219 83 q 525 0 403 0 m 567 978 q 617 999 599 978 q 635 1043 635 1021 q 618 1090 635 1063 q 576 1144 601 1117 q 524 1189 551 1171 q 475 1207 496 1207 q 410 1178 432 1207 q 389 1122 388 1150 q 409 1078 389 1103 q 458 1031 429 1054 q 517 993 488 1008 q 567 978 546 978 "},"Ủ":{"ha":1050,"x_min":35,"x_max":1015,"o":"m 525 0 q 739 42 647 0 q 892 156 831 83 q 985 320 954 228 q 1015 514 1015 413 q 1011 634 1015 571 q 994 757 1007 697 q 958 865 982 817 q 894 943 933 914 q 797 972 856 972 q 682 941 724 972 q 624 863 640 910 q 607 765 607 815 q 613 669 607 708 q 624 594 618 631 q 629 503 629 557 q 621 428 629 467 q 590 363 613 389 q 525 338 568 338 q 461 363 483 338 q 430 428 439 389 q 421 503 421 467 q 426 594 421 557 q 438 669 432 631 q 443 765 443 708 q 426 863 443 815 q 369 941 410 910 q 253 972 328 972 q 156 943 194 972 q 92 865 117 914 q 56 757 68 817 q 39 634 43 697 q 35 514 35 571 q 65 320 35 413 q 158 156 96 228 q 311 42 219 83 q 525 0 403 0 m 529 956 q 590 970 560 956 q 640 1014 619 985 q 660 1088 660 1043 q 617 1183 660 1147 q 503 1219 575 1219 q 458 1213 485 1219 q 410 1190 431 1206 q 390 1146 390 1174 q 410 1099 390 1111 q 456 1088 431 1088 q 494 1087 476 1088 q 511 1069 511 1086 q 499 1052 511 1057 q 475 1040 488 1047 q 463 1008 463 1032 q 483 969 463 982 q 529 956 504 956 "},"Ư":{"ha":1090,"x_min":35,"x_max":1125,"o":"m 525 0 q 739 42 647 0 q 892 156 831 83 q 985 320 954 228 q 1015 514 1015 413 q 1011 634 1015 571 q 994 757 1007 697 q 958 865 982 817 q 894 943 933 914 q 797 972 856 972 q 682 941 724 972 q 624 863 640 910 q 607 765 607 815 q 613 669 607 708 q 624 594 618 631 q 629 503 629 557 q 621 428 629 467 q 590 363 613 389 q 525 338 568 338 q 461 363 483 338 q 430 428 439 389 q 421 503 421 467 q 426 594 421 557 q 438 669 432 631 q 443 765 443 708 q 426 863 443 815 q 369 941 410 910 q 253 972 328 972 q 156 943 194 972 q 92 865 117 914 q 56 757 68 817 q 39 634 43 697 q 35 514 35 571 q 65 320 35 413 q 158 156 96 228 q 311 42 219 83 q 525 0 403 0 m 917 789 q 1030 817 983 789 q 1101 888 1076 844 q 1125 981 1125 932 q 1124 1035 1125 1004 q 1116 1094 1124 1065 q 1090 1142 1108 1124 q 1039 1161 1072 1161 q 981 1143 1001 1161 q 952 1099 960 1125 q 944 1047 944 1072 q 928 990 944 1004 q 878 974 911 975 q 800 971 846 974 q 728 944 750 969 q 706 878 706 919 q 763 809 706 829 q 917 789 819 789 "},"Ứ":{"ha":1090,"x_min":35,"x_max":1125,"o":"m 525 0 q 739 42 647 0 q 892 156 831 83 q 985 320 954 228 q 1015 514 1015 413 q 1011 634 1015 571 q 994 757 1007 697 q 958 865 982 817 q 894 943 933 914 q 797 972 856 972 q 682 941 724 972 q 624 863 640 910 q 607 765 607 815 q 613 669 607 708 q 624 594 618 631 q 629 503 629 557 q 621 428 629 467 q 590 363 613 389 q 525 338 568 338 q 461 363 483 338 q 430 428 439 389 q 421 503 421 467 q 426 594 421 557 q 438 669 432 631 q 443 765 443 708 q 426 863 443 815 q 369 941 410 910 q 253 972 328 972 q 156 943 194 972 q 92 865 117 914 q 56 757 68 817 q 39 634 43 697 q 35 514 35 571 q 65 320 35 413 q 158 156 96 228 q 311 42 219 83 q 525 0 403 0 m 917 789 q 1030 817 983 789 q 1101 888 1076 844 q 1125 981 1125 932 q 1124 1035 1125 1004 q 1116 1094 1124 1065 q 1090 1142 1108 1124 q 1039 1161 1072 1161 q 981 1143 1001 1161 q 952 1099 960 1125 q 944 1047 944 1072 q 928 990 944 1004 q 878 974 911 975 q 800 971 846 974 q 728 944 750 969 q 706 878 706 919 q 763 809 706 829 q 917 789 819 789 m 525 978 q 575 993 546 978 q 633 1031 604 1008 q 683 1078 663 1054 q 703 1122 703 1103 q 682 1178 704 1150 q 617 1207 660 1207 q 568 1189 596 1207 q 515 1144 540 1171 q 474 1090 490 1117 q 457 1043 457 1063 q 476 999 457 1021 q 525 978 494 978 "},"Ự":{"ha":1090,"x_min":35,"x_max":1125,"o":"m 525 0 q 739 42 647 0 q 892 156 831 83 q 985 320 954 228 q 1015 514 1015 413 q 1011 634 1015 571 q 994 757 1007 697 q 958 865 982 817 q 894 943 933 914 q 797 972 856 972 q 682 941 724 972 q 624 863 640 910 q 607 765 607 815 q 613 669 607 708 q 624 594 618 631 q 629 503 629 557 q 621 428 629 467 q 590 363 613 389 q 525 338 568 338 q 461 363 483 338 q 430 428 439 389 q 421 503 421 467 q 426 594 421 557 q 438 669 432 631 q 443 765 443 708 q 426 863 443 815 q 369 941 410 910 q 253 972 328 972 q 156 943 194 972 q 92 865 117 914 q 56 757 68 817 q 39 634 43 697 q 35 514 35 571 q 65 320 35 413 q 158 156 96 228 q 311 42 219 83 q 525 0 403 0 m 917 789 q 1030 817 983 789 q 1101 888 1076 844 q 1125 981 1125 932 q 1124 1035 1125 1004 q 1116 1094 1124 1065 q 1090 1142 1108 1124 q 1039 1161 1072 1161 q 981 1143 1001 1161 q 952 1099 960 1125 q 944 1047 944 1072 q 928 990 944 1004 q 878 974 911 975 q 800 971 846 974 q 728 944 750 969 q 706 878 706 919 q 763 809 706 829 q 917 789 819 789 m 531 -251 q 599 -222 571 -251 q 628 -154 628 -193 q 599 -85 628 -114 q 531 -57 571 -57 q 462 -85 490 -57 q 433 -154 433 -114 q 462 -222 433 -193 q 531 -251 490 -251 "},"Ừ":{"ha":1090,"x_min":35,"x_max":1125,"o":"m 525 0 q 739 42 647 0 q 892 156 831 83 q 985 320 954 228 q 1015 514 1015 413 q 1011 634 1015 571 q 994 757 1007 697 q 958 865 982 817 q 894 943 933 914 q 797 972 856 972 q 682 941 724 972 q 624 863 640 910 q 607 765 607 815 q 613 669 607 708 q 624 594 618 631 q 629 503 629 557 q 621 428 629 467 q 590 363 613 389 q 525 338 568 338 q 461 363 483 338 q 430 428 439 389 q 421 503 421 467 q 426 594 421 557 q 438 669 432 631 q 443 765 443 708 q 426 863 443 815 q 369 941 410 910 q 253 972 328 972 q 156 943 194 972 q 92 865 117 914 q 56 757 68 817 q 39 634 43 697 q 35 514 35 571 q 65 320 35 413 q 158 156 96 228 q 311 42 219 83 q 525 0 403 0 m 917 789 q 1030 817 983 789 q 1101 888 1076 844 q 1125 981 1125 932 q 1124 1035 1125 1004 q 1116 1094 1124 1065 q 1090 1142 1108 1124 q 1039 1161 1072 1161 q 981 1143 1001 1161 q 952 1099 960 1125 q 944 1047 944 1072 q 928 990 944 1004 q 878 974 911 975 q 800 971 846 974 q 728 944 750 969 q 706 878 706 919 q 763 809 706 829 q 917 789 819 789 m 567 978 q 617 999 599 978 q 635 1043 635 1021 q 618 1090 635 1063 q 576 1144 601 1117 q 524 1189 551 1171 q 475 1207 496 1207 q 410 1178 432 1207 q 389 1122 388 1150 q 409 1078 389 1103 q 458 1031 429 1054 q 517 993 488 1008 q 567 978 546 978 "},"Ử":{"ha":1090,"x_min":35,"x_max":1125,"o":"m 525 0 q 739 42 647 0 q 892 156 831 83 q 985 320 954 228 q 1015 514 1015 413 q 1011 634 1015 571 q 994 757 1007 697 q 958 865 982 817 q 894 943 933 914 q 797 972 856 972 q 682 941 724 972 q 624 863 640 910 q 607 765 607 815 q 613 669 607 708 q 624 594 618 631 q 629 503 629 557 q 621 428 629 467 q 590 363 613 389 q 525 338 568 338 q 461 363 483 338 q 430 428 439 389 q 421 503 421 467 q 426 594 421 557 q 438 669 432 631 q 443 765 443 708 q 426 863 443 815 q 369 941 410 910 q 253 972 328 972 q 156 943 194 972 q 92 865 117 914 q 56 757 68 817 q 39 634 43 697 q 35 514 35 571 q 65 320 35 413 q 158 156 96 228 q 311 42 219 83 q 525 0 403 0 m 917 789 q 1030 817 983 789 q 1101 888 1076 844 q 1125 981 1125 932 q 1124 1035 1125 1004 q 1116 1094 1124 1065 q 1090 1142 1108 1124 q 1039 1161 1072 1161 q 981 1143 1001 1161 q 952 1099 960 1125 q 944 1047 944 1072 q 928 990 944 1004 q 878 974 911 975 q 800 971 846 974 q 728 944 750 969 q 706 878 706 919 q 763 809 706 829 q 917 789 819 789 m 514 956 q 574 970 544 956 q 624 1014 604 985 q 644 1088 644 1043 q 602 1183 644 1147 q 488 1219 560 1219 q 442 1213 469 1219 q 395 1190 415 1206 q 375 1146 375 1174 q 395 1099 375 1111 q 440 1088 415 1088 q 478 1087 461 1088 q 496 1069 496 1086 q 484 1052 496 1057 q 460 1040 472 1047 q 447 1008 447 1032 q 468 969 447 982 q 514 956 489 956 "},"Ữ":{"ha":1090,"x_min":35,"x_max":1125,"o":"m 525 0 q 739 42 647 0 q 892 156 831 83 q 985 320 954 228 q 1015 514 1015 413 q 1011 634 1015 571 q 994 757 1007 697 q 958 865 982 817 q 894 943 933 914 q 797 972 856 972 q 682 941 724 972 q 624 863 640 910 q 607 765 607 815 q 613 669 607 708 q 624 594 618 631 q 629 503 629 557 q 621 428 629 467 q 590 363 613 389 q 525 338 568 338 q 461 363 483 338 q 430 428 439 389 q 421 503 421 467 q 426 594 421 557 q 438 669 432 631 q 443 765 443 708 q 426 863 443 815 q 369 941 410 910 q 253 972 328 972 q 156 943 194 972 q 92 865 117 914 q 56 757 68 817 q 39 634 43 697 q 35 514 35 571 q 65 320 35 413 q 158 156 96 228 q 311 42 219 83 q 525 0 403 0 m 917 789 q 1030 817 983 789 q 1101 888 1076 844 q 1125 981 1125 932 q 1124 1035 1125 1004 q 1116 1094 1124 1065 q 1090 1142 1108 1124 q 1039 1161 1072 1161 q 981 1143 1001 1161 q 952 1099 960 1125 q 944 1047 944 1072 q 928 990 944 1004 q 878 974 911 975 q 800 971 846 974 q 728 944 750 969 q 706 878 706 919 q 763 809 706 829 q 917 789 819 789 m 350 1007 q 393 1017 381 1007 q 420 1038 406 1028 q 468 1049 435 1049 q 509 1038 493 1049 q 551 1015 525 1026 q 631 1004 578 1004 q 708 1024 674 1004 q 765 1074 743 1044 q 786 1133 786 1104 q 760 1199 786 1176 q 699 1221 735 1221 q 656 1210 669 1221 q 628 1189 643 1200 q 581 1178 614 1178 q 540 1190 556 1178 q 498 1213 524 1201 q 418 1224 472 1224 q 341 1203 376 1224 q 284 1154 306 1183 q 263 1094 263 1125 q 288 1029 263 1051 q 350 1007 314 1007 "},"Ű":{"ha":1050,"x_min":35,"x_max":1015,"o":"m 525 0 q 739 42 647 0 q 892 156 831 83 q 985 320 954 228 q 1015 514 1015 413 q 1011 634 1015 571 q 994 757 1007 697 q 958 865 982 817 q 894 943 933 914 q 797 972 856 972 q 682 941 724 972 q 624 863 640 910 q 607 765 607 815 q 613 669 607 708 q 624 594 618 631 q 629 503 629 557 q 621 428 629 467 q 590 363 613 389 q 525 338 568 338 q 461 363 483 338 q 430 428 439 389 q 421 503 421 467 q 426 594 421 557 q 438 669 432 631 q 443 765 443 708 q 426 863 443 815 q 369 941 410 910 q 253 972 328 972 q 156 943 194 972 q 92 865 117 914 q 56 757 68 817 q 39 634 43 697 q 35 514 35 571 q 65 320 35 413 q 158 156 96 228 q 311 42 219 83 q 525 0 403 0 m 376 1007 q 422 1022 397 1007 q 471 1059 447 1036 q 510 1106 494 1082 q 526 1150 526 1131 q 506 1207 528 1178 q 440 1236 483 1236 q 396 1218 419 1236 q 353 1173 372 1200 q 321 1119 333 1146 q 308 1072 308 1092 q 327 1028 308 1050 q 376 1007 346 1007 m 604 1006 q 652 1021 625 1006 q 706 1059 679 1036 q 750 1106 732 1082 q 768 1150 768 1131 q 747 1206 769 1178 q 682 1235 725 1235 q 635 1217 661 1235 q 588 1172 610 1199 q 551 1117 565 1144 q 536 1071 536 1090 q 555 1027 536 1049 q 604 1006 574 1006 "},"Ȗ":{"ha":1050,"x_min":35,"x_max":1015,"o":"m 525 0 q 739 42 647 0 q 892 156 831 83 q 985 320 954 228 q 1015 514 1015 413 q 1011 634 1015 571 q 994 757 1007 697 q 958 865 982 817 q 894 943 933 914 q 797 972 856 972 q 682 941 724 972 q 624 863 640 910 q 607 765 607 815 q 613 669 607 708 q 624 594 618 631 q 629 503 629 557 q 621 428 629 467 q 590 363 613 389 q 525 338 568 338 q 461 363 483 338 q 430 428 439 389 q 421 503 421 467 q 426 594 421 557 q 438 669 432 631 q 443 765 443 708 q 426 863 443 815 q 369 941 410 910 q 253 972 328 972 q 156 943 194 972 q 92 865 117 914 q 56 757 68 817 q 39 634 43 697 q 35 514 35 571 q 65 320 35 413 q 158 156 96 228 q 311 42 219 83 q 525 0 403 0 m 524 1226 q 423 1202 465 1226 q 358 1142 381 1178 q 335 1074 335 1107 q 350 1024 335 1049 q 401 999 365 999 q 451 1017 435 999 q 482 1053 468 1035 q 525 1077 500 1076 q 568 1053 550 1078 q 597 1017 582 1035 q 650 999 611 999 q 701 1024 686 999 q 717 1074 717 1049 q 693 1144 717 1108 q 626 1203 669 1179 q 524 1226 583 1226 "},"Ū":{"ha":1050,"x_min":35,"x_max":1015,"o":"m 525 0 q 739 42 647 0 q 892 156 831 83 q 985 320 954 228 q 1015 514 1015 413 q 1011 634 1015 571 q 994 757 1007 697 q 958 865 982 817 q 894 943 933 914 q 797 972 856 972 q 682 941 724 972 q 624 863 640 910 q 607 765 607 815 q 613 669 607 708 q 624 594 618 631 q 629 503 629 557 q 621 428 629 467 q 590 363 613 389 q 525 338 568 338 q 461 363 483 338 q 430 428 439 389 q 421 503 421 467 q 426 594 421 557 q 438 669 432 631 q 443 765 443 708 q 426 863 443 815 q 369 941 410 910 q 253 972 328 972 q 156 943 194 972 q 92 865 117 914 q 56 757 68 817 q 39 634 43 697 q 35 514 35 571 q 65 320 35 413 q 158 156 96 228 q 311 42 219 83 q 525 0 403 0 m 525 1035 q 613 1035 568 1035 q 695 1042 657 1035 q 757 1067 733 1049 q 781 1124 781 1086 q 757 1179 781 1160 q 695 1207 733 1199 q 613 1217 657 1215 q 525 1218 568 1218 q 438 1217 483 1218 q 356 1207 393 1215 q 294 1179 318 1199 q 271 1124 271 1160 q 294 1067 271 1086 q 356 1042 318 1049 q 438 1035 393 1035 q 525 1035 483 1035 "},"Ų":{"ha":1050,"x_min":35,"x_max":1015,"o":"m 525 0 q 739 42 647 0 q 892 156 831 83 q 985 320 954 228 q 1015 514 1015 413 q 1011 634 1015 571 q 994 757 1007 697 q 958 865 982 817 q 894 943 933 914 q 797 972 856 972 q 682 941 724 972 q 624 863 640 910 q 607 765 607 815 q 613 669 607 708 q 624 594 618 631 q 629 503 629 557 q 621 428 629 467 q 590 363 613 389 q 525 338 568 338 q 461 363 483 338 q 430 428 439 389 q 421 503 421 467 q 426 594 421 557 q 438 669 432 631 q 443 765 443 708 q 426 863 443 815 q 369 941 410 910 q 253 972 328 972 q 156 943 194 972 q 92 865 117 914 q 56 757 68 817 q 39 634 43 697 q 35 514 35 571 q 65 320 35 413 q 158 156 96 228 q 311 42 219 83 q 525 0 403 0 m 549 -308 q 647 -285 618 -308 q 676 -229 676 -262 q 656 -174 676 -190 q 610 -158 636 -158 q 577 -151 594 -158 q 560 -119 560 -144 q 582 -74 560 -93 q 626 -35 604 -54 q 706 46 692 22 q 676 69 721 69 l 554 69 q 498 54 529 69 q 437 10 467 39 q 388 -55 407 -18 q 368 -136 368 -92 q 418 -267 368 -225 q 549 -308 468 -308 "},"Ů":{"ha":1050,"x_min":35,"x_max":1015,"o":"m 525 0 q 739 42 647 0 q 892 156 831 83 q 985 320 954 228 q 1015 514 1015 413 q 1011 634 1015 571 q 994 757 1007 697 q 958 865 982 817 q 894 943 933 914 q 797 972 856 972 q 682 941 724 972 q 624 863 640 910 q 607 765 607 815 q 613 669 607 708 q 624 594 618 631 q 629 503 629 557 q 621 428 629 467 q 590 363 613 389 q 525 338 568 338 q 461 363 483 338 q 430 428 439 389 q 421 503 421 467 q 426 594 421 557 q 438 669 432 631 q 443 765 443 708 q 426 863 443 815 q 369 941 410 910 q 253 972 328 972 q 156 943 194 972 q 92 865 117 914 q 56 757 68 817 q 39 634 43 697 q 35 514 35 571 q 65 320 35 413 q 158 156 96 228 q 311 42 219 83 q 525 0 403 0 m 525 940 q 610 964 571 940 q 673 1026 649 988 q 697 1113 697 1065 q 673 1198 697 1158 q 610 1261 649 1238 q 525 1285 571 1285 q 439 1261 478 1285 q 376 1198 400 1238 q 351 1113 351 1158 q 376 1026 351 1065 q 439 964 400 988 q 525 940 478 940 m 525 1063 q 491 1077 506 1063 q 476 1110 476 1092 q 491 1142 476 1128 q 525 1157 506 1157 q 557 1142 543 1157 q 571 1110 571 1128 q 557 1077 571 1092 q 525 1063 543 1063 "},"Ũ":{"ha":1050,"x_min":35,"x_max":1015,"o":"m 525 0 q 739 42 647 0 q 892 156 831 83 q 985 320 954 228 q 1015 514 1015 413 q 1011 634 1015 571 q 994 757 1007 697 q 958 865 982 817 q 894 943 933 914 q 797 972 856 972 q 682 941 724 972 q 624 863 640 910 q 607 765 607 815 q 613 669 607 708 q 624 594 618 631 q 629 503 629 557 q 621 428 629 467 q 590 363 613 389 q 525 338 568 338 q 461 363 483 338 q 430 428 439 389 q 421 503 421 467 q 426 594 421 557 q 438 669 432 631 q 443 765 443 708 q 426 863 443 815 q 369 941 410 910 q 253 972 328 972 q 156 943 194 972 q 92 865 117 914 q 56 757 68 817 q 39 634 43 697 q 35 514 35 571 q 65 320 35 413 q 158 156 96 228 q 311 42 219 83 q 525 0 403 0 m 351 1021 q 394 1031 382 1021 q 422 1052 407 1042 q 469 1063 436 1063 q 510 1051 494 1063 q 553 1029 526 1040 q 632 1018 579 1018 q 710 1038 675 1018 q 766 1088 744 1058 q 788 1147 788 1118 q 762 1213 788 1190 q 700 1235 736 1235 q 658 1224 671 1235 q 630 1203 644 1214 q 582 1192 615 1192 q 541 1203 557 1192 q 499 1226 525 1215 q 419 1238 474 1238 q 342 1217 378 1238 q 285 1168 307 1197 q 264 1108 264 1139 q 290 1043 264 1065 q 351 1021 315 1021 "},"V":{"ha":1065,"x_min":35,"x_max":1031,"o":"m 535 0 q 694 47 619 0 q 831 173 769 94 q 938 347 893 251 q 1006 542 982 443 q 1031 726 1031 640 q 985 901 1031 832 q 843 971 940 971 q 741 930 782 971 q 672 822 700 889 q 624 673 644 754 q 583 510 603 592 q 535 361 563 429 q 494 510 513 429 q 454 673 475 592 q 404 822 433 754 q 331 930 375 889 q 222 971 288 971 q 117 938 158 971 q 55 849 75 904 q 35 726 35 794 q 59 542 35 640 q 128 347 83 443 q 236 173 174 251 q 374 47 299 94 q 535 0 450 0 "},"W":{"ha":1256,"x_min":35,"x_max":1221,"o":"m 400 0 q 517 28 458 0 q 628 113 576 56 q 738 28 679 56 q 856 1 796 1 q 1050 62 968 1 q 1176 234 1132 122 q 1221 500 1221 346 q 1206 636 1221 563 q 1161 776 1192 710 q 1083 886 1131 843 q 971 929 1036 929 q 872 888 915 929 q 829 778 829 846 q 847 683 829 735 q 882 577 864 632 q 903 467 900 522 q 890 370 906 401 q 847 339 875 339 q 792 380 810 339 q 774 525 774 421 q 773 633 774 576 q 761 741 772 690 q 717 824 750 792 q 622 856 685 856 q 528 822 560 856 q 487 737 497 789 q 477 626 476 685 q 478 517 478 568 q 463 385 478 419 q 414 350 449 350 q 371 376 390 350 q 351 467 351 401 q 369 581 351 522 q 406 692 388 640 q 424 778 424 744 q 384 888 424 843 q 282 932 344 932 q 176 889 222 932 q 99 778 131 846 q 51 637 67 711 q 35 500 35 563 q 79 234 35 346 q 206 61 124 122 q 400 0 289 0 "},"Ẃ":{"ha":1256,"x_min":35,"x_max":1221,"o":"m 400 0 q 517 28 458 0 q 628 113 576 56 q 738 28 679 56 q 856 1 796 1 q 1050 62 968 1 q 1176 234 1132 122 q 1221 500 1221 346 q 1206 636 1221 563 q 1161 776 1192 710 q 1083 886 1131 843 q 971 929 1036 929 q 872 888 915 929 q 829 778 829 846 q 847 683 829 735 q 882 577 864 632 q 903 467 900 522 q 890 370 906 401 q 847 339 875 339 q 792 380 810 339 q 774 525 774 421 q 773 633 774 576 q 761 741 772 690 q 717 824 750 792 q 622 856 685 856 q 528 822 560 856 q 487 737 497 789 q 477 626 476 685 q 478 517 478 568 q 463 385 478 419 q 414 350 449 350 q 371 376 390 350 q 351 467 351 401 q 369 581 351 522 q 406 692 388 640 q 424 778 424 744 q 384 888 424 843 q 282 932 344 932 q 176 889 222 932 q 99 778 131 846 q 51 637 67 711 q 35 500 35 563 q 79 234 35 346 q 206 61 124 122 q 400 0 289 0 m 572 936 q 622 951 593 936 q 681 990 651 967 q 730 1037 710 1013 q 750 1081 750 1061 q 729 1137 751 1108 q 664 1165 707 1165 q 615 1147 643 1165 q 563 1102 588 1129 q 521 1048 538 1075 q 504 1001 504 1021 q 523 958 504 979 q 572 936 542 936 "},"Ŵ":{"ha":1256,"x_min":35,"x_max":1221,"o":"m 400 0 q 517 28 458 0 q 628 113 576 56 q 738 28 679 56 q 856 1 796 1 q 1050 62 968 1 q 1176 234 1132 122 q 1221 500 1221 346 q 1206 636 1221 563 q 1161 776 1192 710 q 1083 886 1131 843 q 971 929 1036 929 q 872 888 915 929 q 829 778 829 846 q 847 683 829 735 q 882 577 864 632 q 903 467 900 522 q 890 370 906 401 q 847 339 875 339 q 792 380 810 339 q 774 525 774 421 q 773 633 774 576 q 761 741 772 690 q 717 824 750 792 q 622 856 685 856 q 528 822 560 856 q 487 737 497 789 q 477 626 476 685 q 478 517 478 568 q 463 385 478 419 q 414 350 449 350 q 371 376 390 350 q 351 467 351 401 q 369 581 351 522 q 406 692 388 640 q 424 778 424 744 q 384 888 424 843 q 282 932 344 932 q 176 889 222 932 q 99 778 131 846 q 51 637 67 711 q 35 500 35 563 q 79 234 35 346 q 206 61 124 122 q 400 0 289 0 m 510 954 q 576 976 544 954 q 629 1026 607 997 q 682 976 651 997 q 747 954 713 954 q 806 975 785 954 q 826 1031 826 996 q 796 1103 826 1065 q 719 1167 765 1140 q 626 1193 674 1193 q 534 1166 579 1193 q 460 1101 489 1139 q 431 1031 431 1064 q 451 975 431 996 q 510 954 472 954 "},"Ẅ":{"ha":1256,"x_min":35,"x_max":1221,"o":"m 400 0 q 517 28 458 0 q 628 113 576 56 q 738 28 679 56 q 856 1 796 1 q 1050 62 968 1 q 1176 234 1132 122 q 1221 500 1221 346 q 1206 636 1221 563 q 1161 776 1192 710 q 1083 886 1131 843 q 971 929 1036 929 q 872 888 915 929 q 829 778 829 846 q 847 683 829 735 q 882 577 864 632 q 903 467 900 522 q 890 370 906 401 q 847 339 875 339 q 792 380 810 339 q 774 525 774 421 q 773 633 774 576 q 761 741 772 690 q 717 824 750 792 q 622 856 685 856 q 528 822 560 856 q 487 737 497 789 q 477 626 476 685 q 478 517 478 568 q 463 385 478 419 q 414 350 449 350 q 371 376 390 350 q 351 467 351 401 q 369 581 351 522 q 406 692 388 640 q 424 778 424 744 q 384 888 424 843 q 282 932 344 932 q 176 889 222 932 q 99 778 131 846 q 51 637 67 711 q 35 500 35 563 q 79 234 35 346 q 206 61 124 122 q 400 0 289 0 m 765 953 q 841 985 810 953 q 872 1060 872 1017 q 841 1135 872 1104 q 765 1167 810 1167 q 690 1135 721 1167 q 658 1060 658 1104 q 690 985 658 1017 q 765 953 721 953 m 493 951 q 568 983 538 951 q 599 1058 599 1014 q 568 1134 599 1103 q 493 1165 538 1165 q 417 1134 449 1165 q 385 1058 385 1103 q 417 983 385 1014 q 493 951 449 951 "},"Ẁ":{"ha":1256,"x_min":35,"x_max":1221,"o":"m 400 0 q 517 28 458 0 q 628 113 576 56 q 738 28 679 56 q 856 1 796 1 q 1050 62 968 1 q 1176 234 1132 122 q 1221 500 1221 346 q 1206 636 1221 563 q 1161 776 1192 710 q 1083 886 1131 843 q 971 929 1036 929 q 872 888 915 929 q 829 778 829 846 q 847 683 829 735 q 882 577 864 632 q 903 467 900 522 q 890 370 906 401 q 847 339 875 339 q 792 380 810 339 q 774 525 774 421 q 773 633 774 576 q 761 741 772 690 q 717 824 750 792 q 622 856 685 856 q 528 822 560 856 q 487 737 497 789 q 477 626 476 685 q 478 517 478 568 q 463 385 478 419 q 414 350 449 350 q 371 376 390 350 q 351 467 351 401 q 369 581 351 522 q 406 692 388 640 q 424 778 424 744 q 384 888 424 843 q 282 932 344 932 q 176 889 222 932 q 99 778 131 846 q 51 637 67 711 q 35 500 35 563 q 79 234 35 346 q 206 61 124 122 q 400 0 289 0 m 683 936 q 733 958 715 936 q 751 1001 751 979 q 735 1048 751 1021 q 693 1102 718 1075 q 640 1147 668 1129 q 592 1165 613 1165 q 526 1137 549 1165 q 506 1081 504 1108 q 526 1037 506 1061 q 575 990 546 1013 q 633 951 604 967 q 683 936 663 936 "},"X":{"ha":1007,"x_min":24,"x_max":986,"o":"m 186 0 q 276 25 225 0 q 384 92 328 50 q 497 183 440 133 q 611 93 554 135 q 719 27 668 51 q 810 3 771 3 q 899 27 865 3 q 947 89 932 51 q 961 167 961 126 q 912 308 961 226 q 789 478 863 389 q 903 611 860 556 q 967 710 947 667 q 986 796 986 754 q 959 892 986 853 q 890 951 932 931 q 800 972 847 972 q 717 958 756 972 q 629 905 679 944 q 500 788 579 865 q 402 883 442 846 q 331 939 363 919 q 272 965 300 958 q 208 972 243 972 q 120 952 163 972 q 51 893 78 932 q 24 796 24 854 q 41 710 24 754 q 99 611 58 667 q 208 478 139 556 q 84 306 133 389 q 35 164 35 224 q 72 49 35 99 q 186 0 108 0 "},"Y":{"ha":996,"x_min":35,"x_max":961,"o":"m 497 0 q 571 18 536 0 q 628 72 606 36 q 650 163 650 108 q 649 222 650 196 q 874 353 788 254 q 961 632 961 453 q 938 807 961 731 q 865 926 914 883 q 742 969 817 969 q 618 924 665 969 q 571 796 571 878 q 577 705 571 753 q 583 629 583 657 q 565 542 583 574 q 497 510 546 510 q 431 542 450 510 q 411 629 411 574 q 417 703 411 657 q 424 794 424 749 q 377 924 424 878 q 254 969 331 969 q 89 873 143 969 q 35 615 35 776 q 117 356 35 453 q 332 225 200 260 q 331 163 331 197 q 355 74 331 110 q 417 19 379 38 q 497 0 456 0 "},"Ý":{"ha":996,"x_min":35,"x_max":961,"o":"m 497 0 q 571 18 536 0 q 628 72 606 36 q 650 163 650 108 q 649 222 650 196 q 874 353 788 254 q 961 632 961 453 q 938 807 961 731 q 865 926 914 883 q 742 969 817 969 q 618 924 665 969 q 571 796 571 878 q 577 705 571 753 q 583 629 583 657 q 565 542 583 574 q 497 510 546 510 q 431 542 450 510 q 411 629 411 574 q 417 703 411 657 q 424 794 424 749 q 377 924 424 878 q 254 969 331 969 q 89 873 143 969 q 35 615 35 776 q 117 356 35 453 q 332 225 200 260 q 331 163 331 197 q 355 74 331 110 q 417 19 379 38 q 497 0 456 0 m 457 978 q 507 993 478 978 q 565 1031 536 1008 q 615 1078 594 1054 q 635 1122 635 1103 q 614 1178 636 1150 q 549 1207 592 1207 q 500 1189 528 1207 q 447 1144 472 1171 q 406 1090 422 1117 q 389 1043 389 1063 q 408 999 389 1021 q 457 978 426 978 "},"Ŷ":{"ha":996,"x_min":35,"x_max":961,"o":"m 497 0 q 571 18 536 0 q 628 72 606 36 q 650 163 650 108 q 649 222 650 196 q 874 353 788 254 q 961 632 961 453 q 938 807 961 731 q 865 926 914 883 q 742 969 817 969 q 618 924 665 969 q 571 796 571 878 q 577 705 571 753 q 583 629 583 657 q 565 542 583 574 q 497 510 546 510 q 431 542 450 510 q 411 629 411 574 q 417 703 411 657 q 424 794 424 749 q 377 924 424 878 q 254 969 331 969 q 89 873 143 969 q 35 615 35 776 q 117 356 35 453 q 332 225 200 260 q 331 163 331 197 q 355 74 331 110 q 417 19 379 38 q 497 0 456 0 m 379 996 q 445 1017 414 996 q 499 1068 476 1039 q 551 1017 521 1039 q 617 996 582 996 q 675 1017 654 996 q 696 1072 696 1038 q 665 1144 696 1107 q 589 1208 635 1182 q 496 1235 543 1235 q 403 1208 449 1235 q 329 1143 358 1181 q 300 1072 300 1106 q 321 1017 300 1038 q 379 996 342 996 "},"Ÿ":{"ha":996,"x_min":35,"x_max":961,"o":"m 497 0 q 571 18 536 0 q 628 72 606 36 q 650 163 650 108 q 649 222 650 196 q 874 353 788 254 q 961 632 961 453 q 938 807 961 731 q 865 926 914 883 q 742 969 817 969 q 618 924 665 969 q 571 796 571 878 q 577 705 571 753 q 583 629 583 657 q 565 542 583 574 q 497 510 546 510 q 431 542 450 510 q 411 629 411 574 q 417 703 411 657 q 424 794 424 749 q 377 924 424 878 q 254 969 331 969 q 89 873 143 969 q 35 615 35 776 q 117 356 35 453 q 332 225 200 260 q 331 163 331 197 q 355 74 331 110 q 417 19 379 38 q 497 0 456 0 m 635 1008 q 710 1040 679 1008 q 742 1115 742 1072 q 710 1191 742 1160 q 635 1222 679 1222 q 559 1191 590 1222 q 528 1115 528 1160 q 559 1040 528 1072 q 635 1008 590 1008 m 363 1007 q 438 1038 407 1007 q 468 1114 468 1069 q 438 1190 468 1158 q 363 1221 407 1221 q 286 1190 318 1221 q 254 1114 254 1158 q 286 1038 254 1069 q 363 1007 318 1007 "},"Ỵ":{"ha":996,"x_min":35,"x_max":961,"o":"m 497 0 q 571 18 536 0 q 628 72 606 36 q 650 163 650 108 q 649 222 650 196 q 874 353 788 254 q 961 632 961 453 q 938 807 961 731 q 865 926 914 883 q 742 969 817 969 q 618 924 665 969 q 571 796 571 878 q 577 705 571 753 q 583 629 583 657 q 565 542 583 574 q 497 510 546 510 q 431 542 450 510 q 411 629 411 574 q 417 703 411 657 q 424 794 424 749 q 377 924 424 878 q 254 969 331 969 q 89 873 143 969 q 35 615 35 776 q 117 356 35 453 q 332 225 200 260 q 331 163 331 197 q 355 74 331 110 q 417 19 379 38 q 497 0 456 0 m 499 -240 q 567 -211 539 -240 q 596 -143 596 -182 q 567 -74 596 -103 q 499 -46 539 -46 q 430 -74 458 -46 q 401 -143 401 -103 q 430 -211 401 -182 q 499 -240 458 -240 "},"Ỳ":{"ha":996,"x_min":35,"x_max":961,"o":"m 497 0 q 571 18 536 0 q 628 72 606 36 q 650 163 650 108 q 649 222 650 196 q 874 353 788 254 q 961 632 961 453 q 938 807 961 731 q 865 926 914 883 q 742 969 817 969 q 618 924 665 969 q 571 796 571 878 q 577 705 571 753 q 583 629 583 657 q 565 542 583 574 q 497 510 546 510 q 431 542 450 510 q 411 629 411 574 q 417 703 411 657 q 424 794 424 749 q 377 924 424 878 q 254 969 331 969 q 89 873 143 969 q 35 615 35 776 q 117 356 35 453 q 332 225 200 260 q 331 163 331 197 q 355 74 331 110 q 417 19 379 38 q 497 0 456 0 m 539 978 q 589 999 571 978 q 607 1043 607 1021 q 590 1090 607 1063 q 549 1144 574 1117 q 496 1189 524 1171 q 447 1207 468 1207 q 382 1178 404 1207 q 361 1122 360 1150 q 381 1078 361 1103 q 431 1031 401 1054 q 489 993 460 1008 q 539 978 518 978 "},"Ỷ":{"ha":996,"x_min":35,"x_max":961,"o":"m 497 0 q 571 18 536 0 q 628 72 606 36 q 650 163 650 108 q 649 222 650 196 q 874 353 788 254 q 961 632 961 453 q 938 807 961 731 q 865 926 914 883 q 742 969 817 969 q 618 924 665 969 q 571 796 571 878 q 577 705 571 753 q 583 629 583 657 q 565 542 583 574 q 497 510 546 510 q 431 542 450 510 q 411 629 411 574 q 417 703 411 657 q 424 794 424 749 q 377 924 424 878 q 254 969 331 969 q 89 873 143 969 q 35 615 35 776 q 117 356 35 453 q 332 225 200 260 q 331 163 331 197 q 355 74 331 110 q 417 19 379 38 q 497 0 456 0 m 503 956 q 563 970 533 956 q 613 1014 593 985 q 633 1088 633 1043 q 591 1183 633 1147 q 476 1219 549 1219 q 431 1213 458 1219 q 384 1190 404 1206 q 364 1146 364 1174 q 384 1099 364 1111 q 429 1088 404 1088 q 467 1087 450 1088 q 485 1069 485 1086 q 473 1052 485 1057 q 449 1040 461 1047 q 436 1008 436 1032 q 457 969 436 982 q 503 956 478 956 "},"Ȳ":{"ha":996,"x_min":35,"x_max":961,"o":"m 497 0 q 571 18 536 0 q 628 72 606 36 q 650 163 650 108 q 649 222 650 196 q 874 353 788 254 q 961 632 961 453 q 938 807 961 731 q 865 926 914 883 q 742 969 817 969 q 618 924 665 969 q 571 796 571 878 q 577 705 571 753 q 583 629 583 657 q 565 542 583 574 q 497 510 546 510 q 431 542 450 510 q 411 629 411 574 q 417 703 411 657 q 424 794 424 749 q 377 924 424 878 q 254 969 331 969 q 89 873 143 969 q 35 615 35 776 q 117 356 35 453 q 332 225 200 260 q 331 163 331 197 q 355 74 331 110 q 417 19 379 38 q 497 0 456 0 m 497 1021 q 585 1021 540 1021 q 667 1028 629 1021 q 729 1053 706 1035 q 753 1110 753 1072 q 729 1165 753 1146 q 667 1193 706 1185 q 585 1203 629 1201 q 497 1204 540 1204 q 410 1203 456 1204 q 328 1193 365 1201 q 267 1165 290 1185 q 243 1110 243 1146 q 267 1053 243 1072 q 328 1028 290 1035 q 410 1021 365 1021 q 497 1021 456 1021 "},"Ỹ":{"ha":996,"x_min":35,"x_max":961,"o":"m 497 0 q 571 18 536 0 q 628 72 606 36 q 650 163 650 108 q 649 222 650 196 q 874 353 788 254 q 961 632 961 453 q 938 807 961 731 q 865 926 914 883 q 742 969 817 969 q 618 924 665 969 q 571 796 571 878 q 577 705 571 753 q 583 629 583 657 q 565 542 583 574 q 497 510 546 510 q 431 542 450 510 q 411 629 411 574 q 417 703 411 657 q 424 794 424 749 q 377 924 424 878 q 254 969 331 969 q 89 873 143 969 q 35 615 35 776 q 117 356 35 453 q 332 225 200 260 q 331 163 331 197 q 355 74 331 110 q 417 19 379 38 q 497 0 456 0 m 324 1021 q 367 1031 354 1021 q 394 1052 379 1042 q 442 1063 408 1063 q 483 1051 467 1063 q 525 1029 499 1040 q 604 1018 551 1018 q 682 1038 647 1018 q 738 1088 717 1058 q 760 1147 760 1118 q 734 1213 760 1190 q 672 1235 708 1235 q 630 1224 643 1235 q 602 1203 617 1214 q 554 1192 588 1192 q 513 1203 529 1192 q 472 1226 497 1215 q 392 1238 446 1238 q 315 1217 350 1238 q 258 1168 279 1197 q 236 1108 236 1139 q 262 1043 236 1065 q 324 1021 288 1021 "},"Z":{"ha":903,"x_min":35,"x_max":868,"o":"m 457 0 q 590 3 519 0 q 724 20 661 6 q 826 69 786 35 q 865 165 865 103 q 839 251 865 219 q 767 299 813 283 q 664 321 722 315 q 543 328 606 326 q 659 402 601 361 q 764 492 717 443 q 840 596 811 540 q 868 714 868 651 q 828 848 868 797 q 722 924 789 899 q 572 959 656 950 q 397 968 488 968 q 215 947 297 968 q 83 881 132 926 q 35 758 35 835 q 72 658 35 696 q 168 603 110 621 q 292 582 226 585 q 413 585 357 579 q 300 504 361 549 q 185 410 239 460 q 97 310 132 361 q 63 211 63 260 q 97 93 63 136 q 190 30 132 50 q 317 5 247 10 q 457 0 388 0 "},"Ź":{"ha":903,"x_min":35,"x_max":868,"o":"m 457 0 q 590 3 519 0 q 724 20 661 6 q 826 69 786 35 q 865 165 865 103 q 839 251 865 219 q 767 299 813 283 q 664 321 722 315 q 543 328 606 326 q 659 402 601 361 q 764 492 717 443 q 840 596 811 540 q 868 714 868 651 q 828 848 868 797 q 722 924 789 899 q 572 959 656 950 q 397 968 488 968 q 215 947 297 968 q 83 881 132 926 q 35 758 35 835 q 72 658 35 696 q 168 603 110 621 q 292 582 226 585 q 413 585 357 579 q 300 504 361 549 q 185 410 239 460 q 97 310 132 361 q 63 211 63 260 q 97 93 63 136 q 190 30 132 50 q 317 5 247 10 q 457 0 388 0 m 396 1006 q 446 1021 417 1006 q 504 1059 475 1036 q 553 1106 533 1082 q 574 1150 574 1131 q 553 1206 575 1178 q 488 1235 531 1235 q 439 1217 467 1235 q 386 1172 411 1199 q 344 1117 361 1144 q 328 1071 328 1090 q 347 1027 328 1049 q 396 1006 365 1006 "},"Ž":{"ha":903,"x_min":35,"x_max":868,"o":"m 457 0 q 590 3 519 0 q 724 20 661 6 q 826 69 786 35 q 865 165 865 103 q 839 251 865 219 q 767 299 813 283 q 664 321 722 315 q 543 328 606 326 q 659 402 601 361 q 764 492 717 443 q 840 596 811 540 q 868 714 868 651 q 828 848 868 797 q 722 924 789 899 q 572 959 656 950 q 397 968 488 968 q 215 947 297 968 q 83 881 132 926 q 35 758 35 835 q 72 658 35 696 q 168 603 110 621 q 292 582 226 585 q 413 585 357 579 q 300 504 361 549 q 185 410 239 460 q 97 310 132 361 q 63 211 63 260 q 97 93 63 136 q 190 30 132 50 q 317 5 247 10 q 457 0 388 0 m 333 1239 q 275 1219 296 1239 q 254 1163 254 1199 q 283 1092 254 1131 q 358 1027 313 1054 q 450 1000 403 1000 q 543 1026 497 1000 q 619 1090 589 1053 q 650 1163 650 1128 q 629 1219 650 1199 q 571 1239 608 1239 q 506 1217 536 1239 q 453 1167 475 1196 q 399 1217 431 1196 q 333 1239 368 1239 "},"Ż":{"ha":903,"x_min":35,"x_max":868,"o":"m 457 0 q 590 3 519 0 q 724 20 661 6 q 826 69 786 35 q 865 165 865 103 q 839 251 865 219 q 767 299 813 283 q 664 321 722 315 q 543 328 606 326 q 659 402 601 361 q 764 492 717 443 q 840 596 811 540 q 868 714 868 651 q 828 848 868 797 q 722 924 789 899 q 572 959 656 950 q 397 968 488 968 q 215 947 297 968 q 83 881 132 926 q 35 758 35 835 q 72 658 35 696 q 168 603 110 621 q 292 582 226 585 q 413 585 357 579 q 300 504 361 549 q 185 410 239 460 q 97 310 132 361 q 63 211 63 260 q 97 93 63 136 q 190 30 132 50 q 317 5 247 10 q 457 0 388 0 m 451 1018 q 520 1047 492 1018 q 549 1115 549 1076 q 520 1184 549 1156 q 451 1213 492 1213 q 383 1184 411 1213 q 354 1115 354 1156 q 383 1047 354 1076 q 451 1018 411 1018 "},"Ａ":{"ha":971,"x_min":25,"x_max":947,"o":"m 251 -3 q 335 18 306 -3 q 376 70 364 39 q 388 134 388 101 q 383 190 388 167 q 483 188 424 188 q 588 190 543 189 q 583 134 583 167 q 595 70 583 101 q 636 19 607 39 q 719 -1 665 -1 q 870 89 815 -1 q 935 335 925 179 q 895 667 947 524 q 738 890 843 810 q 486 971 633 971 q 235 890 340 971 q 77 666 129 810 q 36 335 25 522 q 101 90 46 183 q 251 -3 156 -3 m 374 438 q 374 531 367 488 q 408 603 382 575 q 482 631 433 631 q 557 603 531 631 q 592 531 583 575 q 593 438 600 486 q 374 438 483 442 "},"Ｂ":{"ha":906,"x_min":35,"x_max":876,"o":"m 494 1 q 676 24 603 1 q 791 86 749 47 q 851 171 833 125 q 869 261 869 217 q 830 372 869 326 q 742 426 790 418 q 842 538 808 475 q 871 685 876 600 q 813 838 865 774 q 671 938 761 903 q 460 972 581 972 q 228 912 322 972 q 84 742 133 851 q 35 481 35 632 q 88 202 35 307 q 243 50 140 97 q 494 1 346 3 m 399 519 q 363 562 372 532 q 363 622 354 592 q 399 665 372 653 q 449 678 419 676 q 506 672 478 679 q 552 644 533 664 q 571 593 571 625 q 540 529 571 550 q 468 508 508 508 q 399 519 428 507 m 399 194 q 363 232 372 206 q 363 285 354 258 q 399 322 372 311 q 449 333 419 331 q 506 328 478 335 q 552 303 533 321 q 571 258 571 286 q 540 203 571 221 q 468 184 508 185 q 399 194 428 183 "},"Ｃ":{"ha":933,"x_min":35,"x_max":899,"o":"m 511 3 q 691 37 613 3 q 816 125 769 71 q 868 239 863 179 q 842 338 874 297 q 750 378 811 378 q 680 361 707 378 q 630 323 653 344 q 574 285 607 301 q 486 268 542 268 q 377 322 415 268 q 339 449 339 376 q 360 535 339 497 q 418 596 382 574 q 497 618 454 618 q 569 604 543 618 q 614 569 596 590 q 649 528 632 549 q 692 494 667 508 q 763 481 718 481 q 840 503 810 481 q 884 559 869 525 q 899 631 899 593 q 847 804 899 726 q 701 927 794 882 q 485 972 608 972 q 304 933 386 972 q 162 826 222 894 q 68 672 101 758 q 35 489 35 585 q 99 218 35 326 q 271 56 163 110 q 511 3 379 3 "},"Ｄ":{"ha":938,"x_min":35,"x_max":903,"o":"m 425 0 q 542 15 478 0 q 669 62 606 29 q 785 149 733 94 q 870 284 838 204 q 903 474 903 364 q 872 671 903 588 q 788 813 840 754 q 672 906 736 871 q 543 956 608 940 q 421 972 478 972 q 208 945 286 972 q 92 859 129 918 q 45 705 56 800 q 35 475 35 610 q 46 249 35 340 q 94 103 57 157 q 211 24 132 49 q 425 0 290 0 m 339 244 l 339 608 q 538 581 467 628 q 610 438 610 535 q 538 278 610 331 q 339 244 467 225 "},"Ｅ":{"ha":840,"x_min":35,"x_max":806,"o":"m 510 0 q 684 18 622 0 q 770 67 746 36 q 794 135 794 99 q 728 222 794 201 q 642 230 686 235 q 574 225 597 225 q 472 249 511 225 q 413 317 432 274 q 453 316 431 317 q 499 315 475 315 q 613 317 558 315 q 688 324 668 319 q 764 363 740 335 q 788 425 788 390 q 763 490 788 461 q 689 528 738 518 q 616 534 668 532 q 507 536 564 536 q 451 535 478 536 q 401 533 424 535 q 459 612 418 586 q 572 638 500 638 q 647 635 606 638 q 728 651 689 633 q 787 704 768 671 q 806 774 806 738 q 791 843 806 808 q 739 907 776 878 q 635 954 701 936 q 465 972 569 972 q 225 904 321 972 q 82 722 129 836 q 35 469 35 608 q 65 258 35 343 q 147 121 96 172 q 261 43 199 69 q 388 8 324 17 q 510 0 453 0 "},"Ｆ":{"ha":858,"x_min":35,"x_max":824,"o":"m 251 1 q 326 24 300 1 q 363 81 353 46 q 374 156 374 117 q 372 199 374 178 q 368 239 371 219 q 412 240 390 239 q 456 240 433 240 q 576 240 517 240 q 683 247 635 239 q 761 281 732 256 q 790 360 790 307 q 761 433 790 408 q 683 467 732 458 q 576 477 635 476 q 456 478 517 478 q 406 478 431 478 q 356 476 381 478 q 357 489 357 482 q 388 552 361 526 q 458 591 415 578 q 549 604 501 604 q 694 615 632 604 q 790 660 756 626 q 824 767 824 694 q 742 917 824 863 q 500 972 661 972 q 319 935 404 972 q 171 831 235 899 q 71 671 107 764 q 35 465 35 578 q 62 197 35 300 q 138 48 89 94 q 251 1 188 1 "},"Ｇ":{"ha":938,"x_min":35,"x_max":903,"o":"m 526 1 q 710 40 626 0 q 843 147 793 79 q 893 299 893 215 q 870 425 893 376 q 791 497 847 474 q 636 519 735 519 q 497 484 535 519 q 460 396 460 449 q 517 312 460 333 q 667 290 574 290 q 651 269 667 283 q 605 244 636 256 q 526 232 574 232 q 438 251 479 232 q 372 310 397 271 q 347 408 347 349 q 401 564 347 510 q 544 618 454 618 q 619 608 592 618 q 674 588 647 599 q 749 578 701 578 q 822 592 786 578 q 880 640 857 606 q 903 738 903 675 q 858 850 903 796 q 731 938 814 904 q 531 972 647 972 q 354 942 442 972 q 194 851 267 913 q 78 692 122 789 q 35 461 35 596 q 92 217 35 321 q 260 58 150 114 q 526 1 371 1 "},"Ｈ":{"ha":1028,"x_min":35,"x_max":993,"o":"m 226 1 q 363 88 326 1 q 407 332 400 175 q 443 332 425 332 q 479 332 461 332 q 553 332 517 332 q 621 333 589 332 q 664 89 628 175 q 800 3 700 3 q 922 57 881 3 q 978 218 964 111 q 993 483 993 325 q 978 750 993 642 q 922 914 964 858 q 800 969 881 969 q 691 925 729 969 q 638 797 653 881 q 619 596 622 714 q 565 597 593 597 q 507 597 536 597 q 457 597 482 597 q 408 597 432 597 q 390 797 406 714 q 335 924 374 881 q 226 968 297 968 q 104 913 146 968 q 49 750 63 858 q 35 483 35 642 q 49 218 35 325 q 104 56 63 111 q 226 1 146 1 "},"Ｉ":{"ha":696,"x_min":35,"x_max":661,"o":"m 349 4 q 449 6 399 4 q 541 19 499 8 q 609 57 583 31 q 635 131 635 83 q 591 219 635 193 q 485 251 547 244 q 491 358 489 300 q 493 482 493 415 q 492 599 493 544 q 486 699 490 653 q 574 717 533 704 q 638 758 614 731 q 661 833 661 786 q 633 915 661 886 q 558 955 604 943 q 457 969 513 967 q 347 972 401 972 q 238 969 293 972 q 137 955 183 967 q 63 915 90 943 q 35 833 35 886 q 85 735 35 763 q 207 699 136 707 q 203 598 204 653 q 201 482 201 543 q 203 358 201 415 q 208 251 204 300 q 107 217 149 243 q 65 131 65 192 q 91 57 65 83 q 158 19 117 31 q 250 6 200 8 q 349 4 300 4 "},"Ｊ":{"ha":944,"x_min":35,"x_max":910,"o":"m 357 0 q 644 119 551 0 q 736 472 736 239 q 735 569 736 525 q 732 650 735 614 q 860 697 810 663 q 910 807 910 732 q 878 899 910 865 q 794 949 847 933 q 673 968 740 964 q 532 972 606 972 q 392 968 460 972 q 269 949 324 964 q 184 899 215 933 q 153 807 153 865 q 188 710 153 744 q 282 661 222 676 q 414 643 342 646 q 414 558 414 606 q 406 365 415 432 q 342 299 397 299 q 297 317 311 299 q 270 360 282 336 q 235 403 258 385 q 163 422 211 422 q 75 386 115 422 q 35 276 35 350 q 75 141 35 204 q 188 39 115 78 q 357 0 260 0 "},"Ｋ":{"ha":886,"x_min":35,"x_max":851,"o":"m 190 0 q 278 26 246 0 q 325 99 310 53 q 345 201 340 144 q 350 319 350 258 q 447 165 394 239 q 560 46 499 92 q 692 0 621 0 q 768 17 732 0 q 827 69 804 33 q 850 164 850 106 q 824 263 850 217 q 753 348 797 308 q 657 420 710 388 q 553 476 604 453 q 708 558 642 508 q 813 670 775 608 q 851 797 851 732 q 809 919 851 869 q 701 968 767 968 q 597 935 649 968 q 500 851 546 903 q 416 743 454 800 q 351 638 378 686 q 351 679 351 664 q 319 897 351 821 q 199 972 286 972 q 83 907 122 972 q 42 742 44 842 q 39 681 40 725 q 37 581 38 638 q 35 472 36 525 q 35 385 35 418 q 38 249 35 317 q 54 124 40 181 q 100 34 68 68 q 190 0 132 0 "},"Ｌ":{"ha":854,"x_min":35,"x_max":819,"o":"m 421 0 q 563 3 492 0 q 692 23 633 7 q 785 77 750 39 q 819 183 819 115 q 789 276 819 240 q 708 328 758 311 q 599 348 658 346 q 483 342 540 350 q 381 321 425 335 q 419 546 400 426 q 439 769 439 665 q 418 871 439 825 q 358 944 397 917 q 260 972 318 972 q 140 933 185 972 q 72 829 94 894 q 42 683 50 764 q 35 519 35 603 q 38 359 35 435 q 56 231 42 283 q 187 56 88 111 q 421 0 286 0 "},"Ｍ":{"ha":1151,"x_min":35,"x_max":1117,"o":"m 572 0 q 656 26 624 0 q 697 90 688 51 q 710 178 708 129 q 713 276 713 226 q 715 366 713 325 q 724 432 717 407 q 751 457 732 457 q 790 434 779 457 q 800 373 800 411 q 794 290 800 335 q 783 202 789 246 q 778 125 778 158 q 810 28 778 56 q 897 0 842 0 q 989 42 949 0 q 1058 152 1029 85 q 1101 298 1086 219 q 1117 447 1117 376 q 1078 713 1117 599 q 965 893 1039 828 q 785 958 890 958 q 678 930 721 958 q 610 858 635 901 q 575 771 585 815 q 540 858 565 815 q 471 930 514 901 q 363 958 428 958 q 218 918 279 958 q 116 810 157 878 q 55 656 75 742 q 35 478 35 569 q 49 319 35 403 q 90 165 63 236 q 158 48 117 93 q 253 3 199 3 q 338 29 307 3 q 369 125 369 56 q 364 202 369 158 q 353 290 358 246 q 349 373 349 335 q 360 434 349 411 q 399 457 371 457 q 425 432 418 457 q 433 365 432 407 q 434 274 435 324 q 436 177 433 225 q 450 90 439 129 q 492 26 461 51 q 572 0 524 0 "},"Ｎ":{"ha":990,"x_min":35,"x_max":956,"o":"m 224 0 q 315 31 283 0 q 360 119 347 63 q 375 256 374 176 q 375 432 376 336 q 433 279 406 356 q 494 140 461 203 q 569 38 526 76 q 671 0 611 0 q 785 35 738 0 q 867 126 833 69 q 919 251 900 183 q 947 388 939 319 q 956 513 956 456 q 948 663 956 583 q 919 812 940 742 q 859 926 899 882 q 754 971 819 971 q 636 913 678 971 q 581 756 594 854 q 574 539 568 658 q 511 704 540 626 q 450 842 482 782 q 378 937 418 903 q 286 971 339 971 q 161 926 210 971 q 85 812 113 882 q 46 663 57 742 q 35 513 35 583 q 40 388 35 457 q 59 251 46 319 q 94 126 72 183 q 148 35 115 69 q 224 0 181 0 "},"Ｏ":{"ha":1017,"x_min":33,"x_max":985,"o":"m 508 -1 q 694 40 607 1 q 846 144 781 78 q 948 297 911 210 q 982 485 985 385 q 942 678 981 589 q 839 833 904 767 q 689 935 774 899 q 508 969 604 971 q 322 931 408 969 q 171 826 236 893 q 69 672 106 760 q 35 485 33 585 q 75 292 38 381 q 178 136 113 203 q 328 33 243 69 q 508 -1 413 -3 m 513 269 q 406 314 451 269 q 360 435 360 358 q 406 557 360 513 q 513 601 451 601 q 619 557 574 601 q 665 435 665 513 q 620 314 667 358 q 513 269 574 269 "},"Ｐ":{"ha":914,"x_min":35,"x_max":879,"o":"m 231 -1 q 315 17 285 -1 q 356 66 344 36 q 367 131 368 96 q 360 199 367 165 q 492 172 421 174 q 631 193 563 169 q 756 266 700 217 q 846 393 813 315 q 879 579 879 471 q 824 788 879 700 q 676 922 768 875 q 469 969 583 969 q 275 926 357 969 q 140 810 193 883 q 60 647 86 738 q 35 463 35 557 q 42 300 35 382 q 69 149 49 218 q 129 40 90 81 q 231 -1 168 -1 m 483 388 q 397 424 433 388 q 360 510 360 461 q 397 597 360 560 q 483 633 433 633 q 570 597 533 633 q 607 510 607 560 q 570 424 607 461 q 483 388 533 388 "}}}
